SplineFontDB: 3.0
FontName: WebAtlas
FullName: WebAtlas
FamilyName: WebAtlas
Weight: Book
Copyright: Copyright (c) 2017, Louis MORAES.
Version: 
ItalicAngle: 0
UnderlinePosition: -170
UnderlineWidth: 50
Ascent: 800
Descent: 200
InvalidEm: 0
sfntRevision: 0x00010000
LayerCount: 2
Layer: 0 1 "Arri+AOgA-re" 1
Layer: 1 1 "Avant" 0
XUID: [1021 206 1625637039 14079]
StyleMap: 0x0040
FSType: 8
OS2Version: 3
OS2_WeightWidthSlopeOnly: 0
OS2_UseTypoMetrics: 0
CreationTime: 1375896762
ModificationTime: 1521149233
PfmFamily: 81
TTFWeight: 400
TTFWidth: 5
LineGap: 0
VLineGap: 0
Panose: 0 0 5 0 0 0 0 0 0 0
OS2TypoAscent: 700
OS2TypoAOffset: 0
OS2TypoDescent: -201
OS2TypoDOffset: 0
OS2TypoLinegap: 299
OS2WinAscent: 999
OS2WinAOffset: 0
OS2WinDescent: 201
OS2WinDOffset: 0
HheadAscent: 999
HheadAOffset: 0
HheadDescent: -201
HheadDOffset: 0
OS2SubXSize: 650
OS2SubYSize: 600
OS2SubXOff: 0
OS2SubYOff: 75
OS2SupXSize: 650
OS2SupYSize: 600
OS2SupXOff: 0
OS2SupYOff: 350
OS2StrikeYSize: 50
OS2StrikeYPos: 292
OS2CapHeight: 690
OS2XHeight: 487
OS2Vendor: 'UKWN'
OS2CodePages: 20000097.00000000
OS2UnicodeRanges: 00000207.00000000.00000000.00000000
Lookup: 258 0 0 "'kern' Cr+AOkA-nage horizontal lookups0" { "'kern' Cr+AOkA-nage horizontal lookups0 per glyph data 0"  "'kern' Cr+AOkA-nage horizontal lookups0 classe de cr+AOkA-nage 1"  "'kern' Cr+AOkA-nage horizontal lookups0 classe de cr+AOkA-nage 2"  "'kern' Cr+AOkA-nage horizontal lookups0 classe de cr+AOkA-nage 3"  } ['kern' ('DFLT' <'dflt' > 'cyrl' <'dflt' > 'grek' <'dflt' > 'latn' <'dflt' > ) ]
MarkAttachClasses: 1
DEI: 91125
KernClass2: 45 58 "'kern' Cr+AOkA-nage horizontal lookups0 classe de cr+AOkA-nage 1"
 0 
 0 
 0 
 0 
 0 
 0 
 0 
 0 
 0 
 0 
 0 
 0 
 0 
 0 
 0 
 0 
 0 
 0 
 0 
 0 
 0 
 0 
 0 
 0 
 0 
 0 
 0 
 0 
 0 
 0 
 0 
 0 
 0 
 0 
 0 
 0 
 0 
 0 
 0 
 0 
 0 
 0 
 0 
 0 
 0 
 0 
 0 
 6 hyphen
 0 
 20 quotedbl quotesingle
 0 
 0 
 0 
 0 
 0 
 8 asterisk
 0 
 0 
 0 
 0 
 0 
 0 
 0 
 0 
 0 
 0 
 0 
 0 
 0 
 0 
 0 
 0 
 0 
 0 
 0 

StartChar: asterisk
Encoding: 42 42 3
Width: 620
VWidth: 0
GlyphClass: 2
Flags: W
LayerCount: 2
Fore
SplineSet
322 800 m 0,0,1
 363.51953125 801.76953125 363.51953125 801.76953125 364.140625 760.2265625 c 0,2,3
 364.140625 760.12109375 364.140625 760.12109375 364.45703125 680.4453125 c 1,4,5
 429.77734375 701.3984375 429.77734375 701.3984375 440.37109375 704.83203125 c 0,6,7
 482.21875 718.44921875 482.21875 718.44921875 492.34375 675.21875 c 0,8,9
 500.72265625 639.46484375 500.72265625 639.46484375 465.37890625 627.96875 c 0,10,11
 451.08203125 623.29296875 451.08203125 623.29296875 424.9140625 614.65625 c 128,-1,12
 398.74609375 606.01953125 398.74609375 606.01953125 389.62890625 603.03125 c 1,13,14
 428.5703125 548.984375 428.5703125 548.984375 436.26953125 538.390625 c 0,15,16
 467 496 467 496 412.8671875 474.98046875 c 0,17,18
 388.79674004 466.172589615 388.79674004 466.172589615 370.84375 490.89453125 c 0,19,20
 362.06640625 502.91796875 362.06640625 502.91796875 345.90625 524.94921875 c 128,-1,21
 329.74609375 546.9921875 329.74609375 546.9921875 323.734375 555.20703125 c 1,22,23
 285.63671875 503.1640625 285.63671875 503.1640625 276.625 490.89453125 c 0,24,25
 252.63671875 459.74609375 252.63671875 459.74609375 220.84375 482.85546875 c 128,-1,26
 189.0390625 505.9765625 189.0390625 505.9765625 211.28125 538.390625 c 0,27,28
 219.296875 549.5234375 219.296875 549.5234375 236.16015625 572.87890625 c 128,-1,29
 253.01171875 596.22265625 253.01171875 596.22265625 257.921875 603.03125 c 1,30,31
 193.83203125 624.13671875 193.83203125 624.13671875 182.16015625 627.96875 c 0,32,33
 144.51953125 640.8359375 144.51953125 640.8359375 156.7890625 678.67578125 c 128,-1,34
 169.0703125 716.515625 169.0703125 716.515625 207.09765625 704.83203125 c 0,35,36
 218.67578125 701.05859375 218.67578125 701.05859375 244.38671875 692.84375 c 128,-1,37
 270.09765625 684.62890625 270.09765625 684.62890625 283.01171875 680.4453125 c 1,38,39
 283.05859375 693.734375 283.05859375 693.734375 283.1640625 720.3359375 c 128,-1,40
 283.26953125 746.92578125 283.26953125 746.92578125 283.328125 760.2265625 c 0,41,42
 283.890625 798.34765625 283.890625 798.34765625 322 800 c 0,0,1
EndSplineSet
Validated: 33
EndChar

StartChar: plus
Encoding: 43 43 4
Width: 700
VWidth: 77
GlyphClass: 2
Flags: W
LayerCount: 2
Fore
SplineSet
349.321289062 631.790039062 m 0,0,1
 395.87890625 631.790039062 395.87890625 631.790039062 395.87890625 585.858398438 c 0,2,-1
 395.87890625 430.946289062 l 1,3,-1
 550.178710938 430.946289062 l 2,4,5
 596.122070312 430.946289062 596.122070312 430.946289062 596.122070312 385.014648438 c 128,-1,6
 596.122070312 339.0703125 596.122070312 339.0703125 550.178710938 339.0703125 c 2,7,-1
 395.87890625 339.0703125 l 1,8,-1
 395.87890625 184.796875 l 2,9,10
 395.87890625 137.959960938 395.87890625 137.959960938 349.946289062 137.959960938 c 128,-1,11
 304.014648438 137.959960938 304.014648438 137.959960938 304.014648438 183.891601562 c 0,12,-1
 304.029296875 339.0703125 l 1,13,-1
 149.821289062 339.0703125 l 2,14,15
 103.877929688 339.0703125 103.877929688 339.0703125 103.877929688 385.014648438 c 128,-1,16
 103.877929688 430.946289062 103.877929688 430.946289062 149.821289062 430.946289062 c 2,17,-1
 304.029296875 430.946289062 l 1,18,-1
 304.029296875 585.153320312 l 2,19,20
 304.014648438 631.163085938 304.014648438 631.163085938 349.321289062 631.790039062 c 0,0,1
EndSplineSet
Validated: 33
EndChar

StartChar: hyphen
Encoding: 45 45 5
Width: 700
VWidth: 77
GlyphClass: 2
Flags: W
LayerCount: 2
Fore
SplineSet
148.563476562 434.049804688 m 2,0,-1
 548.747070312 434.049804688 l 2,1,2
 595.310546875 434.049804688 595.310546875 434.049804688 595.310546875 388.138671875 c 128,-1,3
 595.310546875 342.227539062 595.310546875 342.227539062 549.3984375 342.227539062 c 0,4,-1
 148.563476562 342.227539062 l 2,5,6
 102 342.227539062 102 342.227539062 102 388.138671875 c 128,-1,7
 102 434.049804688 102 434.049804688 148.563476562 434.049804688 c 2,0,-1
EndSplineSet
Validated: 1
EndChar

StartChar: less
Encoding: 60 60 6
Width: 722
GlyphClass: 2
Flags: W
LayerCount: 2
Fore
SplineSet
578 898 m 2,0,-1
 577 898 l 2,1,2
 550 898 550 898 531 878 c 2,3,-1
 99 446 l 2,4,5
 80 427 80 427 80 400 c 128,-1,6
 80 373 80 373 99 354 c 2,7,-1
 531 -78 l 2,8,9
 550 -98 550 -98 577 -98 c 256,10,11
 604 -98 604 -98 623 -79 c 128,-1,12
 642 -60 642 -60 642 -33 c 256,13,14
 642 -6 642 -6 623 13 c 2,15,-1
 236 400 l 1,16,-1
 623 787 l 2,17,18
 642 806 642 806 642 833 c 256,19,20
 642 860 642 860 623 879 c 128,-1,21
 604 898 604 898 578 898 c 2,0,-1
EndSplineSet
Validated: 9
EndChar

StartChar: greater
Encoding: 62 62 7
Width: 722
GlyphClass: 2
Flags: W
LayerCount: 2
Fore
SplineSet
144 898 m 2,0,-1
 145 898 l 2,1,2
 172 898 172 898 191 878 c 2,3,-1
 623 446 l 2,4,5
 642 427 642 427 642 400 c 128,-1,6
 642 373 642 373 623 354 c 2,7,-1
 191 -78 l 2,8,9
 172 -98 172 -98 145 -98 c 256,10,11
 118 -98 118 -98 99 -79 c 128,-1,12
 80 -60 80 -60 80 -33 c 256,13,14
 80 -6 80 -6 99 13 c 2,15,-1
 486 400 l 1,16,-1
 99 787 l 2,17,18
 80 806 80 806 80 833 c 256,19,20
 80 860 80 860 99 879 c 128,-1,21
 118 898 118 898 144 898 c 2,0,-1
EndSplineSet
Validated: 1
EndChar

StartChar: K
Encoding: 75 75 8
Width: 386
GlyphClass: 2
Flags: W
LayerCount: 2
Fore
SplineSet
54.478515625 702.154296875 m 1,0,-1
 54.92578125 702.162109375 l 2,1,2
 67.3154296875 702.162109375 67.3154296875 702.162109375 76.0849609375 693.393554688 c 128,-1,3
 84.853515625 684.625 84.853515625 684.625 84.853515625 672.234375 c 0,4,-1
 84.8505859375 283.770507812 l 1,5,-1
 285.1171875 490.571289062 l 2,6,7
 293.428710938 499.399414062 293.428710938 499.399414062 305.540039062 499.953125 c 0,8,9
 306.209960938 499.984375 306.209960938 499.984375 306.905273438 499.984375 c 0,10,11
 319.294921875 499.984375 319.294921875 499.984375 328.064453125 491.215820312 c 128,-1,12
 336.833007812 482.447265625 336.833007812 482.447265625 336.833007812 470.056640625 c 128,-1,13
 336.833007812 457.6953125 336.833007812 457.6953125 328.109375 448.936523438 c 2,14,-1
 134.520507812 249.025390625 l 1,15,-1
 328.2421875 46.091796875 l 2,16,17
 336.845703125 37.35546875 336.845703125 37.35546875 336.845703125 25.09375 c 128,-1,18
 336.845703125 12.703125 336.845703125 12.703125 328.077148438 3.9345703125 c 128,-1,19
 319.30859375 -4.833984375 319.30859375 -4.833984375 306.91796875 -4.833984375 c 0,20,21
 293.8359375 -4.833984375 293.8359375 -4.833984375 284.952148438 4.7666015625 c 2,22,-1
 84.8525390625 214.388671875 l 1,23,-1
 84.8525390625 21.4560546875 l 2,24,25
 84.85546875 8.619140625 84.85546875 8.619140625 76.0869140625 -0.150390625 c 128,-1,26
 67.318359375 -8.9189453125 67.318359375 -8.9189453125 54.927734375 -8.9189453125 c 128,-1,27
 42.5380859375 -8.9189453125 42.5380859375 -8.9189453125 33.76953125 -0.150390625 c 128,-1,28
 25 8.619140625 25 8.619140625 25 21.0087890625 c 0,29,-1
 25.00390625 671.811523438 l 2,30,31
 25.0009765625 684.434570312 25.0009765625 684.434570312 33.6376953125 693.203125 c 128,-1,32
 42.275390625 701.970703125 42.275390625 701.970703125 54.478515625 702.154296875 c 1,0,-1
EndSplineSet
EndChar

StartChar: L
Encoding: 76 76 9
Width: 134
GlyphClass: 2
Flags: W
LayerCount: 2
Fore
SplineSet
54.4765625 702.154296875 m 0,0,-1
 54.9267578125 702.153320312 l 2,1,2
 67.3173828125 702.153320312 67.3173828125 702.153320312 76.0859375 693.384765625 c 128,-1,3
 84.8544921875 684.616210938 84.8544921875 684.616210938 84.8544921875 672.225585938 c 0,4,-1
 84.8515625 21.451171875 l 2,5,6
 84.85546875 8.6142578125 84.85546875 8.6142578125 76.0869140625 -0.154296875 c 128,-1,7
 67.3173828125 -8.9228515625 67.3173828125 -8.9228515625 54.927734375 -8.9228515625 c 128,-1,8
 42.537109375 -8.9228515625 42.537109375 -8.9228515625 33.7685546875 -0.154296875 c 128,-1,9
 25 8.6142578125 25 8.6142578125 25 21.0048828125 c 0,10,-1
 25.0029296875 671.806640625 l 2,11,12
 25 684.434570312 25 684.434570312 33.63671875 693.203125 c 128,-1,13
 42.2734375 701.970703125 42.2734375 701.970703125 54.4765625 702.154296875 c 0,0,-1
EndSplineSet
EndChar

StartChar: M
Encoding: 77 77 10
Width: 658
GlyphClass: 2
Flags: W
LayerCount: 2
Fore
SplineSet
440.55078125 501.200195312 m 0,0,1
 518.952148438 501.202148438 518.952148438 501.202148438 559.944335938 459.439453125 c 0,2,3
 608.3203125 410.15234375 608.3203125 410.15234375 608.302734375 299.861328125 c 2,4,-1
 608.290039062 23.3720703125 l 2,5,6
 608.474609375 10.8466796875 608.474609375 10.8466796875 599.682617188 1.923828125 c 128,-1,7
 590.889648438 -6.998046875 590.889648438 -6.998046875 578.36328125 -6.9970703125 c 128,-1,8
 565.836914062 -6.99609375 565.836914062 -6.99609375 557.044921875 1.927734375 c 128,-1,9
 548.25390625 10.8515625 548.25390625 10.8515625 548.440429688 23.376953125 c 2,10,-1
 548.454101562 299.866210938 l 2,11,12
 548.459960938 385.696289062 548.459960938 385.696289062 517.231445312 417.510742188 c 0,13,14
 493.833007812 441.349609375 493.833007812 441.349609375 440.541992188 441.349609375 c 0,15,16
 378.4140625 441.349609375 378.4140625 441.349609375 332.837890625 441.118164062 c 1,17,18
 348.4765625 417.038085938 348.4765625 417.038085938 353.407226562 383.741210938 c 128,-1,19
 358.336914062 350.444335938 358.336914062 350.444335938 357.9296875 298.184570312 c 0,20,-1
 357.916992188 23.4248046875 l 2,21,22
 358.037109375 15.212890625 358.037109375 15.212890625 354.061523438 8.212890625 c 128,-1,23
 350.084960938 1.212890625 350.084960938 1.212890625 343.14453125 -2.865234375 c 128,-1,24
 336.203125 -6.943359375 336.203125 -6.943359375 327.991210938 -6.943359375 c 0,25,26
 315.465820312 -6.9423828125 315.465820312 -6.9423828125 306.673828125 1.98046875 c 128,-1,27
 297.8828125 10.9033203125 297.8828125 10.9033203125 298.067382812 23.4267578125 c 2,28,-1
 298.081054688 298.538085938 l 2,29,30
 298.825195312 393.69140625 298.825195312 393.69140625 276.170898438 416.577148438 c 0,31,32
 251.89453125 441.1015625 251.89453125 441.1015625 150.50390625 441.1015625 c 2,33,-1
 85.1123046875 441.1015625 l 1,34,-1
 85.1123046875 24.0126953125 l 2,35,36
 85.41015625 4.8125 85.41015625 4.8125 70.234375 -3.119140625 c 128,-1,37
 55.0595703125 -11.0498046875 55.0595703125 -11.0498046875 39.8837890625 -3.119140625 c 128,-1,38
 24.7080078125 4.8125 24.7080078125 4.8125 25.005859375 24.0126953125 c 2,39,-1
 25.005859375 466.234375 l 2,40,41
 24.7705078125 482.857421875 24.7705078125 482.857421875 37.8359375 492.836914062 c 0,42,43
 48.677734375 501.1171875 48.677734375 501.1171875 60.8330078125 500.94140625 c 2,44,-1
 150.50390625 500.94140625 l 2,45,46
 253.809570312 500.94140625 253.809570312 500.94140625 295.348632812 476.713867188 c 1,47,48
 297.407226562 487.326171875 297.407226562 487.326171875 305.7734375 494.172851562 c 128,-1,49
 314.140625 501.01953125 314.140625 501.01953125 324.951171875 500.938476562 c 0,50,51
 371.77734375 501.200195312 371.77734375 501.200195312 440.55078125 501.200195312 c 0,0,1
EndSplineSet
EndChar

StartChar: N
Encoding: 78 78 11
Width: 407
GlyphClass: 2
Flags: W
LayerCount: 2
Fore
SplineSet
150.4765625 499.633789062 m 1,0,-1
 150.505859375 499.63671875 l 1,1,2
 216.135742188 499.63671875 216.135742188 499.63671875 254.879882812 491.322265625 c 128,-1,3
 293.623046875 483.0078125 293.623046875 483.0078125 318.583984375 458.083984375 c 0,4,5
 343.245117188 433.458984375 343.245117188 433.458984375 350.823242188 396.690429688 c 128,-1,6
 358.400390625 359.921875 358.400390625 359.921875 357.9296875 298.294921875 c 0,7,-1
 357.916015625 24.7958984375 l 2,8,9
 358.064453125 12.2958984375 358.064453125 12.2958984375 349.27734375 3.404296875 c 128,-1,10
 340.489257812 -5.4873046875 340.489257812 -5.4873046875 327.98828125 -5.486328125 c 128,-1,11
 315.487304688 -5.4853515625 315.487304688 -5.4853515625 306.701171875 3.4072265625 c 128,-1,12
 297.915039062 12.2998046875 297.915039062 12.2998046875 298.065429688 24.7998046875 c 2,13,-1
 298.080078125 298.411132812 l 1,14,-1
 298.080078125 298.525390625 l 2,15,16
 298.819335938 393.231445312 298.819335938 393.231445312 276.29296875 415.725585938 c 0,17,18
 252.205078125 439.780273438 252.205078125 439.780273438 150.50390625 439.780273438 c 2,19,-1
 85.111328125 439.659179688 l 1,20,-1
 85.111328125 24.63671875 l 2,21,22
 85.4091796875 5.4365234375 85.4091796875 5.4365234375 70.234375 -2.494140625 c 128,-1,23
 55.05859375 -10.4248046875 55.05859375 -10.4248046875 39.8828125 -2.494140625 c 128,-1,24
 24.7080078125 5.4365234375 24.7080078125 5.4365234375 25.005859375 24.63671875 c 2,25,-1
 25.005859375 466.114257812 l 2,26,27
 24.7734375 482.549804688 24.7734375 482.549804688 36.8037109375 492.772460938 c 0,28,29
 44.908203125 499.661132812 44.908203125 499.661132812 60.779296875 499.46484375 c 2,30,-1
 150.4765625 499.633789062 l 1,0,-1
EndSplineSet
EndChar

StartChar: O
Encoding: 79 79 12
Width: 413
GlyphClass: 2
Flags: W
LayerCount: 2
Fore
SplineSet
194.299804688 501.611328125 m 1,0,1
 258.836914062 501.532226562 258.836914062 501.532226562 293.208007812 478.114257812 c 0,2,3
 337.66015625 453.670898438 337.66015625 453.670898438 351.444335938 379.204101562 c 0,4,5
 372.546875 267.763671875 372.546875 267.763671875 357.934570312 162.571289062 c 0,6,7
 357.35546875 159.47265625 357.35546875 159.47265625 355.140625 147.280273438 c 128,-1,8
 352.92578125 135.086914062 352.92578125 135.086914062 352.08984375 130.858398438 c 128,-1,9
 351.25390625 126.629882812 351.25390625 126.629882812 348.869140625 115.723632812 c 128,-1,10
 346.484375 104.817382812 346.484375 104.817382812 344.78125 99.5 c 128,-1,11
 343.078125 94.1826171875 343.078125 94.1826171875 339.96484375 84.9228515625 c 128,-1,12
 336.8515625 75.6640625 336.8515625 75.6640625 333.72265625 69.6171875 c 128,-1,13
 330.59375 63.5703125 330.59375 63.5703125 326.194335938 56.318359375 c 128,-1,14
 321.794921875 49.06640625 321.794921875 49.06640625 316.735351562 42.970703125 c 0,15,16
 285.641601562 11.2451171875 285.641601562 11.2451171875 237.868164062 0.6123046875 c 128,-1,17
 190.094726562 -10.0205078125 190.094726562 -10.0205078125 147.5234375 1.1923828125 c 0,18,19
 74.1044921875 20.20703125 74.1044921875 20.20703125 53.5400390625 72.453125 c 0,20,21
 12.6494140625 180.227539062 12.6494140625 180.227539062 30.3447265625 337.930664062 c 0,22,23
 35.708984375 372.8046875 35.708984375 372.8046875 38.515625 387.385742188 c 128,-1,24
 41.322265625 401.967773438 41.322265625 401.967773438 52.4130859375 427.494140625 c 128,-1,25
 63.50390625 453.020507812 63.50390625 453.020507812 80.7548828125 467.841796875 c 0,26,27
 121.776367188 502.983398438 121.776367188 502.983398438 194.299804688 501.611328125 c 1,0,1
194.299804688 440.668945312 m 1,28,29
 127.466796875 439.965820312 127.466796875 439.965820312 112.501953125 408.875976562 c 0,30,31
 100.999023438 385.625 100.999023438 385.625 94.9189453125 353.407226562 c 128,-1,32
 88.837890625 321.189453125 88.837890625 321.189453125 87.978515625 304.82421875 c 128,-1,33
 87.1181640625 288.458984375 87.1181640625 288.458984375 85.814453125 246.309570312 c 0,34,35
 87.009765625 153.450195312 87.009765625 153.450195312 110 100.987304688 c 0,36,37
 120.71875 68.091796875 120.71875 68.091796875 161.088867188 59.203125 c 1,38,39
 210.7734375 53.5615234375 210.7734375 53.5615234375 239.495117188 62.53125 c 0,40,41
 271.645507812 74.951171875 271.645507812 74.951171875 281.62890625 107.935546875 c 0,42,43
 303.458007812 164.896484375 303.458007812 164.896484375 302.6640625 255.546875 c 0,44,45
 302.509765625 259.201171875 302.509765625 259.201171875 302.217773438 266.557617188 c 0,46,47
 300.862304688 300.744140625 300.862304688 300.744140625 299.313476562 319.598632812 c 128,-1,48
 297.764648438 338.452148438 297.764648438 338.452148438 290.989257812 366.610351562 c 128,-1,49
 284.21484375 394.767578125 284.21484375 394.767578125 272.116210938 415.724609375 c 0,50,51
 253.703125 439.944335938 253.703125 439.944335938 194.299804688 440.668945312 c 1,28,29
EndSplineSet
EndChar

StartChar: k
Encoding: 107 107 13
Width: 386
GlyphClass: 2
Flags: W
LayerCount: 2
Fore
SplineSet
54.478515625 702.154296875 m 1,0,-1
 54.92578125 702.162109375 l 2,1,2
 67.3154296875 702.162109375 67.3154296875 702.162109375 76.0849609375 693.393554688 c 128,-1,3
 84.853515625 684.625 84.853515625 684.625 84.853515625 672.234375 c 0,4,-1
 84.8505859375 283.770507812 l 1,5,-1
 285.1171875 490.571289062 l 2,6,7
 293.428710938 499.399414062 293.428710938 499.399414062 305.540039062 499.953125 c 0,8,9
 306.209960938 499.984375 306.209960938 499.984375 306.905273438 499.984375 c 0,10,11
 319.294921875 499.984375 319.294921875 499.984375 328.064453125 491.215820312 c 128,-1,12
 336.833007812 482.447265625 336.833007812 482.447265625 336.833007812 470.056640625 c 128,-1,13
 336.833007812 457.6953125 336.833007812 457.6953125 328.109375 448.936523438 c 2,14,-1
 134.520507812 249.025390625 l 1,15,-1
 328.2421875 46.091796875 l 2,16,17
 336.845703125 37.35546875 336.845703125 37.35546875 336.845703125 25.09375 c 128,-1,18
 336.845703125 12.703125 336.845703125 12.703125 328.077148438 3.9345703125 c 128,-1,19
 319.30859375 -4.833984375 319.30859375 -4.833984375 306.91796875 -4.833984375 c 0,20,21
 293.8359375 -4.833984375 293.8359375 -4.833984375 284.952148438 4.7666015625 c 2,22,-1
 84.8525390625 214.388671875 l 1,23,-1
 84.8525390625 21.4560546875 l 2,24,25
 84.85546875 8.619140625 84.85546875 8.619140625 76.0869140625 -0.150390625 c 128,-1,26
 67.318359375 -8.9189453125 67.318359375 -8.9189453125 54.927734375 -8.9189453125 c 128,-1,27
 42.5380859375 -8.9189453125 42.5380859375 -8.9189453125 33.76953125 -0.150390625 c 128,-1,28
 25 8.619140625 25 8.619140625 25 21.0087890625 c 0,29,-1
 25.00390625 671.811523438 l 2,30,31
 25.0009765625 684.434570312 25.0009765625 684.434570312 33.6376953125 693.203125 c 128,-1,32
 42.275390625 701.970703125 42.275390625 701.970703125 54.478515625 702.154296875 c 1,0,-1
EndSplineSet
EndChar

StartChar: l
Encoding: 108 108 14
Width: 134
GlyphClass: 2
Flags: W
LayerCount: 2
Fore
SplineSet
54.4765625 702.154296875 m 0,0,-1
 54.9267578125 702.153320312 l 2,1,2
 67.3173828125 702.153320312 67.3173828125 702.153320312 76.0859375 693.384765625 c 128,-1,3
 84.8544921875 684.616210938 84.8544921875 684.616210938 84.8544921875 672.225585938 c 0,4,-1
 84.8515625 21.451171875 l 2,5,6
 84.85546875 8.6142578125 84.85546875 8.6142578125 76.0869140625 -0.154296875 c 128,-1,7
 67.3173828125 -8.9228515625 67.3173828125 -8.9228515625 54.927734375 -8.9228515625 c 128,-1,8
 42.537109375 -8.9228515625 42.537109375 -8.9228515625 33.7685546875 -0.154296875 c 128,-1,9
 25 8.6142578125 25 8.6142578125 25 21.0048828125 c 0,10,-1
 25.0029296875 671.806640625 l 2,11,12
 25 684.434570312 25 684.434570312 33.63671875 693.203125 c 128,-1,13
 42.2734375 701.970703125 42.2734375 701.970703125 54.4765625 702.154296875 c 0,0,-1
EndSplineSet
EndChar

StartChar: m
Encoding: 109 109 15
Width: 658
GlyphClass: 2
Flags: W
LayerCount: 2
Fore
SplineSet
440.55078125 501.200195312 m 0,0,1
 518.952148438 501.202148438 518.952148438 501.202148438 559.944335938 459.439453125 c 0,2,3
 608.3203125 410.15234375 608.3203125 410.15234375 608.302734375 299.861328125 c 2,4,-1
 608.290039062 23.3720703125 l 2,5,6
 608.474609375 10.8466796875 608.474609375 10.8466796875 599.682617188 1.923828125 c 128,-1,7
 590.889648438 -6.998046875 590.889648438 -6.998046875 578.36328125 -6.9970703125 c 128,-1,8
 565.836914062 -6.99609375 565.836914062 -6.99609375 557.044921875 1.927734375 c 128,-1,9
 548.25390625 10.8515625 548.25390625 10.8515625 548.440429688 23.376953125 c 2,10,-1
 548.454101562 299.866210938 l 2,11,12
 548.459960938 385.696289062 548.459960938 385.696289062 517.231445312 417.510742188 c 0,13,14
 493.833007812 441.349609375 493.833007812 441.349609375 440.541992188 441.349609375 c 0,15,16
 378.4140625 441.349609375 378.4140625 441.349609375 332.837890625 441.118164062 c 1,17,18
 348.4765625 417.038085938 348.4765625 417.038085938 353.407226562 383.741210938 c 128,-1,19
 358.336914062 350.444335938 358.336914062 350.444335938 357.9296875 298.184570312 c 0,20,-1
 357.916992188 23.4248046875 l 2,21,22
 358.037109375 15.212890625 358.037109375 15.212890625 354.061523438 8.212890625 c 128,-1,23
 350.084960938 1.212890625 350.084960938 1.212890625 343.14453125 -2.865234375 c 128,-1,24
 336.203125 -6.943359375 336.203125 -6.943359375 327.991210938 -6.943359375 c 0,25,26
 315.465820312 -6.9423828125 315.465820312 -6.9423828125 306.673828125 1.98046875 c 128,-1,27
 297.8828125 10.9033203125 297.8828125 10.9033203125 298.067382812 23.4267578125 c 2,28,-1
 298.081054688 298.538085938 l 2,29,30
 298.825195312 393.69140625 298.825195312 393.69140625 276.170898438 416.577148438 c 0,31,32
 251.89453125 441.1015625 251.89453125 441.1015625 150.50390625 441.1015625 c 2,33,-1
 85.1123046875 441.1015625 l 1,34,-1
 85.1123046875 24.0126953125 l 2,35,36
 85.41015625 4.8125 85.41015625 4.8125 70.234375 -3.119140625 c 128,-1,37
 55.0595703125 -11.0498046875 55.0595703125 -11.0498046875 39.8837890625 -3.119140625 c 128,-1,38
 24.7080078125 4.8125 24.7080078125 4.8125 25.005859375 24.0126953125 c 2,39,-1
 25.005859375 466.234375 l 2,40,41
 24.7705078125 482.857421875 24.7705078125 482.857421875 37.8359375 492.836914062 c 0,42,43
 48.677734375 501.1171875 48.677734375 501.1171875 60.8330078125 500.94140625 c 2,44,-1
 150.50390625 500.94140625 l 2,45,46
 253.809570312 500.94140625 253.809570312 500.94140625 295.348632812 476.713867188 c 1,47,48
 297.407226562 487.326171875 297.407226562 487.326171875 305.7734375 494.172851562 c 128,-1,49
 314.140625 501.01953125 314.140625 501.01953125 324.951171875 500.938476562 c 0,50,51
 371.77734375 501.200195312 371.77734375 501.200195312 440.55078125 501.200195312 c 0,0,1
EndSplineSet
EndChar

StartChar: n
Encoding: 110 110 16
Width: 407
GlyphClass: 2
Flags: W
LayerCount: 2
Fore
SplineSet
150.4765625 499.633789062 m 1,0,-1
 150.505859375 499.63671875 l 1,1,2
 216.135742188 499.63671875 216.135742188 499.63671875 254.879882812 491.322265625 c 128,-1,3
 293.623046875 483.0078125 293.623046875 483.0078125 318.583984375 458.083984375 c 0,4,5
 343.245117188 433.458984375 343.245117188 433.458984375 350.823242188 396.690429688 c 128,-1,6
 358.400390625 359.921875 358.400390625 359.921875 357.9296875 298.294921875 c 0,7,-1
 357.916015625 24.7958984375 l 2,8,9
 358.064453125 12.2958984375 358.064453125 12.2958984375 349.27734375 3.404296875 c 128,-1,10
 340.489257812 -5.4873046875 340.489257812 -5.4873046875 327.98828125 -5.486328125 c 128,-1,11
 315.487304688 -5.4853515625 315.487304688 -5.4853515625 306.701171875 3.4072265625 c 128,-1,12
 297.915039062 12.2998046875 297.915039062 12.2998046875 298.065429688 24.7998046875 c 2,13,-1
 298.080078125 298.411132812 l 1,14,-1
 298.080078125 298.525390625 l 2,15,16
 298.819335938 393.231445312 298.819335938 393.231445312 276.29296875 415.725585938 c 0,17,18
 252.205078125 439.780273438 252.205078125 439.780273438 150.50390625 439.780273438 c 2,19,-1
 85.111328125 439.659179688 l 1,20,-1
 85.111328125 24.63671875 l 2,21,22
 85.4091796875 5.4365234375 85.4091796875 5.4365234375 70.234375 -2.494140625 c 128,-1,23
 55.05859375 -10.4248046875 55.05859375 -10.4248046875 39.8828125 -2.494140625 c 128,-1,24
 24.7080078125 5.4365234375 24.7080078125 5.4365234375 25.005859375 24.63671875 c 2,25,-1
 25.005859375 466.114257812 l 2,26,27
 24.7734375 482.549804688 24.7734375 482.549804688 36.8037109375 492.772460938 c 0,28,29
 44.908203125 499.661132812 44.908203125 499.661132812 60.779296875 499.46484375 c 2,30,-1
 150.4765625 499.633789062 l 1,0,-1
EndSplineSet
EndChar

StartChar: o
Encoding: 111 111 17
Width: 413
GlyphClass: 2
Flags: W
LayerCount: 2
Fore
SplineSet
194.299804688 501.611328125 m 1,0,1
 258.836914062 501.532226562 258.836914062 501.532226562 293.208007812 478.114257812 c 0,2,3
 337.66015625 453.670898438 337.66015625 453.670898438 351.444335938 379.204101562 c 0,4,5
 372.546875 267.763671875 372.546875 267.763671875 357.934570312 162.571289062 c 0,6,7
 357.35546875 159.47265625 357.35546875 159.47265625 355.140625 147.280273438 c 128,-1,8
 352.92578125 135.086914062 352.92578125 135.086914062 352.08984375 130.858398438 c 128,-1,9
 351.25390625 126.629882812 351.25390625 126.629882812 348.869140625 115.723632812 c 128,-1,10
 346.484375 104.817382812 346.484375 104.817382812 344.78125 99.5 c 128,-1,11
 343.078125 94.1826171875 343.078125 94.1826171875 339.96484375 84.9228515625 c 128,-1,12
 336.8515625 75.6640625 336.8515625 75.6640625 333.72265625 69.6171875 c 128,-1,13
 330.59375 63.5703125 330.59375 63.5703125 326.194335938 56.318359375 c 128,-1,14
 321.794921875 49.06640625 321.794921875 49.06640625 316.735351562 42.970703125 c 0,15,16
 285.641601562 11.2451171875 285.641601562 11.2451171875 237.868164062 0.6123046875 c 128,-1,17
 190.094726562 -10.0205078125 190.094726562 -10.0205078125 147.5234375 1.1923828125 c 0,18,19
 74.1044921875 20.20703125 74.1044921875 20.20703125 53.5400390625 72.453125 c 0,20,21
 12.6494140625 180.227539062 12.6494140625 180.227539062 30.3447265625 337.930664062 c 0,22,23
 35.708984375 372.8046875 35.708984375 372.8046875 38.515625 387.385742188 c 128,-1,24
 41.322265625 401.967773438 41.322265625 401.967773438 52.4130859375 427.494140625 c 128,-1,25
 63.50390625 453.020507812 63.50390625 453.020507812 80.7548828125 467.841796875 c 0,26,27
 121.776367188 502.983398438 121.776367188 502.983398438 194.299804688 501.611328125 c 1,0,1
194.299804688 440.668945312 m 1,28,29
 127.466796875 439.965820312 127.466796875 439.965820312 112.501953125 408.875976562 c 0,30,31
 100.999023438 385.625 100.999023438 385.625 94.9189453125 353.407226562 c 128,-1,32
 88.837890625 321.189453125 88.837890625 321.189453125 87.978515625 304.82421875 c 128,-1,33
 87.1181640625 288.458984375 87.1181640625 288.458984375 85.814453125 246.309570312 c 0,34,35
 87.009765625 153.450195312 87.009765625 153.450195312 110 100.987304688 c 0,36,37
 120.71875 68.091796875 120.71875 68.091796875 161.088867188 59.203125 c 1,38,39
 210.7734375 53.5615234375 210.7734375 53.5615234375 239.495117188 62.53125 c 0,40,41
 271.645507812 74.951171875 271.645507812 74.951171875 281.62890625 107.935546875 c 0,42,43
 303.458007812 164.896484375 303.458007812 164.896484375 302.6640625 255.546875 c 0,44,45
 302.509765625 259.201171875 302.509765625 259.201171875 302.217773438 266.557617188 c 0,46,47
 300.862304688 300.744140625 300.862304688 300.744140625 299.313476562 319.598632812 c 128,-1,48
 297.764648438 338.452148438 297.764648438 338.452148438 290.989257812 366.610351562 c 128,-1,49
 284.21484375 394.767578125 284.21484375 394.767578125 272.116210938 415.724609375 c 0,50,51
 253.703125 439.944335938 253.703125 439.944335938 194.299804688 440.668945312 c 1,28,29
EndSplineSet
EndChar

StartChar: agrave
Encoding: 224 224 18
Width: 394
VWidth: 0
GlyphClass: 2
Flags: W
LayerCount: 2
Fore
SplineSet
146.288085938 499.555664062 m 0,0,1
 212.4375 499.443359375 212.4375 499.443359375 244.883789062 492.015625 c 0,2,3
 276.266601562 484.83203125 276.266601562 484.83203125 307.302734375 456.801757812 c 0,4,-1
 307.310546875 456.793945312 l 2,5,6
 344.62890625 423.069335938 344.62890625 423.069335938 344.590820312 350.701171875 c 2,7,-1
 344.421875 29.6904296875 l 1,8,-1
 344.423828125 29.2978515625 l 2,9,10
 344.423828125 22.1162109375 344.423828125 22.1162109375 340.904296875 15.6298828125 c 128,-1,11
 337.385742188 9.1435546875 337.385742188 9.1435546875 331.330078125 4.9267578125 c 128,-1,12
 325.2734375 0.708984375 325.2734375 0.708984375 318.13671875 -0.0869140625 c 0,13,14
 314.403320312 -1.08203125 314.403320312 -1.08203125 310.533203125 -1.08203125 c 0,15,16
 287.904296875 -1.080078125 287.904296875 -1.080078125 245.524414062 -1.8740234375 c 128,-1,17
 203.145507812 -2.66796875 203.145507812 -2.66796875 184.88671875 -2.4296875 c 128,-1,18
 166.626953125 -2.1923828125 166.626953125 -2.1923828125 141.573242188 0.921875 c 128,-1,19
 116.51953125 4.037109375 116.51953125 4.037109375 98.3046875 10.953125 c 0,20,21
 56.888671875 26.677734375 56.888671875 26.677734375 39.67578125 67.4521484375 c 0,22,23
 25 102.219726562 25 102.219726562 25 167.486328125 c 0,24,25
 25 227.40625 25 227.40625 68.001953125 260.305664062 c 0,26,27
 103.373046875 287.368164062 103.373046875 287.368164062 156.840820312 287.436523438 c 0,28,-1
 285.432617188 287.57421875 l 1,29,-1
 285.466796875 350.73046875 l 2,30,31
 285.4765625 368.551757812 285.4765625 368.551757812 280.997070312 384.055664062 c 128,-1,32
 276.518554688 399.559570312 276.518554688 399.559570312 272.979492188 405.440429688 c 128,-1,33
 269.440429688 411.322265625 269.440429688 411.322265625 267.668945312 412.921875 c 0,34,35
 265.614257812 414.778320312 265.614257812 414.778320312 261.353515625 418.744140625 c 128,-1,36
 257.092773438 422.7109375 257.092773438 422.7109375 255.931640625 423.645507812 c 128,-1,37
 254.770507812 424.579101562 254.770507812 424.579101562 251.705078125 426.86328125 c 128,-1,38
 248.639648438 429.147460938 248.639648438 429.147460938 246.374023438 429.94921875 c 128,-1,39
 244.108398438 430.75 244.108398438 430.75 240.412109375 431.987304688 c 128,-1,40
 236.716796875 433.224609375 236.716796875 433.224609375 231.694335938 434.374023438 c 0,41,42
 198.213867188 442.036132812 198.213867188 442.036132812 95.2607421875 439.834960938 c 0,43,44
 94.720703125 439.81640625 94.720703125 439.81640625 94.23046875 439.81640625 c 0,45,46
 81.9892578125 439.81640625 81.9892578125 439.81640625 73.326171875 448.48046875 c 128,-1,47
 64.6630859375 457.143554688 64.6630859375 457.143554688 64.6630859375 469.384765625 c 128,-1,48
 64.6630859375 481.529296875 64.6630859375 481.529296875 73.2578125 490.192382812 c 128,-1,49
 81.8525390625 498.85546875 81.8525390625 498.85546875 93.9970703125 498.951171875 c 0,50,51
 123.995117188 499.59375 123.995117188 499.59375 146.288085938 499.555664062 c 0,0,1
285.399414062 228.444335938 m 1,52,-1
 156.916015625 228.30859375 l 2,53,54
 123.434570312 228.265625 123.434570312 228.265625 103.935546875 213.346679688 c 0,55,56
 84.1357421875 198.198242188 84.1357421875 198.198242188 84.1357421875 167.490234375 c 0,57,58
 84.1357421875 114.1875 84.1357421875 114.1875 94.1552734375 90.4521484375 c 0,59,60
 98.58984375 79.947265625 98.58984375 79.947265625 103.71875 75.076171875 c 128,-1,61
 108.84765625 70.2041015625 108.84765625 70.2041015625 119.298828125 66.236328125 c 0,62,63
 142.390625 57.46875 142.390625 57.46875 265.56640625 57.9404296875 c 0,64,65
 278.543945312 57.990234375 278.543945312 57.990234375 285.309570312 58.0107421875 c 1,66,-1
 285.399414062 228.444335938 l 1,52,-1
EndSplineSet
EndChar

StartChar: Amacron
Encoding: 256 256 19
Width: 1474
GlyphClass: 2
Flags: W
LayerCount: 2
Fore
SplineSet
1207 892 m 1,0,-1
 1394 705 l 1,1,-1
 592 -97 l 1,2,-1
 80 415 l 1,3,-1
 267 602 l 1,4,-1
 592 277 l 1,5,-1
 1207 892 l 1,0,-1
EndSplineSet
Validated: 1
EndChar

StartChar: amacron
Encoding: 257 257 20
Width: 1155
GlyphClass: 2
Flags: W
LayerCount: 2
Fore
SplineSet
252 898 m 1,0,-1
 578 572 l 1,1,-1
 903 898 l 1,2,-1
 1075 726 l 1,3,-1
 750 400 l 1,4,-1
 1075 74 l 1,5,-1
 903 -98 l 1,6,-1
 578 228 l 1,7,-1
 252 -98 l 1,8,-1
 80 74 l 1,9,-1
 406 400 l 1,10,-1
 80 726 l 1,11,-1
 252 898 l 1,0,-1
EndSplineSet
Validated: 1
EndChar

StartChar: Abreve
Encoding: 258 258 21
Width: 1468
GlyphClass: 2
Flags: W
LayerCount: 2
Fore
SplineSet
1188.5 899 m 4,0,1
 1199.5 900 1199.5 900 1207.5 892 c 6,2,-1
 1378.5 721 l 6,3,4
 1397.5 702 1397.5 702 1378.5 683 c 6,5,-1
 615.5 -80 l 6,6,7
 596.5 -99 596.5 -99 577.5 -80 c 6,8,-1
 89.5 408 l 6,9,10
 70.5 427 70.5 427 89.5 446 c 6,11,-1
 259.5 617 l 6,12,13
 278.5 636 278.5 636 297.5 617 c 6,14,-1
 596.5 318 l 5,15,-1
 1169.5 892 l 6,16,17
 1177.5 899 1177.5 899 1188.5 899 c 4,0,1
EndSplineSet
Validated: 33
EndChar

StartChar: abreve
Encoding: 259 259 22
Width: 1164
GlyphClass: 2
Flags: W
LayerCount: 2
Fore
SplineSet
878.5 904 m 260,0,1
 889.5 904 889.5 904 897.5 896 c 6,2,-1
 1069.5 724 l 6,3,4
 1088.5 705 1088.5 705 1069.5 686 c 6,5,-1
 790.5 407 l 5,6,-1
 1074.5 123 l 6,7,8
 1094.5 104 1094.5 104 1074.5 84 c 6,9,-1
 903.5 -87 l 6,10,11
 884.5 -106 884.5 -106 865.5 -87 c 6,12,-1
 580.5 198 l 5,13,-1
 298.5 -84 l 6,14,15
 279.5 -103 279.5 -103 260.5 -84 c 6,16,-1
 89.5 87 l 6,17,18
 70.5 106 70.5 106 89.5 125 c 6,19,-1
 371.5 407 l 5,20,-1
 95.5 683 l 6,21,22
 76.5 702 76.5 702 95.5 721 c 6,23,-1
 266.5 892 l 6,24,25
 286.5 912 286.5 912 305.5 892 c 6,26,-1
 580.5 617 l 5,27,-1
 859.5 896 l 6,28,29
 867.5 904 867.5 904 878.5 904 c 260,0,1
EndSplineSet
Validated: 33
EndChar

StartChar: aogonek
Encoding: 261 261 23
Width: 1156
GlyphClass: 2
Flags: W
LayerCount: 2
Fore
SplineSet
306 900 m 0,0,1
 318 900 318 900 326 892 c 2,2,-1
 578 640 l 1,3,-1
 830 892 l 2,4,5
 849 912 849 912 869 892 c 2,6,-1
 1066 695 l 2,7,8
 1086 675 1086 675 1066 656 c 2,9,-1
 814 404 l 1,10,-1
 1066 152 l 2,11,12
 1086 133 1086 133 1066 113 c 2,13,-1
 869 -84 l 2,14,15
 849 -104 849 -104 830 -84 c 2,16,-1
 578 168 l 1,17,-1
 326 -84 l 2,18,19
 307 -104 307 -104 287 -84 c 2,20,-1
 90 113 l 2,21,22
 70 133 70 133 90 152 c 2,23,-1
 342 404 l 1,24,-1
 90 656 l 2,25,26
 70 675 70 675 90 695 c 2,27,-1
 287 892 l 2,28,29
 295 900 295 900 306 900 c 0,0,1
EndSplineSet
Validated: 33
EndChar

StartChar: Cacute
Encoding: 262 262 24
Width: 1511
GlyphClass: 2
Flags: W
LayerCount: 2
Fore
SplineSet
1257 904 m 0,0,1
 1259 904 1259 904 1262 904 c 0,2,3
 1332 904 1332 904 1381.5 854 c 128,-1,4
 1431 804 1431 804 1431 734 c 0,5,6
 1431 662 1431 662 1380 612 c 2,7,-1
 723 -45 l 2,8,9
 673 -95 673 -95 602.5 -95 c 128,-1,10
 532 -95 532 -95 482 -45 c 2,11,-1
 133 305 l 2,12,13
 80 355 80 355 80 427 c 0,14,15
 80 497 80 497 130 547 c 128,-1,16
 180 597 180 597 250 597 c 0,17,18
 323 597 323 597 373 545 c 2,19,-1
 602 315 l 1,20,-1
 1140 852 l 2,21,22
 1188 902 1188 902 1257 904 c 0,0,1
EndSplineSet
Validated: 1
EndChar

StartChar: cacute
Encoding: 263 263 25
Width: 1149
GlyphClass: 2
Flags: W
LayerCount: 2
Fore
SplineSet
247 897 m 1,0,-1
 247 897 l 1,1,2
 318 897 318 897 367 846 c 2,3,-1
 575 639 l 1,4,-1
 782 846 l 2,5,6
 830 895 830 895 897 897 c 0,7,8
 900 897 900 897 902 897 c 0,9,10
 971 897 971 897 1020 848 c 128,-1,11
 1069 799 1069 799 1069 730 c 0,12,13
 1069 659 1069 659 1019 610 c 2,14,-1
 811 402 l 1,15,-1
 1019 194 l 2,16,17
 1069 145 1069 145 1069 75 c 0,18,19
 1069 6 1069 6 1020 -43 c 128,-1,20
 971 -92 971 -92 902 -92 c 0,21,22
 832 -92 832 -92 782 -42 c 2,23,-1
 575 166 l 1,24,-1
 367 -42 l 2,25,26
 318 -92 318 -92 247 -92 c 0,27,28
 178 -92 178 -92 129 -43 c 128,-1,29
 80 6 80 6 80 75 c 0,30,31
 80 145 80 145 131 194 c 2,32,-1
 338 402 l 1,33,-1
 131 610 l 2,34,35
 80 659 80 659 80 730 c 0,36,37
 80 799 80 799 129 848 c 128,-1,38
 178 897 178 897 247 897 c 1,0,-1
EndSplineSet
Validated: 1
EndChar

StartChar: Ccircumflex
Encoding: 264 264 26
Width: 1168
GlyphClass: 2
Flags: W
LayerCount: 2
Fore
SplineSet
375.426757812 -87 m 0,0,1
 332.426757812 -73 332.426757812 -73 297.926757812 -37.5 c 128,-1,2
 263.426757812 -2 263.426757812 -2 216.426757812 78 c 0,3,4
 55.4267578125 352 55.4267578125 352 84.4267578125 412 c 0,5,6
 105.426757812 457 105.426757812 457 177.426757812 423 c 0,7,8
 229.426757812 399 229.426757812 399 298.426757812 309 c 0,9,10
 359.426757812 231 359.426757812 231 400.426757812 211 c 0,11,12
 425.426757812 199 425.426757812 199 450.926757812 199 c 128,-1,13
 476.426757812 199 476.426757812 199 500.426757812 211 c 0,14,15
 561.426757812 240 561.426757812 240 640.926757812 334.5 c 128,-1,16
 720.426757812 429 720.426757812 429 873.426757812 655 c 0,17,18
 1007.42675781 852 1007.42675781 852 1052.42675781 887 c 0,19,20
 1082.42675781 911 1082.42675781 911 1087.42675781 891 c 0,21,22
 1096.42675781 857 1096.42675781 857 1043.42675781 735 c 0,23,24
 978.426757812 586 978.426757812 586 851.426757812 377 c 0,25,26
 733.426757812 184 733.426757812 184 643.426757812 74 c 128,-1,27
 553.426757812 -36 553.426757812 -36 483.426757812 -71 c 0,28,29
 422.426757812 -102 422.426757812 -102 375.426757812 -87 c 0,0,1
EndSplineSet
Validated: 33
EndChar

StartChar: ccircumflex
Encoding: 265 265 27
Width: 1101
GlyphClass: 2
Flags: W
LayerCount: 2
Fore
SplineSet
945.727539062 -123 m 0,0,1
 891.727539062 -103 891.727539062 -103 800.727539062 -16 c 0,2,3
 769.727539062 13 769.727539062 13 678.727539062 102 c 0,4,5
 556.727539062 221 556.727539062 221 544.727539062 224 c 0,6,7
 537.727539062 225 537.727539062 225 506.727539062 195 c 0,8,9
 405.727539062 97 405.727539062 97 267.727539062 -27 c 0,10,11
 195.727539062 -91 195.727539062 -91 155.727539062 -91 c 0,12,13
 118.727539062 -91 118.727539062 -91 94.7275390625 -45 c 0,14,15
 76.7275390625 -9 76.7275390625 -9 80.7275390625 34 c 0,16,17
 85.7275390625 91 85.7275390625 91 129.727539062 160 c 0,18,19
 177.727539062 234 177.727539062 234 309.727539062 367 c 2,20,-1
 392.727539062 451 l 1,21,-1
 333.727539062 527 l 2,22,23
 168.727539062 739 168.727539062 739 130.727539062 817 c 0,24,25
 89.7275390625 902 89.7275390625 902 137.727539062 902 c 0,26,27
 204.727539062 902 204.727539062 902 475.727539062 665 c 0,28,29
 538.727539062 611 538.727539062 611 545.227539062 606.5 c 128,-1,30
 551.727539062 602 551.727539062 602 587.727539062 637 c 0,31,32
 712.727539062 755 712.727539062 755 765.727539062 788 c 0,33,34
 800.727539062 810 800.727539062 810 822.727539062 810 c 0,35,36
 858.727539062 810 858.727539062 810 861.727539062 763 c 0,37,38
 865.727539062 694 865.727539062 694 761.727539062 510 c 0,39,40
 720.727539062 438 720.727539062 438 722.727539062 426 c 0,41,42
 724.727539062 418 724.727539062 418 754.727539062 384 c 0,43,44
 900.727539062 220 900.727539062 220 977.727539062 65 c 0,45,46
 1051.72753906 -83 1051.72753906 -83 999.727539062 -121 c 0,47,48
 979.727539062 -135 979.727539062 -135 945.727539062 -123 c 0,0,1
EndSplineSet
Validated: 33
EndChar

StartChar: Cdotaccent
Encoding: 266 266 28
Width: 1578
GlyphClass: 2
Flags: W
LayerCount: 2
Fore
SplineSet
1359 896 m 0,0,1
 1361 896 1361 896 1363 896 c 0,2,3
 1419 896 1419 896 1458.5 856.5 c 128,-1,4
 1498 817 1498 817 1498 762 c 0,5,6
 1498 738 1498 738 1486 710 c 128,-1,7
 1474 682 1474 682 1457 665 c 2,8,-1
 736 -56 l 2,9,10
 720 -72 720 -72 692 -83.5 c 128,-1,11
 664 -95 664 -95 641 -95 c 128,-1,12
 618 -95 618 -95 590 -83.5 c 128,-1,13
 562 -72 562 -72 546 -56 c 2,14,-1
 121 370 l 2,15,16
 104 386 104 386 92 414.5 c 128,-1,17
 80 443 80 443 80 466 c 0,18,19
 80 522 80 522 119.5 561.5 c 128,-1,20
 159 601 159 601 214 601 c 0,21,22
 238 601 238 601 266 589 c 128,-1,23
 294 577 294 577 311 560 c 2,24,-1
 641 230 l 1,25,-1
 1267 855 l 2,26,27
 1282 871 1282 871 1309.5 883 c 128,-1,28
 1337 895 1337 895 1359 896 c 0,0,1
EndSplineSet
Validated: 1
EndChar

StartChar: cdotaccent
Encoding: 267 267 29
Width: 1153
GlyphClass: 2
Flags: W
LayerCount: 2
Fore
SplineSet
215 896 m 0,0,1
 238 896 238 896 266.5 884 c 128,-1,2
 295 872 295 872 311 855 c 2,3,-1
 577 590 l 1,4,-1
 842 855 l 2,5,6
 858 871 858 871 885 883 c 128,-1,7
 912 895 912 895 934 896 c 0,8,9
 936 896 936 896 938 896 c 0,10,11
 994 896 994 896 1033.5 856.5 c 128,-1,12
 1073 817 1073 817 1073 762 c 0,13,14
 1073 738 1073 738 1061 710 c 128,-1,15
 1049 682 1049 682 1032 665 c 2,16,-1
 767 400 l 1,17,-1
 1032 135 l 2,18,19
 1049 118 1049 118 1061 90 c 128,-1,20
 1073 62 1073 62 1073 38 c 0,21,22
 1073 -17 1073 -17 1033.5 -56.5 c 128,-1,23
 994 -96 994 -96 938 -96 c 0,24,25
 915 -96 915 -96 886.5 -84 c 128,-1,26
 858 -72 858 -72 842 -56 c 2,27,-1
 577 210 l 1,28,-1
 311 -56 l 2,29,30
 295 -72 295 -72 266.5 -84 c 128,-1,31
 238 -96 238 -96 215 -96 c 0,32,33
 159 -96 159 -96 119.5 -56.5 c 128,-1,34
 80 -17 80 -17 80 38 c 0,35,36
 80 62 80 62 92 90 c 128,-1,37
 104 118 104 118 121 135 c 2,38,-1
 386 400 l 1,39,-1
 121 665 l 2,40,41
 104 682 104 682 92 710 c 128,-1,42
 80 738 80 738 80 762 c 0,43,44
 80 817 80 817 119.5 856.5 c 128,-1,45
 159 896 159 896 215 896 c 0,0,1
EndSplineSet
Validated: 1
EndChar

StartChar: Ebreve
Encoding: 276 276 30
Width: 1033
GlyphClass: 2
Flags: W
LayerCount: 2
Fore
SplineSet
168 903 m 0,0,1
 191 902 191 902 210 891 c 2,2,-1
 910 487 l 2,3,4
 953 462 953 462 953 412 c 128,-1,5
 953 362 953 362 910 337 c 2,6,-1
 210 -67 l 2,7,8
 80 -142 80 -142 80 8 c 2,9,-1
 80 816 l 2,10,11
 80 905 80 905 168 903 c 0,0,1
EndSplineSet
Validated: 33
EndChar

StartChar: ebreve
Encoding: 277 277 31
Width: 1033
GlyphClass: 2
Flags: W
LayerCount: 2
Fore
SplineSet
175.5 895 m 6,0,-1
 319.5 895 l 6,1,2
 407.5 895 407.5 895 407.5 807 c 6,3,-1
 407.5 -8 l 6,4,5
 407.5 -96 407.5 -96 319.5 -96 c 6,6,-1
 175.5 -96 l 6,7,8
 87.5 -96 87.5 -96 87.5 -8 c 6,9,-1
 87.5 807 l 6,10,11
 87.5 895 87.5 895 175.5 895 c 6,0,-1
713.5 895 m 6,12,-1
 857.5 895 l 6,13,14
 945.5 895 945.5 895 945.5 807 c 6,15,-1
 945.5 -8 l 6,16,17
 945.5 -96 945.5 -96 857.5 -96 c 6,18,-1
 713.5 -96 l 6,19,20
 625.5 -96 625.5 -96 625.5 -8 c 6,21,-1
 625.5 807 l 6,22,23
 625.5 895 625.5 895 713.5 895 c 6,12,-1
EndSplineSet
Validated: 1
EndChar

StartChar: Edotaccent
Encoding: 278 278 32
Width: 1149
GlyphClass: 2
Flags: W
LayerCount: 2
Fore
SplineSet
171 896 m 2,0,-1
 978 896 l 2,1,2
 1069 896 1069 896 1069 805 c 2,3,-1
 1069 -2 l 2,4,5
 1069 -93 1069 -93 978 -93 c 2,6,-1
 171 -93 l 2,7,8
 80 -93 80 -93 80 -2 c 2,9,-1
 80 805 l 2,10,11
 80 896 80 896 171 896 c 2,0,-1
EndSplineSet
Validated: 1
EndChar

StartChar: edotaccent
Encoding: 279 279 33
Width: 1183
GlyphClass: 2
Flags: W
LayerCount: 2
Fore
SplineSet
533 901 m 0,0,1
 565 900 565 900 589 880 c 2,2,-1
 1065 470 l 2,3,4
 1142 403 1142 403 1065 337 c 2,5,-1
 589 -73 l 2,6,7
 546 -109 546 -109 495 -85.5 c 128,-1,8
 444 -62 444 -62 444 -6 c 2,9,-1
 444 813 l 2,10,11
 444 901 444 901 533 901 c 0,0,1
168 900 m 2,12,-1
 271 900 l 2,13,14
 359 900 359 900 359 812 c 2,15,-1
 359 -5 l 2,16,17
 359 -93 359 -93 271 -93 c 2,18,-1
 168 -93 l 2,19,20
 80 -93 80 -93 80 -5 c 2,21,-1
 80 812 l 2,22,23
 80 900 80 900 168 900 c 2,12,-1
EndSplineSet
Validated: 33
EndChar

StartChar: Eogonek
Encoding: 280 280 34
Width: 1123
GlyphClass: 2
Flags: W
LayerCount: 2
Fore
SplineSet
169 902 m 0,0,1
 201 901 201 901 225 881 c 2,2,-1
 701 471 l 2,3,4
 778 405 778 405 701 338 c 2,5,-1
 225 -72 l 2,6,7
 182 -108 182 -108 131 -84.5 c 128,-1,8
 80 -61 80 -61 80 -5 c 2,9,-1
 80 814 l 2,10,11
 80 903 80 903 169 902 c 0,0,1
852 901 m 2,12,-1
 955 901 l 2,13,14
 1042 901 1042 901 1043 813 c 2,15,-1
 1043 -4 l 2,16,17
 1042 -92 1042 -92 955 -92 c 2,18,-1
 852 -92 l 2,19,20
 764 -92 764 -92 764 -4 c 2,21,-1
 764 813 l 2,22,23
 764 901 764 901 852 901 c 2,12,-1
EndSplineSet
Validated: 33
EndChar

StartChar: eogonek
Encoding: 281 281 35
Width: 1123
GlyphClass: 2
Flags: W
LayerCount: 2
Fore
SplineSet
952 903 m 0,0,1
 1043 906 1043 906 1043 815 c 2,2,-1
 1043 -4 l 2,3,4
 1043 -60 1043 -60 991.5 -83.5 c 128,-1,5
 940 -107 940 -107 898 -71 c 2,6,-1
 421 339 l 2,7,8
 344 406 344 406 421 472 c 2,9,-1
 898 882 l 2,10,11
 921 902 921 902 952 903 c 0,0,1
168 902 m 2,12,-1
 270 902 l 2,13,14
 358 902 358 902 358 814 c 2,15,-1
 358 -3 l 2,16,17
 358 -91 358 -91 270 -91 c 2,18,-1
 168 -91 l 2,19,20
 80 -91 80 -91 80 -3 c 2,21,-1
 80 814 l 2,22,23
 80 902 80 902 168 902 c 2,12,-1
EndSplineSet
Validated: 33
EndChar

StartChar: Ecaron
Encoding: 282 282 36
Width: 1360
GlyphClass: 2
Flags: W
LayerCount: 2
Fore
SplineSet
708 902 m 0,0,1
 741 901 741 901 765 880 c 2,2,-1
 1241 471 l 2,3,4
 1319 405 1319 405 1241 338 c 2,5,-1
 765 -72 l 2,6,7
 722 -109 722 -109 671 -85 c 128,-1,8
 620 -61 620 -61 620 -5 c 2,9,-1
 620 268 l 1,10,-1
 225 -72 l 2,11,12
 182 -109 182 -109 131 -85.5 c 128,-1,13
 80 -62 80 -62 80 -5 c 2,14,-1
 80 814 l 2,15,16
 80 902 80 902 168 902 c 0,17,18
 201 901 201 901 225 880 c 2,19,-1
 620 541 l 1,20,-1
 620 814 l 2,21,22
 620 902 620 902 708 902 c 0,0,1
EndSplineSet
Validated: 33
EndChar

StartChar: ecaron
Encoding: 283 283 37
Width: 1359
GlyphClass: 2
Flags: W
LayerCount: 2
Fore
SplineSet
649.5 902 m 0,0,1
 740.5 905 740.5 905 740.5 814 c 2,2,-1
 740.5 542 l 1,3,-1
 1134.5 881 l 2,4,5
 1158.5 901 1158.5 901 1189.5 902 c 0,6,7
 1279.5 905 1279.5 905 1279.5 814 c 2,8,-1
 1279.5 -5 l 2,9,10
 1279.5 -61 1279.5 -61 1228.5 -84.5 c 128,-1,11
 1177.5 -108 1177.5 -108 1134.5 -71 c 2,12,-1
 740.5 268 l 1,13,-1
 740.5 -5 l 2,14,15
 740.5 -61 740.5 -61 689 -84.5 c 128,-1,16
 637.5 -108 637.5 -108 594.5 -71 c 2,17,-1
 118.5 338 l 2,18,19
 41.5 405 41.5 405 118.5 471 c 2,20,-1
 594.5 881 l 2,21,22
 618.5 901 618.5 901 649.5 902 c 0,0,1
EndSplineSet
Validated: 33
EndChar

StartChar: Gcircumflex
Encoding: 284 284 38
Width: 1157
GlyphClass: 2
Flags: W
LayerCount: 2
Fore
SplineSet
577.348632812 903 m 0,0,1
 614.348632812 904 614.348632812 904 641.348632812 878 c 2,2,-1
 1050.34863281 472 l 2,3,4
 1092.34863281 431 1092.34863281 431 1069.84863281 376 c 128,-1,5
 1047.34863281 321 1047.34863281 321 988.348632812 321 c 2,6,-1
 169.348632812 321 l 2,7,8
 110.348632812 321 110.348632812 321 87.8486328125 376 c 128,-1,9
 65.3486328125 431 65.3486328125 431 107.348632812 472 c 2,10,-1
 517.348632812 878 l 2,11,12
 542.348632812 902 542.348632812 902 577.348632812 903 c 0,0,1
170.348632812 173 m 2,13,-1
 987.348632812 173 l 2,14,15
 1075.34863281 173 1075.34863281 173 1075.34863281 86 c 2,16,-1
 1075.34863281 -6 l 2,17,18
 1075.34863281 -94 1075.34863281 -94 987.348632812 -94 c 2,19,-1
 170.348632812 -94 l 2,20,21
 82.3486328125 -94 82.3486328125 -94 82.3486328125 -6 c 2,22,-1
 82.3486328125 86 l 2,23,24
 82.3486328125 173 82.3486328125 173 170.348632812 173 c 2,13,-1
EndSplineSet
Validated: 33
EndChar

StartChar: gcircumflex
Encoding: 285 285 39
Width: 1625
GlyphClass: 2
Flags: W
LayerCount: 2
Fore
SplineSet
677 901 m 0,0,1
 789 904 789 904 789 792 c 2,2,-1
 789 17 l 2,3,4
 789 -57 789 -57 720 -84.5 c 128,-1,5
 651 -112 651 -112 600 -58 c 2,6,-1
 421 133 l 1,7,-1
 193 133 l 2,8,9
 80 133 80 133 80 246 c 2,10,-1
 80 563 l 2,11,12
 80 676 80 676 193 676 c 2,13,-1
 421 676 l 1,14,-1
 600 866 l 2,15,16
 631 900 631 900 677 901 c 0,0,1
1290 874 m 0,17,18
 1319 874 1319 874 1338 857 c 0,19,20
 1544 670 1544 670 1545 404 c 0,21,22
 1544 138 1544 138 1338 -48 c 0,23,24
 1319 -68 1319 -68 1291 -68 c 0,25,26
 1226 -68 1226 -68 1226 -2 c 0,27,28
 1226 29 1226 29 1250 49 c 0,29,30
 1413 197 1413 197 1413 404 c 0,31,32
 1413 612 1413 612 1250 760 c 0,33,34
 1228 779 1228 779 1228 809 c 0,35,36
 1228 871 1228 871 1290 874 c 0,17,18
1087 757 m 0,37,38
 1110 757 1110 757 1129 742 c 0,39,40
 1298 603 1298 603 1298 404.5 c 128,-1,41
 1298 206 1298 206 1129 67 c 0,42,43
 1111 54 1111 54 1089 54 c 0,44,45
 1023 54 1023 54 1023 120 c 0,46,47
 1023 149 1023 149 1045 169 c 0,48,49
 1167 268 1167 268 1167 404.5 c 128,-1,50
 1167 541 1167 541 1045 640 c 0,51,52
 1020 660 1020 660 1020 692 c 0,53,54
 1020 757 1020 757 1087 757 c 0,37,38
952 603 m 0,55,56
 981 603 981 603 1000 583 c 0,57,58
 1076 510 1076 510 1076 404 c 0,59,60
 1076 300 1076 300 1000 226 c 0,61,62
 981 207 981 207 954 207 c 0,63,64
 888 207 888 207 888 273 c 0,65,66
 888 300 888 300 908 320 c 0,67,68
 945 355 945 355 945 404 c 0,69,70
 945 455 945 455 908 490 c 0,71,72
 888 509 888 509 888 537 c 0,73,74
 888 602 888 602 952 603 c 0,55,56
EndSplineSet
Validated: 33
EndChar

StartChar: Gbreve
Encoding: 286 286 40
Width: 1378
GlyphClass: 2
Flags: W
LayerCount: 2
Fore
SplineSet
677 901 m 0,0,1
 789 905 789 905 789 792 c 2,2,-1
 789 18 l 2,3,4
 789 -57 789 -57 720 -84 c 128,-1,5
 651 -111 651 -111 600 -57 c 2,6,-1
 421 133 l 1,7,-1
 193 133 l 2,8,9
 80 133 80 133 80 247 c 2,10,-1
 80 563 l 2,11,12
 80 676 80 676 193 676 c 2,13,-1
 421 676 l 1,14,-1
 600 867 l 2,15,16
 631 900 631 900 677 901 c 0,0,1
1086 758 m 0,17,18
 1110 758 1110 758 1129 742 c 0,19,20
 1298 604 1298 604 1298 405 c 128,-1,21
 1298 206 1298 206 1129 68 c 0,22,23
 1110 52 1110 52 1085 52 c 0,24,25
 1020 52 1020 52 1020 117 c 0,26,27
 1020 150 1020 150 1046 169 c 0,28,29
 1167 268 1167 268 1167 405 c 128,-1,30
 1167 542 1167 542 1046 641 c 0,31,32
 1020 660 1020 660 1020 692 c 0,33,34
 1020 758 1020 758 1086 758 c 0,17,18
952 603 m 0,35,36
 980 603 980 603 1000 584 c 0,37,38
 1076 510 1076 510 1076 405 c 128,-1,39
 1076 300 1076 300 1000 226 c 0,40,41
 980 206 980 206 952 206 c 0,42,43
 887 206 887 206 887 271 c 0,44,45
 887 301 887 301 908 320 c 0,46,47
 945 356 945 356 945 405 c 256,48,49
 945 454 945 454 908 490 c 0,50,51
 888 509 888 509 888 538 c 0,52,53
 888 602 888 602 952 603 c 0,35,36
EndSplineSet
Validated: 33
EndChar

StartChar: gbreve
Encoding: 287 287 41
Width: 1156
GlyphClass: 2
Flags: W
LayerCount: 2
Fore
SplineSet
677 901 m 0,0,1
 789 904 789 904 790 792 c 2,2,-1
 790 18 l 2,3,4
 790 -57 790 -57 721 -84 c 128,-1,5
 652 -111 652 -111 601 -57 c 2,6,-1
 422 133 l 1,7,-1
 194 133 l 2,8,9
 80 134 80 134 80 246 c 2,10,-1
 80 563 l 2,11,12
 80 676 80 676 194 676 c 2,13,-1
 422 676 l 1,14,-1
 601 867 l 2,15,16
 632 900 632 900 677 901 c 0,0,1
953 603 m 0,17,18
 981 603 981 603 1000 584 c 0,19,20
 1076 509 1076 509 1076 405 c 1,21,-1
 1076 405 l 1,22,23
 1076 300 1076 300 1000 226 c 0,24,25
 981 207 981 207 954 207 c 0,26,27
 889 207 889 207 889 273 c 0,28,29
 889 300 889 300 909 320 c 0,30,31
 945 355 945 355 945 405 c 0,32,33
 945 454 945 454 909 490 c 0,34,35
 888 509 888 509 888 537 c 0,36,37
 888 603 888 603 953 603 c 0,17,18
EndSplineSet
Validated: 37
EndChar

StartChar: Gdotaccent
Encoding: 288 288 42
Width: 1501
GlyphClass: 2
Flags: W
LayerCount: 2
Fore
SplineSet
677 901 m 0,0,1
 790 904 790 904 790 792 c 2,2,-1
 790 17 l 2,3,4
 790 -57 790 -57 721 -84 c 128,-1,5
 652 -111 652 -111 601 -57 c 2,6,-1
 422 133 l 1,7,-1
 194 133 l 2,8,9
 80 133 80 133 80 246 c 2,10,-1
 80 563 l 2,11,12
 80 676 80 676 194 676 c 2,13,-1
 422 676 l 1,14,-1
 601 867 l 2,15,16
 632 900 632 900 677 901 c 0,0,1
1328 650 m 1,17,18
 1351 650 1351 650 1367 635 c 2,19,-1
 1406 596 l 2,20,21
 1421 581 1421 581 1421 559 c 128,-1,22
 1421 537 1421 537 1406 521 c 2,23,-1
 1289 404 l 1,24,-1
 1406 287 l 2,25,26
 1421 272 1421 272 1421 250 c 128,-1,27
 1421 228 1421 228 1406 212 c 2,28,-1
 1367 173 l 2,29,30
 1351 158 1351 158 1329.5 158 c 128,-1,31
 1308 158 1308 158 1292 173 c 2,32,-1
 1175 290 l 1,33,-1
 1058 173 l 2,34,35
 1042 158 1042 158 1020.5 158 c 128,-1,36
 999 158 999 158 983 173 c 2,37,-1
 944 212 l 2,38,39
 929 228 929 228 929 250 c 128,-1,40
 929 272 929 272 944 287 c 2,41,-1
 1061 404 l 1,42,-1
 944 521 l 2,43,44
 928 537 928 537 928 559 c 128,-1,45
 928 581 928 581 944 596 c 2,46,-1
 983 635 l 2,47,48
 998 651 998 651 1020 651 c 1,49,-1
 1175 518 l 1,50,-1
 1328 650 l 1,17,18
EndSplineSet
Validated: 33
EndChar

StartChar: gdotaccent
Encoding: 289 289 43
Width: 1454
GlyphClass: 2
Flags: W
LayerCount: 2
Fore
SplineSet
1007 899 m 0,0,1
 1027 899 1027 899 1042 888 c 2,2,-1
 1258 723 l 2,3,4
 1313 680 1313 680 1258 638 c 2,5,-1
 1042 473 l 2,6,7
 956 408 956 408 956 516 c 2,8,-1
 956 616 l 1,9,-1
 481 616 l 2,10,11
 317 616 317 616 262 563 c 0,12,13
 208 513 208 513 208 360 c 0,14,15
 208 295 208 295 144 295 c 128,-1,16
 80 295 80 295 80 359 c 0,17,18
 80 567 80 567 173 656 c 0,19,20
 265 745 265 745 481 745 c 2,21,-1
 956 745 l 1,22,-1
 956 845 l 2,23,24
 956 896 956 896 1007 899 c 0,0,1
1309 525 m 0,25,26
 1374 525 1374 525 1374 461 c 0,27,28
 1374 253 1374 253 1281 164 c 0,29,30
 1189 76 1189 76 973 76 c 2,31,-1
 498 76 l 1,32,-1
 498 -25 l 2,33,34
 498 -131 498 -131 412 -67 c 2,35,-1
 196 98 l 2,36,37
 141 140 141 140 196 183 c 2,38,-1
 412 348 l 2,39,40
 426 359 426 359 443 359 c 0,41,42
 498 361 498 361 498 305 c 2,43,-1
 498 204 l 1,44,-1
 973 204 l 2,45,46
 1137 204 1137 204 1192 257 c 0,47,48
 1245 308 1245 308 1245 460 c 0,49,50
 1245 524 1245 524 1309 525 c 0,25,26
EndSplineSet
Validated: 33
EndChar

StartChar: uni0122
Encoding: 290 290 44
Width: 1452
GlyphClass: 2
Flags: W
LayerCount: 2
Fore
SplineSet
599 899 m 0,0,1
 618 900 618 900 634 888 c 2,2,-1
 850 723 l 2,3,4
 905 681 905 681 850 638 c 2,5,-1
 634 473 l 2,6,7
 548 408 548 408 548 516 c 2,8,-1
 548 617 l 1,9,-1
 481 617 l 2,10,11
 317 617 317 617 262 564 c 0,12,13
 209 513 209 513 209 361 c 0,14,15
 209 296 209 296 144.5 296 c 128,-1,16
 80 296 80 296 80 360 c 0,17,18
 80 568 80 568 173 656 c 0,19,20
 265 745 265 745 481 745 c 2,21,-1
 548 745 l 1,22,-1
 548 845 l 2,23,24
 548 897 548 897 599 899 c 0,0,1
1171.5 867 m 128,-1,26
 1372 867 1372 867 1372 667 c 128,-1,27
 1372 467 1372 467 1171.5 467 c 128,-1,28
 971 467 971 467 971 667 c 128,-1,25
 971 867 971 867 1171.5 867 c 128,-1,26
1183 801 m 1,29,-1
 1101 753 l 2,30,31
 1089 745 1089 745 1089 730 c 0,32,33
 1089 704 1089 704 1115 704 c 1,34,-1
 1157 726 l 1,35,-1
 1157 559 l 2,36,37
 1157 532 1157 532 1183.5 532 c 128,-1,38
 1210 532 1210 532 1210 559 c 2,39,-1
 1210 775 l 2,40,41
 1210 801 1210 801 1183 801 c 1,29,-1
1291 375 m 0,42,43
 1357 375 1357 375 1357 311 c 1,44,45
 1319 171 1319 171 1198 118 c 0,46,47
 1113 81 1113 81 975 77 c 1,48,-1
 973 77 l 1,49,-1
 498 77 l 1,50,-1
 498 -24 l 2,51,52
 498 -131 498 -131 412 -66 c 2,53,-1
 196 98 l 2,54,55
 140 141 140 141 196 184 c 2,56,-1
 412 348 l 2,57,58
 426 359 426 359 443 359 c 0,59,60
 498 361 498 361 498 306 c 2,61,-1
 498 205 l 1,62,-1
 971 205 l 2,63,64
 1084 208 1084 208 1146 235 c 0,65,66
 1213 264 1213 264 1231 329 c 0,67,68
 1244 374 1244 374 1291 375 c 0,42,43
EndSplineSet
Validated: 33
EndChar

StartChar: uni0123
Encoding: 291 291 45
Width: 1700
GlyphClass: 2
Flags: W
LayerCount: 2
Fore
SplineSet
1329 900 m 0,0,1
 1349 900 1349 900 1365 888 c 2,2,-1
 1591 716 l 2,3,4
 1649 672 1649 672 1591 627 c 2,5,-1
 1365 455 l 2,6,7
 1275 386 1275 386 1275 499 c 2,8,-1
 1275 605 l 1,9,-1
 1087 605 l 2,10,11
 937 605 937 605 858 527 c 0,12,13
 802 473 802 473 802 418 c 0,14,15
 802 295 802 295 724 211 c 0,16,17
 611 89 611 89 356 87 c 2,18,-1
 355 87 l 1,19,-1
 150 87 l 2,20,21
 82 87 82 87 82 154 c 128,-1,22
 82 221 82 221 149 221 c 2,23,-1
 354 221 l 2,24,25
 552 222 552 222 626 302 c 0,26,27
 668 348 668 348 668 418 c 0,28,29
 668 530 668 530 764 623 c 0,30,31
 883 739 883 739 1087 739 c 2,32,-1
 1275 739 l 1,33,-1
 1275 844 l 2,34,35
 1275 897 1275 897 1329 900 c 0,0,1
148 736 m 2,36,-1
 353 736 l 1,37,-1
 354 736 l 2,38,39
 512 734 512 734 639 650 c 0,40,41
 667 630 667 630 667 596 c 0,42,43
 667 529 667 529 600 529 c 1,44,45
 470 601 470 601 352 602 c 2,46,-1
 148 602 l 2,47,48
 80 602 80 602 80 669 c 128,-1,49
 80 736 80 736 148 736 c 2,36,-1
1326 379 m 0,50,51
 1346 381 1346 381 1363 368 c 2,52,-1
 1588 196 l 2,53,54
 1647 152 1647 152 1588 107 c 2,55,-1
 1363 -65 l 2,56,57
 1273 -132 1273 -132 1273 -21 c 2,58,-1
 1273 84 l 1,59,-1
 1086 84 l 2,60,61
 972 82 972 82 843 163 c 0,62,63
 811 183 811 183 811 220 c 0,64,65
 811 285 811 285 876 287 c 0,66,67
 897 287 897 287 914 277 c 0,68,69
 1010 217 1010 217 1083 218 c 2,70,-1
 1084 218 l 1,71,-1
 1273 218 l 1,72,-1
 1273 324 l 2,73,74
 1273 377 1273 377 1326 379 c 0,50,51
EndSplineSet
Validated: 33
EndChar

StartChar: Hcircumflex
Encoding: 292 292 46
Width: 1033
GlyphClass: 2
Flags: W
LayerCount: 2
Fore
SplineSet
168 903 m 0,0,1
 191 902 191 902 210 891 c 2,2,-1
 910 487 l 2,3,4
 953 462 953 462 953 412 c 128,-1,5
 953 362 953 362 910 337 c 2,6,-1
 210 -67 l 2,7,8
 80 -142 80 -142 80 8 c 2,9,-1
 80 816 l 2,10,11
 80 905 80 905 168 903 c 0,0,1
EndSplineSet
Validated: 33
EndChar

StartChar: hcircumflex
Encoding: 293 293 47
Width: 1033
GlyphClass: 2
Flags: W
LayerCount: 2
Fore
SplineSet
175.5 895 m 6,0,-1
 319.5 895 l 6,1,2
 407.5 895 407.5 895 407.5 807 c 6,3,-1
 407.5 -8 l 6,4,5
 407.5 -96 407.5 -96 319.5 -96 c 6,6,-1
 175.5 -96 l 6,7,8
 87.5 -96 87.5 -96 87.5 -8 c 6,9,-1
 87.5 807 l 6,10,11
 87.5 895 87.5 895 175.5 895 c 6,0,-1
713.5 895 m 6,12,-1
 857.5 895 l 6,13,14
 945.5 895 945.5 895 945.5 807 c 6,15,-1
 945.5 -8 l 6,16,17
 945.5 -96 945.5 -96 857.5 -96 c 6,18,-1
 713.5 -96 l 6,19,20
 625.5 -96 625.5 -96 625.5 -8 c 6,21,-1
 625.5 807 l 6,22,23
 625.5 895 625.5 895 713.5 895 c 6,12,-1
EndSplineSet
Validated: 1
EndChar

StartChar: Hbar
Encoding: 294 294 48
Width: 1149
GlyphClass: 2
Flags: W
LayerCount: 2
Fore
SplineSet
171 896 m 2,0,-1
 978 896 l 2,1,2
 1069 896 1069 896 1069 805 c 2,3,-1
 1069 -2 l 2,4,5
 1069 -93 1069 -93 978 -93 c 2,6,-1
 171 -93 l 2,7,8
 80 -93 80 -93 80 -2 c 2,9,-1
 80 805 l 2,10,11
 80 896 80 896 171 896 c 2,0,-1
EndSplineSet
Validated: 1
EndChar

StartChar: hbar
Encoding: 295 295 49
Width: 1183
GlyphClass: 2
Flags: W
LayerCount: 2
Fore
SplineSet
533 901 m 0,0,1
 565 900 565 900 589 880 c 2,2,-1
 1065 470 l 2,3,4
 1142 403 1142 403 1065 337 c 2,5,-1
 589 -73 l 2,6,7
 546 -109 546 -109 495 -85.5 c 128,-1,8
 444 -62 444 -62 444 -6 c 2,9,-1
 444 813 l 2,10,11
 444 901 444 901 533 901 c 0,0,1
168 900 m 2,12,-1
 271 900 l 2,13,14
 359 900 359 900 359 812 c 2,15,-1
 359 -5 l 2,16,17
 359 -93 359 -93 271 -93 c 2,18,-1
 168 -93 l 2,19,20
 80 -93 80 -93 80 -5 c 2,21,-1
 80 812 l 2,22,23
 80 900 80 900 168 900 c 2,12,-1
EndSplineSet
Validated: 33
EndChar

StartChar: Itilde
Encoding: 296 296 50
Width: 1123
GlyphClass: 2
Flags: W
LayerCount: 2
Fore
SplineSet
169 902 m 0,0,1
 201 901 201 901 225 881 c 2,2,-1
 701 471 l 2,3,4
 778 405 778 405 701 338 c 2,5,-1
 225 -72 l 2,6,7
 182 -108 182 -108 131 -84.5 c 128,-1,8
 80 -61 80 -61 80 -5 c 2,9,-1
 80 814 l 2,10,11
 80 903 80 903 169 902 c 0,0,1
852 901 m 2,12,-1
 955 901 l 2,13,14
 1042 901 1042 901 1043 813 c 2,15,-1
 1043 -4 l 2,16,17
 1042 -92 1042 -92 955 -92 c 2,18,-1
 852 -92 l 2,19,20
 764 -92 764 -92 764 -4 c 2,21,-1
 764 813 l 2,22,23
 764 901 764 901 852 901 c 2,12,-1
EndSplineSet
Validated: 33
EndChar

StartChar: itilde
Encoding: 297 297 51
Width: 1123
GlyphClass: 2
Flags: W
LayerCount: 2
Fore
SplineSet
952 903 m 0,0,1
 1043 906 1043 906 1043 815 c 2,2,-1
 1043 -4 l 2,3,4
 1043 -60 1043 -60 991.5 -83.5 c 128,-1,5
 940 -107 940 -107 898 -71 c 2,6,-1
 421 339 l 2,7,8
 344 406 344 406 421 472 c 2,9,-1
 898 882 l 2,10,11
 921 902 921 902 952 903 c 0,0,1
168 902 m 2,12,-1
 270 902 l 2,13,14
 358 902 358 902 358 814 c 2,15,-1
 358 -3 l 2,16,17
 358 -91 358 -91 270 -91 c 2,18,-1
 168 -91 l 2,19,20
 80 -91 80 -91 80 -3 c 2,21,-1
 80 814 l 2,22,23
 80 902 80 902 168 902 c 2,12,-1
EndSplineSet
Validated: 33
EndChar

StartChar: Imacron
Encoding: 298 298 52
Width: 1360
GlyphClass: 2
Flags: W
LayerCount: 2
Fore
SplineSet
708 902 m 0,0,1
 741 901 741 901 765 880 c 2,2,-1
 1241 471 l 2,3,4
 1319 405 1319 405 1241 338 c 2,5,-1
 765 -72 l 2,6,7
 722 -109 722 -109 671 -85 c 128,-1,8
 620 -61 620 -61 620 -5 c 2,9,-1
 620 268 l 1,10,-1
 225 -72 l 2,11,12
 182 -109 182 -109 131 -85.5 c 128,-1,13
 80 -62 80 -62 80 -5 c 2,14,-1
 80 814 l 2,15,16
 80 902 80 902 168 902 c 0,17,18
 201 901 201 901 225 880 c 2,19,-1
 620 541 l 1,20,-1
 620 814 l 2,21,22
 620 902 620 902 708 902 c 0,0,1
EndSplineSet
Validated: 33
EndChar

StartChar: imacron
Encoding: 299 299 53
Width: 1359
GlyphClass: 2
Flags: W
LayerCount: 2
Fore
SplineSet
649.5 902 m 0,0,1
 740.5 905 740.5 905 740.5 814 c 2,2,-1
 740.5 542 l 1,3,-1
 1134.5 881 l 2,4,5
 1158.5 901 1158.5 901 1189.5 902 c 0,6,7
 1279.5 905 1279.5 905 1279.5 814 c 2,8,-1
 1279.5 -5 l 2,9,10
 1279.5 -61 1279.5 -61 1228.5 -84.5 c 128,-1,11
 1177.5 -108 1177.5 -108 1134.5 -71 c 2,12,-1
 740.5 268 l 1,13,-1
 740.5 -5 l 2,14,15
 740.5 -61 740.5 -61 689 -84.5 c 128,-1,16
 637.5 -108 637.5 -108 594.5 -71 c 2,17,-1
 118.5 338 l 2,18,19
 41.5 405 41.5 405 118.5 471 c 2,20,-1
 594.5 881 l 2,21,22
 618.5 901 618.5 901 649.5 902 c 0,0,1
EndSplineSet
Validated: 33
EndChar

StartChar: Ibreve
Encoding: 300 300 54
Width: 1157
GlyphClass: 2
Flags: W
LayerCount: 2
Fore
SplineSet
577.348632812 903 m 0,0,1
 614.348632812 904 614.348632812 904 641.348632812 878 c 2,2,-1
 1050.34863281 472 l 2,3,4
 1092.34863281 431 1092.34863281 431 1069.84863281 376 c 128,-1,5
 1047.34863281 321 1047.34863281 321 988.348632812 321 c 2,6,-1
 169.348632812 321 l 2,7,8
 110.348632812 321 110.348632812 321 87.8486328125 376 c 128,-1,9
 65.3486328125 431 65.3486328125 431 107.348632812 472 c 2,10,-1
 517.348632812 878 l 2,11,12
 542.348632812 902 542.348632812 902 577.348632812 903 c 0,0,1
170.348632812 173 m 2,13,-1
 987.348632812 173 l 2,14,15
 1075.34863281 173 1075.34863281 173 1075.34863281 86 c 2,16,-1
 1075.34863281 -6 l 2,17,18
 1075.34863281 -94 1075.34863281 -94 987.348632812 -94 c 2,19,-1
 170.348632812 -94 l 2,20,21
 82.3486328125 -94 82.3486328125 -94 82.3486328125 -6 c 2,22,-1
 82.3486328125 86 l 2,23,24
 82.3486328125 173 82.3486328125 173 170.348632812 173 c 2,13,-1
EndSplineSet
Validated: 33
EndChar

StartChar: ibreve
Encoding: 301 301 55
Width: 1625
GlyphClass: 2
Flags: W
LayerCount: 2
Fore
SplineSet
677 901 m 0,0,1
 789 904 789 904 789 792 c 2,2,-1
 789 17 l 2,3,4
 789 -57 789 -57 720 -84.5 c 128,-1,5
 651 -112 651 -112 600 -58 c 2,6,-1
 421 133 l 1,7,-1
 193 133 l 2,8,9
 80 133 80 133 80 246 c 2,10,-1
 80 563 l 2,11,12
 80 676 80 676 193 676 c 2,13,-1
 421 676 l 1,14,-1
 600 866 l 2,15,16
 631 900 631 900 677 901 c 0,0,1
1290 874 m 0,17,18
 1319 874 1319 874 1338 857 c 0,19,20
 1544 670 1544 670 1545 404 c 0,21,22
 1544 138 1544 138 1338 -48 c 0,23,24
 1319 -68 1319 -68 1291 -68 c 0,25,26
 1226 -68 1226 -68 1226 -2 c 0,27,28
 1226 29 1226 29 1250 49 c 0,29,30
 1413 197 1413 197 1413 404 c 0,31,32
 1413 612 1413 612 1250 760 c 0,33,34
 1228 779 1228 779 1228 809 c 0,35,36
 1228 871 1228 871 1290 874 c 0,17,18
1087 757 m 0,37,38
 1110 757 1110 757 1129 742 c 0,39,40
 1298 603 1298 603 1298 404.5 c 128,-1,41
 1298 206 1298 206 1129 67 c 0,42,43
 1111 54 1111 54 1089 54 c 0,44,45
 1023 54 1023 54 1023 120 c 0,46,47
 1023 149 1023 149 1045 169 c 0,48,49
 1167 268 1167 268 1167 404.5 c 128,-1,50
 1167 541 1167 541 1045 640 c 0,51,52
 1020 660 1020 660 1020 692 c 0,53,54
 1020 757 1020 757 1087 757 c 0,37,38
952 603 m 0,55,56
 981 603 981 603 1000 583 c 0,57,58
 1076 510 1076 510 1076 404 c 0,59,60
 1076 300 1076 300 1000 226 c 0,61,62
 981 207 981 207 954 207 c 0,63,64
 888 207 888 207 888 273 c 0,65,66
 888 300 888 300 908 320 c 0,67,68
 945 355 945 355 945 404 c 0,69,70
 945 455 945 455 908 490 c 0,71,72
 888 509 888 509 888 537 c 0,73,74
 888 602 888 602 952 603 c 0,55,56
EndSplineSet
Validated: 33
EndChar

StartChar: Iogonek
Encoding: 302 302 56
Width: 1378
GlyphClass: 2
Flags: W
LayerCount: 2
Fore
SplineSet
677 901 m 0,0,1
 789 905 789 905 789 792 c 2,2,-1
 789 18 l 2,3,4
 789 -57 789 -57 720 -84 c 128,-1,5
 651 -111 651 -111 600 -57 c 2,6,-1
 421 133 l 1,7,-1
 193 133 l 2,8,9
 80 133 80 133 80 247 c 2,10,-1
 80 563 l 2,11,12
 80 676 80 676 193 676 c 2,13,-1
 421 676 l 1,14,-1
 600 867 l 2,15,16
 631 900 631 900 677 901 c 0,0,1
1086 758 m 0,17,18
 1110 758 1110 758 1129 742 c 0,19,20
 1298 604 1298 604 1298 405 c 128,-1,21
 1298 206 1298 206 1129 68 c 0,22,23
 1110 52 1110 52 1085 52 c 0,24,25
 1020 52 1020 52 1020 117 c 0,26,27
 1020 150 1020 150 1046 169 c 0,28,29
 1167 268 1167 268 1167 405 c 128,-1,30
 1167 542 1167 542 1046 641 c 0,31,32
 1020 660 1020 660 1020 692 c 0,33,34
 1020 758 1020 758 1086 758 c 0,17,18
952 603 m 0,35,36
 980 603 980 603 1000 584 c 0,37,38
 1076 510 1076 510 1076 405 c 128,-1,39
 1076 300 1076 300 1000 226 c 0,40,41
 980 206 980 206 952 206 c 0,42,43
 887 206 887 206 887 271 c 0,44,45
 887 301 887 301 908 320 c 0,46,47
 945 356 945 356 945 405 c 256,48,49
 945 454 945 454 908 490 c 0,50,51
 888 509 888 509 888 538 c 0,52,53
 888 602 888 602 952 603 c 0,35,36
EndSplineSet
Validated: 33
EndChar

StartChar: iogonek
Encoding: 303 303 57
Width: 1156
GlyphClass: 2
Flags: W
LayerCount: 2
Fore
SplineSet
677 901 m 0,0,1
 789 904 789 904 790 792 c 2,2,-1
 790 18 l 2,3,4
 790 -57 790 -57 721 -84 c 128,-1,5
 652 -111 652 -111 601 -57 c 2,6,-1
 422 133 l 1,7,-1
 194 133 l 2,8,9
 80 134 80 134 80 246 c 2,10,-1
 80 563 l 2,11,12
 80 676 80 676 194 676 c 2,13,-1
 422 676 l 1,14,-1
 601 867 l 2,15,16
 632 900 632 900 677 901 c 0,0,1
953 603 m 0,17,18
 981 603 981 603 1000 584 c 0,19,20
 1076 509 1076 509 1076 405 c 1,21,-1
 1076 405 l 1,22,23
 1076 300 1076 300 1000 226 c 0,24,25
 981 207 981 207 954 207 c 0,26,27
 889 207 889 207 889 273 c 0,28,29
 889 300 889 300 909 320 c 0,30,31
 945 355 945 355 945 405 c 0,32,33
 945 454 945 454 909 490 c 0,34,35
 888 509 888 509 888 537 c 0,36,37
 888 603 888 603 953 603 c 0,17,18
EndSplineSet
Validated: 37
EndChar

StartChar: Idotaccent
Encoding: 304 304 58
Width: 1501
GlyphClass: 2
Flags: W
LayerCount: 2
Fore
SplineSet
677 901 m 0,0,1
 790 904 790 904 790 792 c 2,2,-1
 790 17 l 2,3,4
 790 -57 790 -57 721 -84 c 128,-1,5
 652 -111 652 -111 601 -57 c 2,6,-1
 422 133 l 1,7,-1
 194 133 l 2,8,9
 80 133 80 133 80 246 c 2,10,-1
 80 563 l 2,11,12
 80 676 80 676 194 676 c 2,13,-1
 422 676 l 1,14,-1
 601 867 l 2,15,16
 632 900 632 900 677 901 c 0,0,1
1328 650 m 1,17,18
 1351 650 1351 650 1367 635 c 2,19,-1
 1406 596 l 2,20,21
 1421 581 1421 581 1421 559 c 128,-1,22
 1421 537 1421 537 1406 521 c 2,23,-1
 1289 404 l 1,24,-1
 1406 287 l 2,25,26
 1421 272 1421 272 1421 250 c 128,-1,27
 1421 228 1421 228 1406 212 c 2,28,-1
 1367 173 l 2,29,30
 1351 158 1351 158 1329.5 158 c 128,-1,31
 1308 158 1308 158 1292 173 c 2,32,-1
 1175 290 l 1,33,-1
 1058 173 l 2,34,35
 1042 158 1042 158 1020.5 158 c 128,-1,36
 999 158 999 158 983 173 c 2,37,-1
 944 212 l 2,38,39
 929 228 929 228 929 250 c 128,-1,40
 929 272 929 272 944 287 c 2,41,-1
 1061 404 l 1,42,-1
 944 521 l 2,43,44
 928 537 928 537 928 559 c 128,-1,45
 928 581 928 581 944 596 c 2,46,-1
 983 635 l 2,47,48
 998 651 998 651 1020 651 c 1,49,-1
 1175 518 l 1,50,-1
 1328 650 l 1,17,18
EndSplineSet
Validated: 33
EndChar

StartChar: dotlessi
Encoding: 305 305 59
Width: 1454
GlyphClass: 2
Flags: W
LayerCount: 2
Fore
SplineSet
1007 899 m 0,0,1
 1027 899 1027 899 1042 888 c 2,2,-1
 1258 723 l 2,3,4
 1313 680 1313 680 1258 638 c 2,5,-1
 1042 473 l 2,6,7
 956 408 956 408 956 516 c 2,8,-1
 956 616 l 1,9,-1
 481 616 l 2,10,11
 317 616 317 616 262 563 c 0,12,13
 208 513 208 513 208 360 c 0,14,15
 208 295 208 295 144 295 c 128,-1,16
 80 295 80 295 80 359 c 0,17,18
 80 567 80 567 173 656 c 0,19,20
 265 745 265 745 481 745 c 2,21,-1
 956 745 l 1,22,-1
 956 845 l 2,23,24
 956 896 956 896 1007 899 c 0,0,1
1309 525 m 0,25,26
 1374 525 1374 525 1374 461 c 0,27,28
 1374 253 1374 253 1281 164 c 0,29,30
 1189 76 1189 76 973 76 c 2,31,-1
 498 76 l 1,32,-1
 498 -25 l 2,33,34
 498 -131 498 -131 412 -67 c 2,35,-1
 196 98 l 2,36,37
 141 140 141 140 196 183 c 2,38,-1
 412 348 l 2,39,40
 426 359 426 359 443 359 c 0,41,42
 498 361 498 361 498 305 c 2,43,-1
 498 204 l 1,44,-1
 973 204 l 2,45,46
 1137 204 1137 204 1192 257 c 0,47,48
 1245 308 1245 308 1245 460 c 0,49,50
 1245 524 1245 524 1309 525 c 0,25,26
EndSplineSet
Validated: 33
EndChar

StartChar: IJ
Encoding: 306 306 60
Width: 1452
GlyphClass: 2
Flags: W
LayerCount: 2
Fore
SplineSet
599 899 m 0,0,1
 618 900 618 900 634 888 c 2,2,-1
 850 723 l 2,3,4
 905 681 905 681 850 638 c 2,5,-1
 634 473 l 2,6,7
 548 408 548 408 548 516 c 2,8,-1
 548 617 l 1,9,-1
 481 617 l 2,10,11
 317 617 317 617 262 564 c 0,12,13
 209 513 209 513 209 361 c 0,14,15
 209 296 209 296 144.5 296 c 128,-1,16
 80 296 80 296 80 360 c 0,17,18
 80 568 80 568 173 656 c 0,19,20
 265 745 265 745 481 745 c 2,21,-1
 548 745 l 1,22,-1
 548 845 l 2,23,24
 548 897 548 897 599 899 c 0,0,1
1171.5 867 m 128,-1,26
 1372 867 1372 867 1372 667 c 128,-1,27
 1372 467 1372 467 1171.5 467 c 128,-1,28
 971 467 971 467 971 667 c 128,-1,25
 971 867 971 867 1171.5 867 c 128,-1,26
1183 801 m 1,29,-1
 1101 753 l 2,30,31
 1089 745 1089 745 1089 730 c 0,32,33
 1089 704 1089 704 1115 704 c 1,34,-1
 1157 726 l 1,35,-1
 1157 559 l 2,36,37
 1157 532 1157 532 1183.5 532 c 128,-1,38
 1210 532 1210 532 1210 559 c 2,39,-1
 1210 775 l 2,40,41
 1210 801 1210 801 1183 801 c 1,29,-1
1291 375 m 0,42,43
 1357 375 1357 375 1357 311 c 1,44,45
 1319 171 1319 171 1198 118 c 0,46,47
 1113 81 1113 81 975 77 c 1,48,-1
 973 77 l 1,49,-1
 498 77 l 1,50,-1
 498 -24 l 2,51,52
 498 -131 498 -131 412 -66 c 2,53,-1
 196 98 l 2,54,55
 140 141 140 141 196 184 c 2,56,-1
 412 348 l 2,57,58
 426 359 426 359 443 359 c 0,59,60
 498 361 498 361 498 306 c 2,61,-1
 498 205 l 1,62,-1
 971 205 l 2,63,64
 1084 208 1084 208 1146 235 c 0,65,66
 1213 264 1213 264 1231 329 c 0,67,68
 1244 374 1244 374 1291 375 c 0,42,43
EndSplineSet
Validated: 33
EndChar

StartChar: ij
Encoding: 307 307 61
Width: 1700
GlyphClass: 2
Flags: W
LayerCount: 2
Fore
SplineSet
1329 900 m 0,0,1
 1349 900 1349 900 1365 888 c 2,2,-1
 1591 716 l 2,3,4
 1649 672 1649 672 1591 627 c 2,5,-1
 1365 455 l 2,6,7
 1275 386 1275 386 1275 499 c 2,8,-1
 1275 605 l 1,9,-1
 1087 605 l 2,10,11
 937 605 937 605 858 527 c 0,12,13
 802 473 802 473 802 418 c 0,14,15
 802 295 802 295 724 211 c 0,16,17
 611 89 611 89 356 87 c 2,18,-1
 355 87 l 1,19,-1
 150 87 l 2,20,21
 82 87 82 87 82 154 c 128,-1,22
 82 221 82 221 149 221 c 2,23,-1
 354 221 l 2,24,25
 552 222 552 222 626 302 c 0,26,27
 668 348 668 348 668 418 c 0,28,29
 668 530 668 530 764 623 c 0,30,31
 883 739 883 739 1087 739 c 2,32,-1
 1275 739 l 1,33,-1
 1275 844 l 2,34,35
 1275 897 1275 897 1329 900 c 0,0,1
148 736 m 2,36,-1
 353 736 l 1,37,-1
 354 736 l 2,38,39
 512 734 512 734 639 650 c 0,40,41
 667 630 667 630 667 596 c 0,42,43
 667 529 667 529 600 529 c 1,44,45
 470 601 470 601 352 602 c 2,46,-1
 148 602 l 2,47,48
 80 602 80 602 80 669 c 128,-1,49
 80 736 80 736 148 736 c 2,36,-1
1326 379 m 0,50,51
 1346 381 1346 381 1363 368 c 2,52,-1
 1588 196 l 2,53,54
 1647 152 1647 152 1588 107 c 2,55,-1
 1363 -65 l 2,56,57
 1273 -132 1273 -132 1273 -21 c 2,58,-1
 1273 84 l 1,59,-1
 1086 84 l 2,60,61
 972 82 972 82 843 163 c 0,62,63
 811 183 811 183 811 220 c 0,64,65
 811 285 811 285 876 287 c 0,66,67
 897 287 897 287 914 277 c 0,68,69
 1010 217 1010 217 1083 218 c 2,70,-1
 1084 218 l 1,71,-1
 1273 218 l 1,72,-1
 1273 324 l 2,73,74
 1273 377 1273 377 1326 379 c 0,50,51
EndSplineSet
Validated: 33
EndChar

StartChar: Jcircumflex
Encoding: 308 308 62
Width: 1033
GlyphClass: 2
Flags: W
LayerCount: 2
Fore
SplineSet
168 903 m 0,0,1
 191 902 191 902 210 891 c 2,2,-1
 910 487 l 2,3,4
 953 462 953 462 953 412 c 128,-1,5
 953 362 953 362 910 337 c 2,6,-1
 210 -67 l 2,7,8
 80 -142 80 -142 80 8 c 2,9,-1
 80 816 l 2,10,11
 80 905 80 905 168 903 c 0,0,1
EndSplineSet
Validated: 33
EndChar

StartChar: jcircumflex
Encoding: 309 309 63
Width: 1033
GlyphClass: 2
Flags: W
LayerCount: 2
Fore
SplineSet
175.5 895 m 6,0,-1
 319.5 895 l 6,1,2
 407.5 895 407.5 895 407.5 807 c 6,3,-1
 407.5 -8 l 6,4,5
 407.5 -96 407.5 -96 319.5 -96 c 6,6,-1
 175.5 -96 l 6,7,8
 87.5 -96 87.5 -96 87.5 -8 c 6,9,-1
 87.5 807 l 6,10,11
 87.5 895 87.5 895 175.5 895 c 6,0,-1
713.5 895 m 6,12,-1
 857.5 895 l 6,13,14
 945.5 895 945.5 895 945.5 807 c 6,15,-1
 945.5 -8 l 6,16,17
 945.5 -96 945.5 -96 857.5 -96 c 6,18,-1
 713.5 -96 l 6,19,20
 625.5 -96 625.5 -96 625.5 -8 c 6,21,-1
 625.5 807 l 6,22,23
 625.5 895 625.5 895 713.5 895 c 6,12,-1
EndSplineSet
Validated: 1
EndChar

StartChar: uni0136
Encoding: 310 310 64
Width: 1149
GlyphClass: 2
Flags: W
LayerCount: 2
Fore
SplineSet
171 896 m 2,0,-1
 978 896 l 2,1,2
 1069 896 1069 896 1069 805 c 2,3,-1
 1069 -2 l 2,4,5
 1069 -93 1069 -93 978 -93 c 2,6,-1
 171 -93 l 2,7,8
 80 -93 80 -93 80 -2 c 2,9,-1
 80 805 l 2,10,11
 80 896 80 896 171 896 c 2,0,-1
EndSplineSet
Validated: 1
EndChar

StartChar: uni0137
Encoding: 311 311 65
Width: 1183
GlyphClass: 2
Flags: W
LayerCount: 2
Fore
SplineSet
533 901 m 0,0,1
 565 900 565 900 589 880 c 2,2,-1
 1065 470 l 2,3,4
 1142 403 1142 403 1065 337 c 2,5,-1
 589 -73 l 2,6,7
 546 -109 546 -109 495 -85.5 c 128,-1,8
 444 -62 444 -62 444 -6 c 2,9,-1
 444 813 l 2,10,11
 444 901 444 901 533 901 c 0,0,1
168 900 m 2,12,-1
 271 900 l 2,13,14
 359 900 359 900 359 812 c 2,15,-1
 359 -5 l 2,16,17
 359 -93 359 -93 271 -93 c 2,18,-1
 168 -93 l 2,19,20
 80 -93 80 -93 80 -5 c 2,21,-1
 80 812 l 2,22,23
 80 900 80 900 168 900 c 2,12,-1
EndSplineSet
Validated: 33
EndChar

StartChar: kgreenlandic
Encoding: 312 312 66
Width: 1123
GlyphClass: 2
Flags: W
LayerCount: 2
Fore
SplineSet
169 902 m 0,0,1
 201 901 201 901 225 881 c 2,2,-1
 701 471 l 2,3,4
 778 405 778 405 701 338 c 2,5,-1
 225 -72 l 2,6,7
 182 -108 182 -108 131 -84.5 c 128,-1,8
 80 -61 80 -61 80 -5 c 2,9,-1
 80 814 l 2,10,11
 80 903 80 903 169 902 c 0,0,1
852 901 m 2,12,-1
 955 901 l 2,13,14
 1042 901 1042 901 1043 813 c 2,15,-1
 1043 -4 l 2,16,17
 1042 -92 1042 -92 955 -92 c 2,18,-1
 852 -92 l 2,19,20
 764 -92 764 -92 764 -4 c 2,21,-1
 764 813 l 2,22,23
 764 901 764 901 852 901 c 2,12,-1
EndSplineSet
Validated: 33
EndChar

StartChar: Lacute
Encoding: 313 313 67
Width: 1123
GlyphClass: 2
Flags: W
LayerCount: 2
Fore
SplineSet
952 903 m 0,0,1
 1043 906 1043 906 1043 815 c 2,2,-1
 1043 -4 l 2,3,4
 1043 -60 1043 -60 991.5 -83.5 c 128,-1,5
 940 -107 940 -107 898 -71 c 2,6,-1
 421 339 l 2,7,8
 344 406 344 406 421 472 c 2,9,-1
 898 882 l 2,10,11
 921 902 921 902 952 903 c 0,0,1
168 902 m 2,12,-1
 270 902 l 2,13,14
 358 902 358 902 358 814 c 2,15,-1
 358 -3 l 2,16,17
 358 -91 358 -91 270 -91 c 2,18,-1
 168 -91 l 2,19,20
 80 -91 80 -91 80 -3 c 2,21,-1
 80 814 l 2,22,23
 80 902 80 902 168 902 c 2,12,-1
EndSplineSet
Validated: 33
EndChar

StartChar: lacute
Encoding: 314 314 68
Width: 1360
GlyphClass: 2
Flags: W
LayerCount: 2
Fore
SplineSet
708 902 m 0,0,1
 741 901 741 901 765 880 c 2,2,-1
 1241 471 l 2,3,4
 1319 405 1319 405 1241 338 c 2,5,-1
 765 -72 l 2,6,7
 722 -109 722 -109 671 -85 c 128,-1,8
 620 -61 620 -61 620 -5 c 2,9,-1
 620 268 l 1,10,-1
 225 -72 l 2,11,12
 182 -109 182 -109 131 -85.5 c 128,-1,13
 80 -62 80 -62 80 -5 c 2,14,-1
 80 814 l 2,15,16
 80 902 80 902 168 902 c 0,17,18
 201 901 201 901 225 880 c 2,19,-1
 620 541 l 1,20,-1
 620 814 l 2,21,22
 620 902 620 902 708 902 c 0,0,1
EndSplineSet
Validated: 33
EndChar

StartChar: uni013B
Encoding: 315 315 69
Width: 1359
GlyphClass: 2
Flags: W
LayerCount: 2
Fore
SplineSet
649.5 902 m 0,0,1
 740.5 905 740.5 905 740.5 814 c 2,2,-1
 740.5 542 l 1,3,-1
 1134.5 881 l 2,4,5
 1158.5 901 1158.5 901 1189.5 902 c 0,6,7
 1279.5 905 1279.5 905 1279.5 814 c 2,8,-1
 1279.5 -5 l 2,9,10
 1279.5 -61 1279.5 -61 1228.5 -84.5 c 128,-1,11
 1177.5 -108 1177.5 -108 1134.5 -71 c 2,12,-1
 740.5 268 l 1,13,-1
 740.5 -5 l 2,14,15
 740.5 -61 740.5 -61 689 -84.5 c 128,-1,16
 637.5 -108 637.5 -108 594.5 -71 c 2,17,-1
 118.5 338 l 2,18,19
 41.5 405 41.5 405 118.5 471 c 2,20,-1
 594.5 881 l 2,21,22
 618.5 901 618.5 901 649.5 902 c 0,0,1
EndSplineSet
Validated: 33
EndChar

StartChar: uni013C
Encoding: 316 316 70
Width: 1157
GlyphClass: 2
Flags: W
LayerCount: 2
Fore
SplineSet
577.348632812 903 m 0,0,1
 614.348632812 904 614.348632812 904 641.348632812 878 c 2,2,-1
 1050.34863281 472 l 2,3,4
 1092.34863281 431 1092.34863281 431 1069.84863281 376 c 128,-1,5
 1047.34863281 321 1047.34863281 321 988.348632812 321 c 2,6,-1
 169.348632812 321 l 2,7,8
 110.348632812 321 110.348632812 321 87.8486328125 376 c 128,-1,9
 65.3486328125 431 65.3486328125 431 107.348632812 472 c 2,10,-1
 517.348632812 878 l 2,11,12
 542.348632812 902 542.348632812 902 577.348632812 903 c 0,0,1
170.348632812 173 m 2,13,-1
 987.348632812 173 l 2,14,15
 1075.34863281 173 1075.34863281 173 1075.34863281 86 c 2,16,-1
 1075.34863281 -6 l 2,17,18
 1075.34863281 -94 1075.34863281 -94 987.348632812 -94 c 2,19,-1
 170.348632812 -94 l 2,20,21
 82.3486328125 -94 82.3486328125 -94 82.3486328125 -6 c 2,22,-1
 82.3486328125 86 l 2,23,24
 82.3486328125 173 82.3486328125 173 170.348632812 173 c 2,13,-1
EndSplineSet
Validated: 33
EndChar

StartChar: Lcaron
Encoding: 317 317 71
Width: 1625
GlyphClass: 2
Flags: W
LayerCount: 2
Fore
SplineSet
677 901 m 0,0,1
 789 904 789 904 789 792 c 2,2,-1
 789 17 l 2,3,4
 789 -57 789 -57 720 -84.5 c 128,-1,5
 651 -112 651 -112 600 -58 c 2,6,-1
 421 133 l 1,7,-1
 193 133 l 2,8,9
 80 133 80 133 80 246 c 2,10,-1
 80 563 l 2,11,12
 80 676 80 676 193 676 c 2,13,-1
 421 676 l 1,14,-1
 600 866 l 2,15,16
 631 900 631 900 677 901 c 0,0,1
1290 874 m 0,17,18
 1319 874 1319 874 1338 857 c 0,19,20
 1544 670 1544 670 1545 404 c 0,21,22
 1544 138 1544 138 1338 -48 c 0,23,24
 1319 -68 1319 -68 1291 -68 c 0,25,26
 1226 -68 1226 -68 1226 -2 c 0,27,28
 1226 29 1226 29 1250 49 c 0,29,30
 1413 197 1413 197 1413 404 c 0,31,32
 1413 612 1413 612 1250 760 c 0,33,34
 1228 779 1228 779 1228 809 c 0,35,36
 1228 871 1228 871 1290 874 c 0,17,18
1087 757 m 0,37,38
 1110 757 1110 757 1129 742 c 0,39,40
 1298 603 1298 603 1298 404.5 c 128,-1,41
 1298 206 1298 206 1129 67 c 0,42,43
 1111 54 1111 54 1089 54 c 0,44,45
 1023 54 1023 54 1023 120 c 0,46,47
 1023 149 1023 149 1045 169 c 0,48,49
 1167 268 1167 268 1167 404.5 c 128,-1,50
 1167 541 1167 541 1045 640 c 0,51,52
 1020 660 1020 660 1020 692 c 0,53,54
 1020 757 1020 757 1087 757 c 0,37,38
952 603 m 0,55,56
 981 603 981 603 1000 583 c 0,57,58
 1076 510 1076 510 1076 404 c 0,59,60
 1076 300 1076 300 1000 226 c 0,61,62
 981 207 981 207 954 207 c 0,63,64
 888 207 888 207 888 273 c 0,65,66
 888 300 888 300 908 320 c 0,67,68
 945 355 945 355 945 404 c 0,69,70
 945 455 945 455 908 490 c 0,71,72
 888 509 888 509 888 537 c 0,73,74
 888 602 888 602 952 603 c 0,55,56
EndSplineSet
Validated: 33
EndChar

StartChar: lcaron
Encoding: 318 318 72
Width: 1378
GlyphClass: 2
Flags: W
LayerCount: 2
Fore
SplineSet
677 901 m 0,0,1
 789 905 789 905 789 792 c 2,2,-1
 789 18 l 2,3,4
 789 -57 789 -57 720 -84 c 128,-1,5
 651 -111 651 -111 600 -57 c 2,6,-1
 421 133 l 1,7,-1
 193 133 l 2,8,9
 80 133 80 133 80 247 c 2,10,-1
 80 563 l 2,11,12
 80 676 80 676 193 676 c 2,13,-1
 421 676 l 1,14,-1
 600 867 l 2,15,16
 631 900 631 900 677 901 c 0,0,1
1086 758 m 0,17,18
 1110 758 1110 758 1129 742 c 0,19,20
 1298 604 1298 604 1298 405 c 128,-1,21
 1298 206 1298 206 1129 68 c 0,22,23
 1110 52 1110 52 1085 52 c 0,24,25
 1020 52 1020 52 1020 117 c 0,26,27
 1020 150 1020 150 1046 169 c 0,28,29
 1167 268 1167 268 1167 405 c 128,-1,30
 1167 542 1167 542 1046 641 c 0,31,32
 1020 660 1020 660 1020 692 c 0,33,34
 1020 758 1020 758 1086 758 c 0,17,18
952 603 m 0,35,36
 980 603 980 603 1000 584 c 0,37,38
 1076 510 1076 510 1076 405 c 128,-1,39
 1076 300 1076 300 1000 226 c 0,40,41
 980 206 980 206 952 206 c 0,42,43
 887 206 887 206 887 271 c 0,44,45
 887 301 887 301 908 320 c 0,46,47
 945 356 945 356 945 405 c 256,48,49
 945 454 945 454 908 490 c 0,50,51
 888 509 888 509 888 538 c 0,52,53
 888 602 888 602 952 603 c 0,35,36
EndSplineSet
Validated: 33
EndChar

StartChar: Ldot
Encoding: 319 319 73
Width: 1156
GlyphClass: 2
Flags: W
LayerCount: 2
Fore
SplineSet
677 901 m 0,0,1
 789 904 789 904 790 792 c 2,2,-1
 790 18 l 2,3,4
 790 -57 790 -57 721 -84 c 128,-1,5
 652 -111 652 -111 601 -57 c 2,6,-1
 422 133 l 1,7,-1
 194 133 l 2,8,9
 80 134 80 134 80 246 c 2,10,-1
 80 563 l 2,11,12
 80 676 80 676 194 676 c 2,13,-1
 422 676 l 1,14,-1
 601 867 l 2,15,16
 632 900 632 900 677 901 c 0,0,1
953 603 m 0,17,18
 981 603 981 603 1000 584 c 0,19,20
 1076 509 1076 509 1076 405 c 1,21,-1
 1076 405 l 1,22,23
 1076 300 1076 300 1000 226 c 0,24,25
 981 207 981 207 954 207 c 0,26,27
 889 207 889 207 889 273 c 0,28,29
 889 300 889 300 909 320 c 0,30,31
 945 355 945 355 945 405 c 0,32,33
 945 454 945 454 909 490 c 0,34,35
 888 509 888 509 888 537 c 0,36,37
 888 603 888 603 953 603 c 0,17,18
EndSplineSet
Validated: 37
EndChar

StartChar: ldot
Encoding: 320 320 74
Width: 1501
GlyphClass: 2
Flags: W
LayerCount: 2
Fore
SplineSet
677 901 m 0,0,1
 790 904 790 904 790 792 c 2,2,-1
 790 17 l 2,3,4
 790 -57 790 -57 721 -84 c 128,-1,5
 652 -111 652 -111 601 -57 c 2,6,-1
 422 133 l 1,7,-1
 194 133 l 2,8,9
 80 133 80 133 80 246 c 2,10,-1
 80 563 l 2,11,12
 80 676 80 676 194 676 c 2,13,-1
 422 676 l 1,14,-1
 601 867 l 2,15,16
 632 900 632 900 677 901 c 0,0,1
1328 650 m 1,17,18
 1351 650 1351 650 1367 635 c 2,19,-1
 1406 596 l 2,20,21
 1421 581 1421 581 1421 559 c 128,-1,22
 1421 537 1421 537 1406 521 c 2,23,-1
 1289 404 l 1,24,-1
 1406 287 l 2,25,26
 1421 272 1421 272 1421 250 c 128,-1,27
 1421 228 1421 228 1406 212 c 2,28,-1
 1367 173 l 2,29,30
 1351 158 1351 158 1329.5 158 c 128,-1,31
 1308 158 1308 158 1292 173 c 2,32,-1
 1175 290 l 1,33,-1
 1058 173 l 2,34,35
 1042 158 1042 158 1020.5 158 c 128,-1,36
 999 158 999 158 983 173 c 2,37,-1
 944 212 l 2,38,39
 929 228 929 228 929 250 c 128,-1,40
 929 272 929 272 944 287 c 2,41,-1
 1061 404 l 1,42,-1
 944 521 l 2,43,44
 928 537 928 537 928 559 c 128,-1,45
 928 581 928 581 944 596 c 2,46,-1
 983 635 l 2,47,48
 998 651 998 651 1020 651 c 1,49,-1
 1175 518 l 1,50,-1
 1328 650 l 1,17,18
EndSplineSet
Validated: 33
EndChar

StartChar: Lslash
Encoding: 321 321 75
Width: 1454
GlyphClass: 2
Flags: W
LayerCount: 2
Fore
SplineSet
1007 899 m 0,0,1
 1027 899 1027 899 1042 888 c 2,2,-1
 1258 723 l 2,3,4
 1313 680 1313 680 1258 638 c 2,5,-1
 1042 473 l 2,6,7
 956 408 956 408 956 516 c 2,8,-1
 956 616 l 1,9,-1
 481 616 l 2,10,11
 317 616 317 616 262 563 c 0,12,13
 208 513 208 513 208 360 c 0,14,15
 208 295 208 295 144 295 c 128,-1,16
 80 295 80 295 80 359 c 0,17,18
 80 567 80 567 173 656 c 0,19,20
 265 745 265 745 481 745 c 2,21,-1
 956 745 l 1,22,-1
 956 845 l 2,23,24
 956 896 956 896 1007 899 c 0,0,1
1309 525 m 0,25,26
 1374 525 1374 525 1374 461 c 0,27,28
 1374 253 1374 253 1281 164 c 0,29,30
 1189 76 1189 76 973 76 c 2,31,-1
 498 76 l 1,32,-1
 498 -25 l 2,33,34
 498 -131 498 -131 412 -67 c 2,35,-1
 196 98 l 2,36,37
 141 140 141 140 196 183 c 2,38,-1
 412 348 l 2,39,40
 426 359 426 359 443 359 c 0,41,42
 498 361 498 361 498 305 c 2,43,-1
 498 204 l 1,44,-1
 973 204 l 2,45,46
 1137 204 1137 204 1192 257 c 0,47,48
 1245 308 1245 308 1245 460 c 0,49,50
 1245 524 1245 524 1309 525 c 0,25,26
EndSplineSet
Validated: 33
EndChar

StartChar: lslash
Encoding: 322 322 76
Width: 1452
GlyphClass: 2
Flags: W
LayerCount: 2
Fore
SplineSet
599 899 m 0,0,1
 618 900 618 900 634 888 c 2,2,-1
 850 723 l 2,3,4
 905 681 905 681 850 638 c 2,5,-1
 634 473 l 2,6,7
 548 408 548 408 548 516 c 2,8,-1
 548 617 l 1,9,-1
 481 617 l 2,10,11
 317 617 317 617 262 564 c 0,12,13
 209 513 209 513 209 361 c 0,14,15
 209 296 209 296 144.5 296 c 128,-1,16
 80 296 80 296 80 360 c 0,17,18
 80 568 80 568 173 656 c 0,19,20
 265 745 265 745 481 745 c 2,21,-1
 548 745 l 1,22,-1
 548 845 l 2,23,24
 548 897 548 897 599 899 c 0,0,1
1171.5 867 m 128,-1,26
 1372 867 1372 867 1372 667 c 128,-1,27
 1372 467 1372 467 1171.5 467 c 128,-1,28
 971 467 971 467 971 667 c 128,-1,25
 971 867 971 867 1171.5 867 c 128,-1,26
1183 801 m 1,29,-1
 1101 753 l 2,30,31
 1089 745 1089 745 1089 730 c 0,32,33
 1089 704 1089 704 1115 704 c 1,34,-1
 1157 726 l 1,35,-1
 1157 559 l 2,36,37
 1157 532 1157 532 1183.5 532 c 128,-1,38
 1210 532 1210 532 1210 559 c 2,39,-1
 1210 775 l 2,40,41
 1210 801 1210 801 1183 801 c 1,29,-1
1291 375 m 0,42,43
 1357 375 1357 375 1357 311 c 1,44,45
 1319 171 1319 171 1198 118 c 0,46,47
 1113 81 1113 81 975 77 c 1,48,-1
 973 77 l 1,49,-1
 498 77 l 1,50,-1
 498 -24 l 2,51,52
 498 -131 498 -131 412 -66 c 2,53,-1
 196 98 l 2,54,55
 140 141 140 141 196 184 c 2,56,-1
 412 348 l 2,57,58
 426 359 426 359 443 359 c 0,59,60
 498 361 498 361 498 306 c 2,61,-1
 498 205 l 1,62,-1
 971 205 l 2,63,64
 1084 208 1084 208 1146 235 c 0,65,66
 1213 264 1213 264 1231 329 c 0,67,68
 1244 374 1244 374 1291 375 c 0,42,43
EndSplineSet
Validated: 33
EndChar

StartChar: Nacute
Encoding: 323 323 77
Width: 1700
GlyphClass: 2
Flags: W
LayerCount: 2
Fore
SplineSet
1329 900 m 0,0,1
 1349 900 1349 900 1365 888 c 2,2,-1
 1591 716 l 2,3,4
 1649 672 1649 672 1591 627 c 2,5,-1
 1365 455 l 2,6,7
 1275 386 1275 386 1275 499 c 2,8,-1
 1275 605 l 1,9,-1
 1087 605 l 2,10,11
 937 605 937 605 858 527 c 0,12,13
 802 473 802 473 802 418 c 0,14,15
 802 295 802 295 724 211 c 0,16,17
 611 89 611 89 356 87 c 2,18,-1
 355 87 l 1,19,-1
 150 87 l 2,20,21
 82 87 82 87 82 154 c 128,-1,22
 82 221 82 221 149 221 c 2,23,-1
 354 221 l 2,24,25
 552 222 552 222 626 302 c 0,26,27
 668 348 668 348 668 418 c 0,28,29
 668 530 668 530 764 623 c 0,30,31
 883 739 883 739 1087 739 c 2,32,-1
 1275 739 l 1,33,-1
 1275 844 l 2,34,35
 1275 897 1275 897 1329 900 c 0,0,1
148 736 m 2,36,-1
 353 736 l 1,37,-1
 354 736 l 2,38,39
 512 734 512 734 639 650 c 0,40,41
 667 630 667 630 667 596 c 0,42,43
 667 529 667 529 600 529 c 1,44,45
 470 601 470 601 352 602 c 2,46,-1
 148 602 l 2,47,48
 80 602 80 602 80 669 c 128,-1,49
 80 736 80 736 148 736 c 2,36,-1
1326 379 m 0,50,51
 1346 381 1346 381 1363 368 c 2,52,-1
 1588 196 l 2,53,54
 1647 152 1647 152 1588 107 c 2,55,-1
 1363 -65 l 2,56,57
 1273 -132 1273 -132 1273 -21 c 2,58,-1
 1273 84 l 1,59,-1
 1086 84 l 2,60,61
 972 82 972 82 843 163 c 0,62,63
 811 183 811 183 811 220 c 0,64,65
 811 285 811 285 876 287 c 0,66,67
 897 287 897 287 914 277 c 0,68,69
 1010 217 1010 217 1083 218 c 2,70,-1
 1084 218 l 1,71,-1
 1273 218 l 1,72,-1
 1273 324 l 2,73,74
 1273 377 1273 377 1326 379 c 0,50,51
EndSplineSet
Validated: 33
EndChar

StartChar: nacute
Encoding: 324 324 78
Width: 1033
GlyphClass: 2
Flags: W
LayerCount: 2
Fore
SplineSet
168 903 m 0,0,1
 191 902 191 902 210 891 c 2,2,-1
 910 487 l 2,3,4
 953 462 953 462 953 412 c 128,-1,5
 953 362 953 362 910 337 c 2,6,-1
 210 -67 l 2,7,8
 80 -142 80 -142 80 8 c 2,9,-1
 80 816 l 2,10,11
 80 905 80 905 168 903 c 0,0,1
EndSplineSet
Validated: 33
EndChar

StartChar: uni0145
Encoding: 325 325 79
Width: 1033
GlyphClass: 2
Flags: W
LayerCount: 2
Fore
SplineSet
175.5 895 m 6,0,-1
 319.5 895 l 6,1,2
 407.5 895 407.5 895 407.5 807 c 6,3,-1
 407.5 -8 l 6,4,5
 407.5 -96 407.5 -96 319.5 -96 c 6,6,-1
 175.5 -96 l 6,7,8
 87.5 -96 87.5 -96 87.5 -8 c 6,9,-1
 87.5 807 l 6,10,11
 87.5 895 87.5 895 175.5 895 c 6,0,-1
713.5 895 m 6,12,-1
 857.5 895 l 6,13,14
 945.5 895 945.5 895 945.5 807 c 6,15,-1
 945.5 -8 l 6,16,17
 945.5 -96 945.5 -96 857.5 -96 c 6,18,-1
 713.5 -96 l 6,19,20
 625.5 -96 625.5 -96 625.5 -8 c 6,21,-1
 625.5 807 l 6,22,23
 625.5 895 625.5 895 713.5 895 c 6,12,-1
EndSplineSet
Validated: 1
EndChar

StartChar: uni0146
Encoding: 326 326 80
Width: 1149
GlyphClass: 2
Flags: W
LayerCount: 2
Fore
SplineSet
171 896 m 2,0,-1
 978 896 l 2,1,2
 1069 896 1069 896 1069 805 c 2,3,-1
 1069 -2 l 2,4,5
 1069 -93 1069 -93 978 -93 c 2,6,-1
 171 -93 l 2,7,8
 80 -93 80 -93 80 -2 c 2,9,-1
 80 805 l 2,10,11
 80 896 80 896 171 896 c 2,0,-1
EndSplineSet
Validated: 1
EndChar

StartChar: Ncaron
Encoding: 327 327 81
Width: 1183
GlyphClass: 2
Flags: W
LayerCount: 2
Fore
SplineSet
533 901 m 0,0,1
 565 900 565 900 589 880 c 2,2,-1
 1065 470 l 2,3,4
 1142 403 1142 403 1065 337 c 2,5,-1
 589 -73 l 2,6,7
 546 -109 546 -109 495 -85.5 c 128,-1,8
 444 -62 444 -62 444 -6 c 2,9,-1
 444 813 l 2,10,11
 444 901 444 901 533 901 c 0,0,1
168 900 m 2,12,-1
 271 900 l 2,13,14
 359 900 359 900 359 812 c 2,15,-1
 359 -5 l 2,16,17
 359 -93 359 -93 271 -93 c 2,18,-1
 168 -93 l 2,19,20
 80 -93 80 -93 80 -5 c 2,21,-1
 80 812 l 2,22,23
 80 900 80 900 168 900 c 2,12,-1
EndSplineSet
Validated: 33
EndChar

StartChar: ncaron
Encoding: 328 328 82
Width: 1123
GlyphClass: 2
Flags: W
LayerCount: 2
Fore
SplineSet
169 902 m 0,0,1
 201 901 201 901 225 881 c 2,2,-1
 701 471 l 2,3,4
 778 405 778 405 701 338 c 2,5,-1
 225 -72 l 2,6,7
 182 -108 182 -108 131 -84.5 c 128,-1,8
 80 -61 80 -61 80 -5 c 2,9,-1
 80 814 l 2,10,11
 80 903 80 903 169 902 c 0,0,1
852 901 m 2,12,-1
 955 901 l 2,13,14
 1042 901 1042 901 1043 813 c 2,15,-1
 1043 -4 l 2,16,17
 1042 -92 1042 -92 955 -92 c 2,18,-1
 852 -92 l 2,19,20
 764 -92 764 -92 764 -4 c 2,21,-1
 764 813 l 2,22,23
 764 901 764 901 852 901 c 2,12,-1
EndSplineSet
Validated: 33
EndChar

StartChar: napostrophe
Encoding: 329 329 83
Width: 1123
GlyphClass: 2
Flags: W
LayerCount: 2
Fore
SplineSet
952 903 m 0,0,1
 1043 906 1043 906 1043 815 c 2,2,-1
 1043 -4 l 2,3,4
 1043 -60 1043 -60 991.5 -83.5 c 128,-1,5
 940 -107 940 -107 898 -71 c 2,6,-1
 421 339 l 2,7,8
 344 406 344 406 421 472 c 2,9,-1
 898 882 l 2,10,11
 921 902 921 902 952 903 c 0,0,1
168 902 m 2,12,-1
 270 902 l 2,13,14
 358 902 358 902 358 814 c 2,15,-1
 358 -3 l 2,16,17
 358 -91 358 -91 270 -91 c 2,18,-1
 168 -91 l 2,19,20
 80 -91 80 -91 80 -3 c 2,21,-1
 80 814 l 2,22,23
 80 902 80 902 168 902 c 2,12,-1
EndSplineSet
Validated: 33
EndChar

StartChar: Eng
Encoding: 330 330 84
Width: 1360
GlyphClass: 2
Flags: W
LayerCount: 2
Fore
SplineSet
708 902 m 0,0,1
 741 901 741 901 765 880 c 2,2,-1
 1241 471 l 2,3,4
 1319 405 1319 405 1241 338 c 2,5,-1
 765 -72 l 2,6,7
 722 -109 722 -109 671 -85 c 128,-1,8
 620 -61 620 -61 620 -5 c 2,9,-1
 620 268 l 1,10,-1
 225 -72 l 2,11,12
 182 -109 182 -109 131 -85.5 c 128,-1,13
 80 -62 80 -62 80 -5 c 2,14,-1
 80 814 l 2,15,16
 80 902 80 902 168 902 c 0,17,18
 201 901 201 901 225 880 c 2,19,-1
 620 541 l 1,20,-1
 620 814 l 2,21,22
 620 902 620 902 708 902 c 0,0,1
EndSplineSet
Validated: 33
EndChar

StartChar: eng
Encoding: 331 331 85
Width: 1359
GlyphClass: 2
Flags: W
LayerCount: 2
Fore
SplineSet
649.5 902 m 0,0,1
 740.5 905 740.5 905 740.5 814 c 2,2,-1
 740.5 542 l 1,3,-1
 1134.5 881 l 2,4,5
 1158.5 901 1158.5 901 1189.5 902 c 0,6,7
 1279.5 905 1279.5 905 1279.5 814 c 2,8,-1
 1279.5 -5 l 2,9,10
 1279.5 -61 1279.5 -61 1228.5 -84.5 c 128,-1,11
 1177.5 -108 1177.5 -108 1134.5 -71 c 2,12,-1
 740.5 268 l 1,13,-1
 740.5 -5 l 2,14,15
 740.5 -61 740.5 -61 689 -84.5 c 128,-1,16
 637.5 -108 637.5 -108 594.5 -71 c 2,17,-1
 118.5 338 l 2,18,19
 41.5 405 41.5 405 118.5 471 c 2,20,-1
 594.5 881 l 2,21,22
 618.5 901 618.5 901 649.5 902 c 0,0,1
EndSplineSet
Validated: 33
EndChar

StartChar: Omacron
Encoding: 332 332 86
Width: 1157
GlyphClass: 2
Flags: W
LayerCount: 2
Fore
SplineSet
577.348632812 903 m 0,0,1
 614.348632812 904 614.348632812 904 641.348632812 878 c 2,2,-1
 1050.34863281 472 l 2,3,4
 1092.34863281 431 1092.34863281 431 1069.84863281 376 c 128,-1,5
 1047.34863281 321 1047.34863281 321 988.348632812 321 c 2,6,-1
 169.348632812 321 l 2,7,8
 110.348632812 321 110.348632812 321 87.8486328125 376 c 128,-1,9
 65.3486328125 431 65.3486328125 431 107.348632812 472 c 2,10,-1
 517.348632812 878 l 2,11,12
 542.348632812 902 542.348632812 902 577.348632812 903 c 0,0,1
170.348632812 173 m 2,13,-1
 987.348632812 173 l 2,14,15
 1075.34863281 173 1075.34863281 173 1075.34863281 86 c 2,16,-1
 1075.34863281 -6 l 2,17,18
 1075.34863281 -94 1075.34863281 -94 987.348632812 -94 c 2,19,-1
 170.348632812 -94 l 2,20,21
 82.3486328125 -94 82.3486328125 -94 82.3486328125 -6 c 2,22,-1
 82.3486328125 86 l 2,23,24
 82.3486328125 173 82.3486328125 173 170.348632812 173 c 2,13,-1
EndSplineSet
Validated: 33
EndChar

StartChar: omacron
Encoding: 333 333 87
Width: 1625
GlyphClass: 2
Flags: W
LayerCount: 2
Fore
SplineSet
677 901 m 0,0,1
 789 904 789 904 789 792 c 2,2,-1
 789 17 l 2,3,4
 789 -57 789 -57 720 -84.5 c 128,-1,5
 651 -112 651 -112 600 -58 c 2,6,-1
 421 133 l 1,7,-1
 193 133 l 2,8,9
 80 133 80 133 80 246 c 2,10,-1
 80 563 l 2,11,12
 80 676 80 676 193 676 c 2,13,-1
 421 676 l 1,14,-1
 600 866 l 2,15,16
 631 900 631 900 677 901 c 0,0,1
1290 874 m 0,17,18
 1319 874 1319 874 1338 857 c 0,19,20
 1544 670 1544 670 1545 404 c 0,21,22
 1544 138 1544 138 1338 -48 c 0,23,24
 1319 -68 1319 -68 1291 -68 c 0,25,26
 1226 -68 1226 -68 1226 -2 c 0,27,28
 1226 29 1226 29 1250 49 c 0,29,30
 1413 197 1413 197 1413 404 c 0,31,32
 1413 612 1413 612 1250 760 c 0,33,34
 1228 779 1228 779 1228 809 c 0,35,36
 1228 871 1228 871 1290 874 c 0,17,18
1087 757 m 0,37,38
 1110 757 1110 757 1129 742 c 0,39,40
 1298 603 1298 603 1298 404.5 c 128,-1,41
 1298 206 1298 206 1129 67 c 0,42,43
 1111 54 1111 54 1089 54 c 0,44,45
 1023 54 1023 54 1023 120 c 0,46,47
 1023 149 1023 149 1045 169 c 0,48,49
 1167 268 1167 268 1167 404.5 c 128,-1,50
 1167 541 1167 541 1045 640 c 0,51,52
 1020 660 1020 660 1020 692 c 0,53,54
 1020 757 1020 757 1087 757 c 0,37,38
952 603 m 0,55,56
 981 603 981 603 1000 583 c 0,57,58
 1076 510 1076 510 1076 404 c 0,59,60
 1076 300 1076 300 1000 226 c 0,61,62
 981 207 981 207 954 207 c 0,63,64
 888 207 888 207 888 273 c 0,65,66
 888 300 888 300 908 320 c 0,67,68
 945 355 945 355 945 404 c 0,69,70
 945 455 945 455 908 490 c 0,71,72
 888 509 888 509 888 537 c 0,73,74
 888 602 888 602 952 603 c 0,55,56
EndSplineSet
Validated: 33
EndChar

StartChar: Obreve
Encoding: 334 334 88
Width: 1378
GlyphClass: 2
Flags: W
LayerCount: 2
Fore
SplineSet
677 901 m 0,0,1
 789 905 789 905 789 792 c 2,2,-1
 789 18 l 2,3,4
 789 -57 789 -57 720 -84 c 128,-1,5
 651 -111 651 -111 600 -57 c 2,6,-1
 421 133 l 1,7,-1
 193 133 l 2,8,9
 80 133 80 133 80 247 c 2,10,-1
 80 563 l 2,11,12
 80 676 80 676 193 676 c 2,13,-1
 421 676 l 1,14,-1
 600 867 l 2,15,16
 631 900 631 900 677 901 c 0,0,1
1086 758 m 0,17,18
 1110 758 1110 758 1129 742 c 0,19,20
 1298 604 1298 604 1298 405 c 128,-1,21
 1298 206 1298 206 1129 68 c 0,22,23
 1110 52 1110 52 1085 52 c 0,24,25
 1020 52 1020 52 1020 117 c 0,26,27
 1020 150 1020 150 1046 169 c 0,28,29
 1167 268 1167 268 1167 405 c 128,-1,30
 1167 542 1167 542 1046 641 c 0,31,32
 1020 660 1020 660 1020 692 c 0,33,34
 1020 758 1020 758 1086 758 c 0,17,18
952 603 m 0,35,36
 980 603 980 603 1000 584 c 0,37,38
 1076 510 1076 510 1076 405 c 128,-1,39
 1076 300 1076 300 1000 226 c 0,40,41
 980 206 980 206 952 206 c 0,42,43
 887 206 887 206 887 271 c 0,44,45
 887 301 887 301 908 320 c 0,46,47
 945 356 945 356 945 405 c 256,48,49
 945 454 945 454 908 490 c 0,50,51
 888 509 888 509 888 538 c 0,52,53
 888 602 888 602 952 603 c 0,35,36
EndSplineSet
Validated: 33
EndChar

StartChar: obreve
Encoding: 335 335 89
Width: 1156
GlyphClass: 2
Flags: W
LayerCount: 2
Fore
SplineSet
677 901 m 0,0,1
 789 904 789 904 790 792 c 2,2,-1
 790 18 l 2,3,4
 790 -57 790 -57 721 -84 c 128,-1,5
 652 -111 652 -111 601 -57 c 2,6,-1
 422 133 l 1,7,-1
 194 133 l 2,8,9
 80 134 80 134 80 246 c 2,10,-1
 80 563 l 2,11,12
 80 676 80 676 194 676 c 2,13,-1
 422 676 l 1,14,-1
 601 867 l 2,15,16
 632 900 632 900 677 901 c 0,0,1
953 603 m 0,17,18
 981 603 981 603 1000 584 c 0,19,20
 1076 509 1076 509 1076 405 c 1,21,-1
 1076 405 l 1,22,23
 1076 300 1076 300 1000 226 c 0,24,25
 981 207 981 207 954 207 c 0,26,27
 889 207 889 207 889 273 c 0,28,29
 889 300 889 300 909 320 c 0,30,31
 945 355 945 355 945 405 c 0,32,33
 945 454 945 454 909 490 c 0,34,35
 888 509 888 509 888 537 c 0,36,37
 888 603 888 603 953 603 c 0,17,18
EndSplineSet
Validated: 37
EndChar

StartChar: Ohungarumlaut
Encoding: 336 336 90
Width: 1501
GlyphClass: 2
Flags: W
LayerCount: 2
Fore
SplineSet
677 901 m 0,0,1
 790 904 790 904 790 792 c 2,2,-1
 790 17 l 2,3,4
 790 -57 790 -57 721 -84 c 128,-1,5
 652 -111 652 -111 601 -57 c 2,6,-1
 422 133 l 1,7,-1
 194 133 l 2,8,9
 80 133 80 133 80 246 c 2,10,-1
 80 563 l 2,11,12
 80 676 80 676 194 676 c 2,13,-1
 422 676 l 1,14,-1
 601 867 l 2,15,16
 632 900 632 900 677 901 c 0,0,1
1328 650 m 1,17,18
 1351 650 1351 650 1367 635 c 2,19,-1
 1406 596 l 2,20,21
 1421 581 1421 581 1421 559 c 128,-1,22
 1421 537 1421 537 1406 521 c 2,23,-1
 1289 404 l 1,24,-1
 1406 287 l 2,25,26
 1421 272 1421 272 1421 250 c 128,-1,27
 1421 228 1421 228 1406 212 c 2,28,-1
 1367 173 l 2,29,30
 1351 158 1351 158 1329.5 158 c 128,-1,31
 1308 158 1308 158 1292 173 c 2,32,-1
 1175 290 l 1,33,-1
 1058 173 l 2,34,35
 1042 158 1042 158 1020.5 158 c 128,-1,36
 999 158 999 158 983 173 c 2,37,-1
 944 212 l 2,38,39
 929 228 929 228 929 250 c 128,-1,40
 929 272 929 272 944 287 c 2,41,-1
 1061 404 l 1,42,-1
 944 521 l 2,43,44
 928 537 928 537 928 559 c 128,-1,45
 928 581 928 581 944 596 c 2,46,-1
 983 635 l 2,47,48
 998 651 998 651 1020 651 c 1,49,-1
 1175 518 l 1,50,-1
 1328 650 l 1,17,18
EndSplineSet
Validated: 33
EndChar

StartChar: ohungarumlaut
Encoding: 337 337 91
Width: 1454
GlyphClass: 2
Flags: W
LayerCount: 2
Fore
SplineSet
1007 899 m 0,0,1
 1027 899 1027 899 1042 888 c 2,2,-1
 1258 723 l 2,3,4
 1313 680 1313 680 1258 638 c 2,5,-1
 1042 473 l 2,6,7
 956 408 956 408 956 516 c 2,8,-1
 956 616 l 1,9,-1
 481 616 l 2,10,11
 317 616 317 616 262 563 c 0,12,13
 208 513 208 513 208 360 c 0,14,15
 208 295 208 295 144 295 c 128,-1,16
 80 295 80 295 80 359 c 0,17,18
 80 567 80 567 173 656 c 0,19,20
 265 745 265 745 481 745 c 2,21,-1
 956 745 l 1,22,-1
 956 845 l 2,23,24
 956 896 956 896 1007 899 c 0,0,1
1309 525 m 0,25,26
 1374 525 1374 525 1374 461 c 0,27,28
 1374 253 1374 253 1281 164 c 0,29,30
 1189 76 1189 76 973 76 c 2,31,-1
 498 76 l 1,32,-1
 498 -25 l 2,33,34
 498 -131 498 -131 412 -67 c 2,35,-1
 196 98 l 2,36,37
 141 140 141 140 196 183 c 2,38,-1
 412 348 l 2,39,40
 426 359 426 359 443 359 c 0,41,42
 498 361 498 361 498 305 c 2,43,-1
 498 204 l 1,44,-1
 973 204 l 2,45,46
 1137 204 1137 204 1192 257 c 0,47,48
 1245 308 1245 308 1245 460 c 0,49,50
 1245 524 1245 524 1309 525 c 0,25,26
EndSplineSet
Validated: 33
EndChar

StartChar: OE
Encoding: 338 338 92
Width: 1452
GlyphClass: 2
Flags: W
LayerCount: 2
Fore
SplineSet
599 899 m 0,0,1
 618 900 618 900 634 888 c 2,2,-1
 850 723 l 2,3,4
 905 681 905 681 850 638 c 2,5,-1
 634 473 l 2,6,7
 548 408 548 408 548 516 c 2,8,-1
 548 617 l 1,9,-1
 481 617 l 2,10,11
 317 617 317 617 262 564 c 0,12,13
 209 513 209 513 209 361 c 0,14,15
 209 296 209 296 144.5 296 c 128,-1,16
 80 296 80 296 80 360 c 0,17,18
 80 568 80 568 173 656 c 0,19,20
 265 745 265 745 481 745 c 2,21,-1
 548 745 l 1,22,-1
 548 845 l 2,23,24
 548 897 548 897 599 899 c 0,0,1
1171.5 867 m 128,-1,26
 1372 867 1372 867 1372 667 c 128,-1,27
 1372 467 1372 467 1171.5 467 c 128,-1,28
 971 467 971 467 971 667 c 128,-1,25
 971 867 971 867 1171.5 867 c 128,-1,26
1183 801 m 1,29,-1
 1101 753 l 2,30,31
 1089 745 1089 745 1089 730 c 0,32,33
 1089 704 1089 704 1115 704 c 1,34,-1
 1157 726 l 1,35,-1
 1157 559 l 2,36,37
 1157 532 1157 532 1183.5 532 c 128,-1,38
 1210 532 1210 532 1210 559 c 2,39,-1
 1210 775 l 2,40,41
 1210 801 1210 801 1183 801 c 1,29,-1
1291 375 m 0,42,43
 1357 375 1357 375 1357 311 c 1,44,45
 1319 171 1319 171 1198 118 c 0,46,47
 1113 81 1113 81 975 77 c 1,48,-1
 973 77 l 1,49,-1
 498 77 l 1,50,-1
 498 -24 l 2,51,52
 498 -131 498 -131 412 -66 c 2,53,-1
 196 98 l 2,54,55
 140 141 140 141 196 184 c 2,56,-1
 412 348 l 2,57,58
 426 359 426 359 443 359 c 0,59,60
 498 361 498 361 498 306 c 2,61,-1
 498 205 l 1,62,-1
 971 205 l 2,63,64
 1084 208 1084 208 1146 235 c 0,65,66
 1213 264 1213 264 1231 329 c 0,67,68
 1244 374 1244 374 1291 375 c 0,42,43
EndSplineSet
Validated: 33
EndChar

StartChar: oe
Encoding: 339 339 93
Width: 1700
GlyphClass: 2
Flags: W
LayerCount: 2
Fore
SplineSet
1329 900 m 0,0,1
 1349 900 1349 900 1365 888 c 2,2,-1
 1591 716 l 2,3,4
 1649 672 1649 672 1591 627 c 2,5,-1
 1365 455 l 2,6,7
 1275 386 1275 386 1275 499 c 2,8,-1
 1275 605 l 1,9,-1
 1087 605 l 2,10,11
 937 605 937 605 858 527 c 0,12,13
 802 473 802 473 802 418 c 0,14,15
 802 295 802 295 724 211 c 0,16,17
 611 89 611 89 356 87 c 2,18,-1
 355 87 l 1,19,-1
 150 87 l 2,20,21
 82 87 82 87 82 154 c 128,-1,22
 82 221 82 221 149 221 c 2,23,-1
 354 221 l 2,24,25
 552 222 552 222 626 302 c 0,26,27
 668 348 668 348 668 418 c 0,28,29
 668 530 668 530 764 623 c 0,30,31
 883 739 883 739 1087 739 c 2,32,-1
 1275 739 l 1,33,-1
 1275 844 l 2,34,35
 1275 897 1275 897 1329 900 c 0,0,1
148 736 m 2,36,-1
 353 736 l 1,37,-1
 354 736 l 2,38,39
 512 734 512 734 639 650 c 0,40,41
 667 630 667 630 667 596 c 0,42,43
 667 529 667 529 600 529 c 1,44,45
 470 601 470 601 352 602 c 2,46,-1
 148 602 l 2,47,48
 80 602 80 602 80 669 c 128,-1,49
 80 736 80 736 148 736 c 2,36,-1
1326 379 m 0,50,51
 1346 381 1346 381 1363 368 c 2,52,-1
 1588 196 l 2,53,54
 1647 152 1647 152 1588 107 c 2,55,-1
 1363 -65 l 2,56,57
 1273 -132 1273 -132 1273 -21 c 2,58,-1
 1273 84 l 1,59,-1
 1086 84 l 2,60,61
 972 82 972 82 843 163 c 0,62,63
 811 183 811 183 811 220 c 0,64,65
 811 285 811 285 876 287 c 0,66,67
 897 287 897 287 914 277 c 0,68,69
 1010 217 1010 217 1083 218 c 2,70,-1
 1084 218 l 1,71,-1
 1273 218 l 1,72,-1
 1273 324 l 2,73,74
 1273 377 1273 377 1326 379 c 0,50,51
EndSplineSet
Validated: 33
EndChar

StartChar: Racute
Encoding: 340 340 94
Width: 1033
GlyphClass: 2
Flags: W
LayerCount: 2
Fore
SplineSet
168 903 m 0,0,1
 191 902 191 902 210 891 c 2,2,-1
 910 487 l 2,3,4
 953 462 953 462 953 412 c 128,-1,5
 953 362 953 362 910 337 c 2,6,-1
 210 -67 l 2,7,8
 80 -142 80 -142 80 8 c 2,9,-1
 80 816 l 2,10,11
 80 905 80 905 168 903 c 0,0,1
EndSplineSet
Validated: 33
EndChar

StartChar: racute
Encoding: 341 341 95
Width: 1033
GlyphClass: 2
Flags: W
LayerCount: 2
Fore
SplineSet
175.5 895 m 6,0,-1
 319.5 895 l 6,1,2
 407.5 895 407.5 895 407.5 807 c 6,3,-1
 407.5 -8 l 6,4,5
 407.5 -96 407.5 -96 319.5 -96 c 6,6,-1
 175.5 -96 l 6,7,8
 87.5 -96 87.5 -96 87.5 -8 c 6,9,-1
 87.5 807 l 6,10,11
 87.5 895 87.5 895 175.5 895 c 6,0,-1
713.5 895 m 6,12,-1
 857.5 895 l 6,13,14
 945.5 895 945.5 895 945.5 807 c 6,15,-1
 945.5 -8 l 6,16,17
 945.5 -96 945.5 -96 857.5 -96 c 6,18,-1
 713.5 -96 l 6,19,20
 625.5 -96 625.5 -96 625.5 -8 c 6,21,-1
 625.5 807 l 6,22,23
 625.5 895 625.5 895 713.5 895 c 6,12,-1
EndSplineSet
Validated: 1
EndChar

StartChar: uni0156
Encoding: 342 342 96
Width: 1149
GlyphClass: 2
Flags: W
LayerCount: 2
Fore
SplineSet
171 896 m 2,0,-1
 978 896 l 2,1,2
 1069 896 1069 896 1069 805 c 2,3,-1
 1069 -2 l 2,4,5
 1069 -93 1069 -93 978 -93 c 2,6,-1
 171 -93 l 2,7,8
 80 -93 80 -93 80 -2 c 2,9,-1
 80 805 l 2,10,11
 80 896 80 896 171 896 c 2,0,-1
EndSplineSet
Validated: 1
EndChar

StartChar: uni0157
Encoding: 343 343 97
Width: 1183
GlyphClass: 2
Flags: W
LayerCount: 2
Fore
SplineSet
533 901 m 0,0,1
 565 900 565 900 589 880 c 2,2,-1
 1065 470 l 2,3,4
 1142 403 1142 403 1065 337 c 2,5,-1
 589 -73 l 2,6,7
 546 -109 546 -109 495 -85.5 c 128,-1,8
 444 -62 444 -62 444 -6 c 2,9,-1
 444 813 l 2,10,11
 444 901 444 901 533 901 c 0,0,1
168 900 m 2,12,-1
 271 900 l 2,13,14
 359 900 359 900 359 812 c 2,15,-1
 359 -5 l 2,16,17
 359 -93 359 -93 271 -93 c 2,18,-1
 168 -93 l 2,19,20
 80 -93 80 -93 80 -5 c 2,21,-1
 80 812 l 2,22,23
 80 900 80 900 168 900 c 2,12,-1
EndSplineSet
Validated: 33
EndChar

StartChar: Rcaron
Encoding: 344 344 98
Width: 1123
GlyphClass: 2
Flags: W
LayerCount: 2
Fore
SplineSet
169 902 m 0,0,1
 201 901 201 901 225 881 c 2,2,-1
 701 471 l 2,3,4
 778 405 778 405 701 338 c 2,5,-1
 225 -72 l 2,6,7
 182 -108 182 -108 131 -84.5 c 128,-1,8
 80 -61 80 -61 80 -5 c 2,9,-1
 80 814 l 2,10,11
 80 903 80 903 169 902 c 0,0,1
852 901 m 2,12,-1
 955 901 l 2,13,14
 1042 901 1042 901 1043 813 c 2,15,-1
 1043 -4 l 2,16,17
 1042 -92 1042 -92 955 -92 c 2,18,-1
 852 -92 l 2,19,20
 764 -92 764 -92 764 -4 c 2,21,-1
 764 813 l 2,22,23
 764 901 764 901 852 901 c 2,12,-1
EndSplineSet
Validated: 33
EndChar

StartChar: rcaron
Encoding: 345 345 99
Width: 1123
GlyphClass: 2
Flags: W
LayerCount: 2
Fore
SplineSet
952 903 m 0,0,1
 1043 906 1043 906 1043 815 c 2,2,-1
 1043 -4 l 2,3,4
 1043 -60 1043 -60 991.5 -83.5 c 128,-1,5
 940 -107 940 -107 898 -71 c 2,6,-1
 421 339 l 2,7,8
 344 406 344 406 421 472 c 2,9,-1
 898 882 l 2,10,11
 921 902 921 902 952 903 c 0,0,1
168 902 m 2,12,-1
 270 902 l 2,13,14
 358 902 358 902 358 814 c 2,15,-1
 358 -3 l 2,16,17
 358 -91 358 -91 270 -91 c 2,18,-1
 168 -91 l 2,19,20
 80 -91 80 -91 80 -3 c 2,21,-1
 80 814 l 2,22,23
 80 902 80 902 168 902 c 2,12,-1
EndSplineSet
Validated: 33
EndChar

StartChar: Sacute
Encoding: 346 346 100
Width: 1360
GlyphClass: 2
Flags: W
LayerCount: 2
Fore
SplineSet
708 902 m 0,0,1
 741 901 741 901 765 880 c 2,2,-1
 1241 471 l 2,3,4
 1319 405 1319 405 1241 338 c 2,5,-1
 765 -72 l 2,6,7
 722 -109 722 -109 671 -85 c 128,-1,8
 620 -61 620 -61 620 -5 c 2,9,-1
 620 268 l 1,10,-1
 225 -72 l 2,11,12
 182 -109 182 -109 131 -85.5 c 128,-1,13
 80 -62 80 -62 80 -5 c 2,14,-1
 80 814 l 2,15,16
 80 902 80 902 168 902 c 0,17,18
 201 901 201 901 225 880 c 2,19,-1
 620 541 l 1,20,-1
 620 814 l 2,21,22
 620 902 620 902 708 902 c 0,0,1
EndSplineSet
Validated: 33
EndChar

StartChar: sacute
Encoding: 347 347 101
Width: 1359
GlyphClass: 2
Flags: W
LayerCount: 2
Fore
SplineSet
649.5 902 m 0,0,1
 740.5 905 740.5 905 740.5 814 c 2,2,-1
 740.5 542 l 1,3,-1
 1134.5 881 l 2,4,5
 1158.5 901 1158.5 901 1189.5 902 c 0,6,7
 1279.5 905 1279.5 905 1279.5 814 c 2,8,-1
 1279.5 -5 l 2,9,10
 1279.5 -61 1279.5 -61 1228.5 -84.5 c 128,-1,11
 1177.5 -108 1177.5 -108 1134.5 -71 c 2,12,-1
 740.5 268 l 1,13,-1
 740.5 -5 l 2,14,15
 740.5 -61 740.5 -61 689 -84.5 c 128,-1,16
 637.5 -108 637.5 -108 594.5 -71 c 2,17,-1
 118.5 338 l 2,18,19
 41.5 405 41.5 405 118.5 471 c 2,20,-1
 594.5 881 l 2,21,22
 618.5 901 618.5 901 649.5 902 c 0,0,1
EndSplineSet
Validated: 33
EndChar

StartChar: Scircumflex
Encoding: 348 348 102
Width: 1157
GlyphClass: 2
Flags: W
LayerCount: 2
Fore
SplineSet
577.348632812 903 m 0,0,1
 614.348632812 904 614.348632812 904 641.348632812 878 c 2,2,-1
 1050.34863281 472 l 2,3,4
 1092.34863281 431 1092.34863281 431 1069.84863281 376 c 128,-1,5
 1047.34863281 321 1047.34863281 321 988.348632812 321 c 2,6,-1
 169.348632812 321 l 2,7,8
 110.348632812 321 110.348632812 321 87.8486328125 376 c 128,-1,9
 65.3486328125 431 65.3486328125 431 107.348632812 472 c 2,10,-1
 517.348632812 878 l 2,11,12
 542.348632812 902 542.348632812 902 577.348632812 903 c 0,0,1
170.348632812 173 m 2,13,-1
 987.348632812 173 l 2,14,15
 1075.34863281 173 1075.34863281 173 1075.34863281 86 c 2,16,-1
 1075.34863281 -6 l 2,17,18
 1075.34863281 -94 1075.34863281 -94 987.348632812 -94 c 2,19,-1
 170.348632812 -94 l 2,20,21
 82.3486328125 -94 82.3486328125 -94 82.3486328125 -6 c 2,22,-1
 82.3486328125 86 l 2,23,24
 82.3486328125 173 82.3486328125 173 170.348632812 173 c 2,13,-1
EndSplineSet
Validated: 33
EndChar

StartChar: scircumflex
Encoding: 349 349 103
Width: 1625
GlyphClass: 2
Flags: W
LayerCount: 2
Fore
SplineSet
677 901 m 0,0,1
 789 904 789 904 789 792 c 2,2,-1
 789 17 l 2,3,4
 789 -57 789 -57 720 -84.5 c 128,-1,5
 651 -112 651 -112 600 -58 c 2,6,-1
 421 133 l 1,7,-1
 193 133 l 2,8,9
 80 133 80 133 80 246 c 2,10,-1
 80 563 l 2,11,12
 80 676 80 676 193 676 c 2,13,-1
 421 676 l 1,14,-1
 600 866 l 2,15,16
 631 900 631 900 677 901 c 0,0,1
1290 874 m 0,17,18
 1319 874 1319 874 1338 857 c 0,19,20
 1544 670 1544 670 1545 404 c 0,21,22
 1544 138 1544 138 1338 -48 c 0,23,24
 1319 -68 1319 -68 1291 -68 c 0,25,26
 1226 -68 1226 -68 1226 -2 c 0,27,28
 1226 29 1226 29 1250 49 c 0,29,30
 1413 197 1413 197 1413 404 c 0,31,32
 1413 612 1413 612 1250 760 c 0,33,34
 1228 779 1228 779 1228 809 c 0,35,36
 1228 871 1228 871 1290 874 c 0,17,18
1087 757 m 0,37,38
 1110 757 1110 757 1129 742 c 0,39,40
 1298 603 1298 603 1298 404.5 c 128,-1,41
 1298 206 1298 206 1129 67 c 0,42,43
 1111 54 1111 54 1089 54 c 0,44,45
 1023 54 1023 54 1023 120 c 0,46,47
 1023 149 1023 149 1045 169 c 0,48,49
 1167 268 1167 268 1167 404.5 c 128,-1,50
 1167 541 1167 541 1045 640 c 0,51,52
 1020 660 1020 660 1020 692 c 0,53,54
 1020 757 1020 757 1087 757 c 0,37,38
952 603 m 0,55,56
 981 603 981 603 1000 583 c 0,57,58
 1076 510 1076 510 1076 404 c 0,59,60
 1076 300 1076 300 1000 226 c 0,61,62
 981 207 981 207 954 207 c 0,63,64
 888 207 888 207 888 273 c 0,65,66
 888 300 888 300 908 320 c 0,67,68
 945 355 945 355 945 404 c 0,69,70
 945 455 945 455 908 490 c 0,71,72
 888 509 888 509 888 537 c 0,73,74
 888 602 888 602 952 603 c 0,55,56
EndSplineSet
Validated: 33
EndChar

StartChar: Scedilla
Encoding: 350 350 104
Width: 1378
GlyphClass: 2
Flags: W
LayerCount: 2
Fore
SplineSet
677 901 m 0,0,1
 789 905 789 905 789 792 c 2,2,-1
 789 18 l 2,3,4
 789 -57 789 -57 720 -84 c 128,-1,5
 651 -111 651 -111 600 -57 c 2,6,-1
 421 133 l 1,7,-1
 193 133 l 2,8,9
 80 133 80 133 80 247 c 2,10,-1
 80 563 l 2,11,12
 80 676 80 676 193 676 c 2,13,-1
 421 676 l 1,14,-1
 600 867 l 2,15,16
 631 900 631 900 677 901 c 0,0,1
1086 758 m 0,17,18
 1110 758 1110 758 1129 742 c 0,19,20
 1298 604 1298 604 1298 405 c 128,-1,21
 1298 206 1298 206 1129 68 c 0,22,23
 1110 52 1110 52 1085 52 c 0,24,25
 1020 52 1020 52 1020 117 c 0,26,27
 1020 150 1020 150 1046 169 c 0,28,29
 1167 268 1167 268 1167 405 c 128,-1,30
 1167 542 1167 542 1046 641 c 0,31,32
 1020 660 1020 660 1020 692 c 0,33,34
 1020 758 1020 758 1086 758 c 0,17,18
952 603 m 0,35,36
 980 603 980 603 1000 584 c 0,37,38
 1076 510 1076 510 1076 405 c 128,-1,39
 1076 300 1076 300 1000 226 c 0,40,41
 980 206 980 206 952 206 c 0,42,43
 887 206 887 206 887 271 c 0,44,45
 887 301 887 301 908 320 c 0,46,47
 945 356 945 356 945 405 c 256,48,49
 945 454 945 454 908 490 c 0,50,51
 888 509 888 509 888 538 c 0,52,53
 888 602 888 602 952 603 c 0,35,36
EndSplineSet
Validated: 33
EndChar

StartChar: scedilla
Encoding: 351 351 105
Width: 1156
GlyphClass: 2
Flags: W
LayerCount: 2
Fore
SplineSet
677 901 m 0,0,1
 789 904 789 904 790 792 c 2,2,-1
 790 18 l 2,3,4
 790 -57 790 -57 721 -84 c 128,-1,5
 652 -111 652 -111 601 -57 c 2,6,-1
 422 133 l 1,7,-1
 194 133 l 2,8,9
 80 134 80 134 80 246 c 2,10,-1
 80 563 l 2,11,12
 80 676 80 676 194 676 c 2,13,-1
 422 676 l 1,14,-1
 601 867 l 2,15,16
 632 900 632 900 677 901 c 0,0,1
953 603 m 0,17,18
 981 603 981 603 1000 584 c 0,19,20
 1076 509 1076 509 1076 405 c 1,21,-1
 1076 405 l 1,22,23
 1076 300 1076 300 1000 226 c 0,24,25
 981 207 981 207 954 207 c 0,26,27
 889 207 889 207 889 273 c 0,28,29
 889 300 889 300 909 320 c 0,30,31
 945 355 945 355 945 405 c 0,32,33
 945 454 945 454 909 490 c 0,34,35
 888 509 888 509 888 537 c 0,36,37
 888 603 888 603 953 603 c 0,17,18
EndSplineSet
Validated: 37
EndChar

StartChar: Scaron
Encoding: 352 352 106
Width: 1501
GlyphClass: 2
Flags: W
LayerCount: 2
Fore
SplineSet
677 901 m 0,0,1
 790 904 790 904 790 792 c 2,2,-1
 790 17 l 2,3,4
 790 -57 790 -57 721 -84 c 128,-1,5
 652 -111 652 -111 601 -57 c 2,6,-1
 422 133 l 1,7,-1
 194 133 l 2,8,9
 80 133 80 133 80 246 c 2,10,-1
 80 563 l 2,11,12
 80 676 80 676 194 676 c 2,13,-1
 422 676 l 1,14,-1
 601 867 l 2,15,16
 632 900 632 900 677 901 c 0,0,1
1328 650 m 1,17,18
 1351 650 1351 650 1367 635 c 2,19,-1
 1406 596 l 2,20,21
 1421 581 1421 581 1421 559 c 128,-1,22
 1421 537 1421 537 1406 521 c 2,23,-1
 1289 404 l 1,24,-1
 1406 287 l 2,25,26
 1421 272 1421 272 1421 250 c 128,-1,27
 1421 228 1421 228 1406 212 c 2,28,-1
 1367 173 l 2,29,30
 1351 158 1351 158 1329.5 158 c 128,-1,31
 1308 158 1308 158 1292 173 c 2,32,-1
 1175 290 l 1,33,-1
 1058 173 l 2,34,35
 1042 158 1042 158 1020.5 158 c 128,-1,36
 999 158 999 158 983 173 c 2,37,-1
 944 212 l 2,38,39
 929 228 929 228 929 250 c 128,-1,40
 929 272 929 272 944 287 c 2,41,-1
 1061 404 l 1,42,-1
 944 521 l 2,43,44
 928 537 928 537 928 559 c 128,-1,45
 928 581 928 581 944 596 c 2,46,-1
 983 635 l 2,47,48
 998 651 998 651 1020 651 c 1,49,-1
 1175 518 l 1,50,-1
 1328 650 l 1,17,18
EndSplineSet
Validated: 33
EndChar

StartChar: scaron
Encoding: 353 353 107
Width: 1454
GlyphClass: 2
Flags: W
LayerCount: 2
Fore
SplineSet
1007 899 m 0,0,1
 1027 899 1027 899 1042 888 c 2,2,-1
 1258 723 l 2,3,4
 1313 680 1313 680 1258 638 c 2,5,-1
 1042 473 l 2,6,7
 956 408 956 408 956 516 c 2,8,-1
 956 616 l 1,9,-1
 481 616 l 2,10,11
 317 616 317 616 262 563 c 0,12,13
 208 513 208 513 208 360 c 0,14,15
 208 295 208 295 144 295 c 128,-1,16
 80 295 80 295 80 359 c 0,17,18
 80 567 80 567 173 656 c 0,19,20
 265 745 265 745 481 745 c 2,21,-1
 956 745 l 1,22,-1
 956 845 l 2,23,24
 956 896 956 896 1007 899 c 0,0,1
1309 525 m 0,25,26
 1374 525 1374 525 1374 461 c 0,27,28
 1374 253 1374 253 1281 164 c 0,29,30
 1189 76 1189 76 973 76 c 2,31,-1
 498 76 l 1,32,-1
 498 -25 l 2,33,34
 498 -131 498 -131 412 -67 c 2,35,-1
 196 98 l 2,36,37
 141 140 141 140 196 183 c 2,38,-1
 412 348 l 2,39,40
 426 359 426 359 443 359 c 0,41,42
 498 361 498 361 498 305 c 2,43,-1
 498 204 l 1,44,-1
 973 204 l 2,45,46
 1137 204 1137 204 1192 257 c 0,47,48
 1245 308 1245 308 1245 460 c 0,49,50
 1245 524 1245 524 1309 525 c 0,25,26
EndSplineSet
Validated: 33
EndChar

StartChar: uni0162
Encoding: 354 354 108
Width: 1452
GlyphClass: 2
Flags: W
LayerCount: 2
Fore
SplineSet
599 899 m 0,0,1
 618 900 618 900 634 888 c 2,2,-1
 850 723 l 2,3,4
 905 681 905 681 850 638 c 2,5,-1
 634 473 l 2,6,7
 548 408 548 408 548 516 c 2,8,-1
 548 617 l 1,9,-1
 481 617 l 2,10,11
 317 617 317 617 262 564 c 0,12,13
 209 513 209 513 209 361 c 0,14,15
 209 296 209 296 144.5 296 c 128,-1,16
 80 296 80 296 80 360 c 0,17,18
 80 568 80 568 173 656 c 0,19,20
 265 745 265 745 481 745 c 2,21,-1
 548 745 l 1,22,-1
 548 845 l 2,23,24
 548 897 548 897 599 899 c 0,0,1
1171.5 867 m 128,-1,26
 1372 867 1372 867 1372 667 c 128,-1,27
 1372 467 1372 467 1171.5 467 c 128,-1,28
 971 467 971 467 971 667 c 128,-1,25
 971 867 971 867 1171.5 867 c 128,-1,26
1183 801 m 1,29,-1
 1101 753 l 2,30,31
 1089 745 1089 745 1089 730 c 0,32,33
 1089 704 1089 704 1115 704 c 1,34,-1
 1157 726 l 1,35,-1
 1157 559 l 2,36,37
 1157 532 1157 532 1183.5 532 c 128,-1,38
 1210 532 1210 532 1210 559 c 2,39,-1
 1210 775 l 2,40,41
 1210 801 1210 801 1183 801 c 1,29,-1
1291 375 m 0,42,43
 1357 375 1357 375 1357 311 c 1,44,45
 1319 171 1319 171 1198 118 c 0,46,47
 1113 81 1113 81 975 77 c 1,48,-1
 973 77 l 1,49,-1
 498 77 l 1,50,-1
 498 -24 l 2,51,52
 498 -131 498 -131 412 -66 c 2,53,-1
 196 98 l 2,54,55
 140 141 140 141 196 184 c 2,56,-1
 412 348 l 2,57,58
 426 359 426 359 443 359 c 0,59,60
 498 361 498 361 498 306 c 2,61,-1
 498 205 l 1,62,-1
 971 205 l 2,63,64
 1084 208 1084 208 1146 235 c 0,65,66
 1213 264 1213 264 1231 329 c 0,67,68
 1244 374 1244 374 1291 375 c 0,42,43
EndSplineSet
Validated: 33
EndChar

StartChar: uni0163
Encoding: 355 355 109
Width: 1700
GlyphClass: 2
Flags: W
LayerCount: 2
Fore
SplineSet
1329 900 m 0,0,1
 1349 900 1349 900 1365 888 c 2,2,-1
 1591 716 l 2,3,4
 1649 672 1649 672 1591 627 c 2,5,-1
 1365 455 l 2,6,7
 1275 386 1275 386 1275 499 c 2,8,-1
 1275 605 l 1,9,-1
 1087 605 l 2,10,11
 937 605 937 605 858 527 c 0,12,13
 802 473 802 473 802 418 c 0,14,15
 802 295 802 295 724 211 c 0,16,17
 611 89 611 89 356 87 c 2,18,-1
 355 87 l 1,19,-1
 150 87 l 2,20,21
 82 87 82 87 82 154 c 128,-1,22
 82 221 82 221 149 221 c 2,23,-1
 354 221 l 2,24,25
 552 222 552 222 626 302 c 0,26,27
 668 348 668 348 668 418 c 0,28,29
 668 530 668 530 764 623 c 0,30,31
 883 739 883 739 1087 739 c 2,32,-1
 1275 739 l 1,33,-1
 1275 844 l 2,34,35
 1275 897 1275 897 1329 900 c 0,0,1
148 736 m 2,36,-1
 353 736 l 1,37,-1
 354 736 l 2,38,39
 512 734 512 734 639 650 c 0,40,41
 667 630 667 630 667 596 c 0,42,43
 667 529 667 529 600 529 c 1,44,45
 470 601 470 601 352 602 c 2,46,-1
 148 602 l 2,47,48
 80 602 80 602 80 669 c 128,-1,49
 80 736 80 736 148 736 c 2,36,-1
1326 379 m 0,50,51
 1346 381 1346 381 1363 368 c 2,52,-1
 1588 196 l 2,53,54
 1647 152 1647 152 1588 107 c 2,55,-1
 1363 -65 l 2,56,57
 1273 -132 1273 -132 1273 -21 c 2,58,-1
 1273 84 l 1,59,-1
 1086 84 l 2,60,61
 972 82 972 82 843 163 c 0,62,63
 811 183 811 183 811 220 c 0,64,65
 811 285 811 285 876 287 c 0,66,67
 897 287 897 287 914 277 c 0,68,69
 1010 217 1010 217 1083 218 c 2,70,-1
 1084 218 l 1,71,-1
 1273 218 l 1,72,-1
 1273 324 l 2,73,74
 1273 377 1273 377 1326 379 c 0,50,51
EndSplineSet
Validated: 33
EndChar

StartChar: Tcaron
Encoding: 356 356 110
Width: 1008
GlyphClass: 2
Flags: W
LayerCount: 2
Fore
SplineSet
637 805 m 0,0,1
 708 781 708 781 766 735 c 1,2,3
 746 710 746 710 706.5 659.5 c 128,-1,4
 667 609 667 609 648 584 c 1,5,6
 594 628 594 628 522.5 635.5 c 128,-1,7
 451 643 451 643 389 611 c 1,8,9
 346 696 346 696 303 782 c 1,10,11
 379 821 379 821 467.5 827 c 128,-1,12
 556 833 556 833 637 805 c 0,0,1
724 474 m 1,13,14
 785 495 785 495 906 535 c 1,15,16
 926 476 926 476 928 414 c 1,17,18
 862 412 862 412 737 408 c 1,19,20
 735 442 735 442 724 474 c 1,13,14
122 607 m 1,21,-1
 125 614 l 1,22,23
 149 601 149 601 205 568.5 c 128,-1,24
 261 536 261 536 292 519 c 1,25,26
 274 489 274 489 266 455 c 1,27,28
 124 490 124 490 80 501 c 1,29,30
 93 556 93 556 122 607 c 1,21,-1
660 222 m 2,31,-1
 663 225 l 1,32,33
 748 135 748 135 795 86 c 1,34,35
 750 43 750 43 694 15 c 1,36,37
 687 30 687 30 656 91 c 128,-1,38
 625 152 625 152 607 185 c 1,39,40
 637 200 637 200 660 222 c 2,31,-1
90 259 m 1,41,-1
 272 320 l 1,42,43
 293 255 293 255 350 210 c 128,-1,44
 407 165 407 165 475 160 c 1,45,46
 472 133 472 133 457 -31 c 1,47,48
 428 -28 428 -28 399 -22 c 0,49,50
 293 3 293 3 209 79 c 128,-1,51
 125 155 125 155 90 259 c 1,41,-1
EndSplineSet
Validated: 33
EndChar

StartChar: uni0186
Encoding: 390 390 111
Width: 1142
GlyphClass: 2
Flags: W
LayerCount: 2
Fore
SplineSet
571 -85 m 128,-1,1
 774 -85 774 -85 918 58.5 c 128,-1,2
 1062 202 1062 202 1062 405 c 128,-1,3
 1062 608 1062 608 918 752 c 128,-1,4
 774 896 774 896 571 896 c 128,-1,5
 368 896 368 896 224 752 c 128,-1,6
 80 608 80 608 80 405 c 128,-1,7
 80 202 80 202 224 58.5 c 128,-1,0
 368 -85 368 -85 571 -85 c 128,-1,1
EndSplineSet
Validated: 9
EndChar

StartChar: uni0187
Encoding: 391 391 112
Width: 1160
GlyphClass: 2
Flags: W
LayerCount: 2
Fore
SplineSet
580 905 m 128,-1,1
 716 905 716 905 831 838 c 128,-1,2
 946 771 946 771 1013 655.5 c 128,-1,3
 1080 540 1080 540 1080 404.5 c 128,-1,4
 1080 269 1080 269 1013 154 c 128,-1,5
 946 39 946 39 831 -28 c 128,-1,6
 716 -95 716 -95 580 -95 c 128,-1,7
 444 -95 444 -95 329 -28 c 128,-1,8
 214 39 214 39 147 154 c 128,-1,9
 80 269 80 269 80 404.5 c 128,-1,10
 80 540 80 540 147 655.5 c 128,-1,11
 214 771 214 771 329 838 c 128,-1,0
 444 905 444 905 580 905 c 128,-1,1
580 852 m 128,-1,13
 394 852 394 852 263 721 c 128,-1,14
 132 590 132 590 132 404.5 c 128,-1,15
 132 219 132 219 263 88 c 128,-1,16
 394 -43 394 -43 580 -43 c 128,-1,17
 766 -43 766 -43 897 88 c 128,-1,18
 1028 219 1028 219 1028 404.5 c 128,-1,19
 1028 590 1028 590 897 721 c 128,-1,12
 766 852 766 852 580 852 c 128,-1,13
580 797 m 128,-1,21
 742 797 742 797 857 682 c 128,-1,22
 972 567 972 567 972 405 c 128,-1,23
 972 243 972 243 857 128 c 128,-1,24
 742 13 742 13 580 13 c 128,-1,25
 418 13 418 13 303 128 c 128,-1,26
 188 243 188 243 188 405 c 128,-1,27
 188 567 188 567 303 682 c 128,-1,20
 418 797 418 797 580 797 c 128,-1,21
580 774 m 128,-1,29
 427 774 427 774 319 666 c 128,-1,30
 211 558 211 558 211 405 c 128,-1,31
 211 252 211 252 319 144 c 128,-1,32
 427 36 427 36 580 36 c 128,-1,33
 733 36 733 36 841 144 c 128,-1,34
 949 252 949 252 949 405 c 128,-1,35
 949 558 949 558 841 666 c 128,-1,28
 733 774 733 774 580 774 c 128,-1,29
EndSplineSet
Validated: 1
EndChar

StartChar: uni0188
Encoding: 392 392 113
Width: 1148
GlyphClass: 2
Flags: W
LayerCount: 2
Fore
SplineSet
574 899 m 128,-1,1
 778 899 778 899 923 754 c 128,-1,2
 1068 609 1068 609 1068 405 c 128,-1,3
 1068 201 1068 201 923 56 c 128,-1,4
 778 -89 778 -89 574 -89 c 128,-1,5
 370 -89 370 -89 225 56 c 128,-1,6
 80 201 80 201 80 405 c 128,-1,7
 80 609 80 609 225 754 c 128,-1,0
 370 899 370 899 574 899 c 128,-1,1
574 772 m 128,-1,9
 421 772 421 772 314 665 c 128,-1,10
 207 558 207 558 207 405 c 128,-1,11
 207 252 207 252 314 145 c 128,-1,12
 421 38 421 38 574 38 c 128,-1,13
 727 38 727 38 834 145 c 128,-1,14
 941 252 941 252 941 405 c 128,-1,15
 941 558 941 558 834 665 c 128,-1,8
 727 772 727 772 574 772 c 128,-1,9
EndSplineSet
Validated: 1
EndChar

StartChar: uni0189
Encoding: 393 393 114
Width: 1154
GlyphClass: 2
Flags: W
LayerCount: 2
Fore
SplineSet
577 899 m 128,-1,1
 782 899 782 899 928 753.5 c 128,-1,2
 1074 608 1074 608 1074 402.5 c 128,-1,3
 1074 197 1074 197 928 51.5 c 128,-1,4
 782 -94 782 -94 577 -94 c 128,-1,5
 372 -94 372 -94 226 51.5 c 128,-1,6
 80 197 80 197 80 402.5 c 128,-1,7
 80 608 80 608 226 753.5 c 128,-1,0
 372 899 372 899 577 899 c 128,-1,1
577 847 m 128,-1,9
 393 847 393 847 262.5 717 c 128,-1,10
 132 587 132 587 132 402.5 c 128,-1,11
 132 218 132 218 262.5 88 c 128,-1,12
 393 -42 393 -42 577 -42 c 128,-1,13
 761 -42 761 -42 891.5 88 c 128,-1,14
 1022 218 1022 218 1022 402.5 c 128,-1,15
 1022 587 1022 587 891.5 717 c 128,-1,8
 761 847 761 847 577 847 c 128,-1,9
EndSplineSet
Validated: 1
EndChar

StartChar: uni018A
Encoding: 394 394 115
Width: 1135
GlyphClass: 2
Flags: W
LayerCount: 2
Fore
SplineSet
751.5 852 m 0,0,1
 755.5 852 755.5 852 762 850.5 c 128,-1,2
 768.5 849 768.5 849 771.5 848 c 0,3,4
 864.5 807 864.5 807 937.5 722 c 1,5,6
 977.5 685 977.5 685 946.5 648 c 0,7,8
 933.5 632 933.5 632 911 630.5 c 128,-1,9
 888.5 629 888.5 629 873.5 644 c 0,10,11
 809.5 719 809.5 719 742.5 752 c 1,12,13
 693.5 769 693.5 769 704.5 814 c 0,14,15
 713.5 849 713.5 849 751.5 852 c 0,0,1
559.5 896 m 0,16,17
 599.5 894 599.5 894 607.5 856 c 0,18,19
 612.5 836 612.5 836 599.5 817.5 c 128,-1,20
 586.5 799 586.5 799 565.5 797 c 0,21,22
 466.5 793 466.5 793 397.5 759 c 1,23,24
 352.5 732 352.5 732 327.5 772 c 0,25,26
 314.5 788 314.5 788 319 810 c 128,-1,27
 323.5 832 323.5 832 342.5 843 c 0,28,29
 439.5 894 439.5 894 559.5 896 c 0,16,17
991.5 551 m 1,30,31
 1030.5 549 1030.5 549 1040.5 517 c 0,32,33
 1067.5 422 1067.5 422 1045.5 306 c 0,34,35
 1043.5 284 1043.5 284 1028 268 c 128,-1,36
 1012.5 252 1012.5 252 991.5 253 c 0,37,38
 971.5 254 971.5 254 957 270 c 128,-1,39
 942.5 286 942.5 286 944.5 306 c 0,40,41
 956.5 394 956.5 394 954.5 421 c 0,42,43
 955.5 435 955.5 435 950 465 c 128,-1,44
 944.5 495 944.5 495 945.5 511 c 0,45,46
 953.5 546 953.5 546 991.5 551 c 1,30,31
209.5 725 m 0,47,48
 211.5 724 211.5 724 221 723 c 128,-1,49
 230.5 722 230.5 722 234.5 719 c 0,50,51
 253.5 710 253.5 710 260 688.5 c 128,-1,52
 266.5 667 266.5 667 254.5 649 c 0,53,54
 197.5 570 197.5 570 180.5 495 c 1,55,56
 174.5 445 174.5 445 129.5 446 c 0,57,58
 107.5 446 107.5 446 92.5 463 c 128,-1,59
 77.5 480 77.5 480 80.5 501 c 0,60,61
 91.5 572 91.5 572 138.5 655 c 0,62,63
 141.5 658 141.5 658 152 675 c 128,-1,64
 162.5 692 162.5 692 168 699 c 128,-1,65
 173.5 706 173.5 706 185 714.5 c 128,-1,66
 196.5 723 196.5 723 209.5 725 c 0,47,48
911.5 186 m 0,67,68
 912.5 186 912.5 186 923.5 184.5 c 128,-1,69
 934.5 183 934.5 183 938.5 180 c 0,70,71
 957.5 170 957.5 170 963 148 c 128,-1,72
 968.5 126 968.5 126 957.5 109 c 0,73,74
 898.5 26 898.5 26 800.5 -29 c 1,75,76
 755.5 -61 755.5 -61 725.5 -22 c 0,77,78
 712.5 -7 712.5 -7 715.5 15 c 128,-1,79
 718.5 37 718.5 37 735.5 48 c 0,80,81
 813.5 96 813.5 96 840.5 126 c 0,82,83
 848.5 132 848.5 132 860.5 148 c 128,-1,84
 872.5 164 872.5 164 884.5 174 c 128,-1,85
 896.5 184 896.5 184 911.5 186 c 0,67,68
129.5 347 m 1,86,87
 168.5 346 168.5 346 179.5 312 c 0,88,89
 203.5 223 203.5 223 251.5 162 c 1,90,91
 289.5 125 289.5 125 259.5 90 c 0,92,93
 246.5 74 246.5 74 225 72 c 128,-1,94
 203.5 70 203.5 70 188.5 84 c 0,95,96
 145.5 127 145.5 127 108.5 212 c 1,97,98
 81.5 288 81.5 288 83.5 308 c 0,99,100
 91.5 343 91.5 343 129.5 347 c 1,86,87
571.5 10 m 0,101,102
 612.5 9 612.5 9 620.5 -29 c 0,103,104
 625.5 -50 625.5 -50 612.5 -68.5 c 128,-1,105
 599.5 -87 599.5 -87 578.5 -89 c 0,106,107
 479.5 -96 479.5 -96 371.5 -52 c 1,108,109
 319.5 -37 319.5 -37 330.5 10 c 0,110,111
 334.5 31 334.5 31 354 42.5 c 128,-1,112
 373.5 54 373.5 54 393.5 47 c 0,113,114
 490.5 7 490.5 7 571.5 10 c 0,101,102
EndSplineSet
Validated: 33
EndChar

StartChar: uni018B
Encoding: 395 395 116
Width: 1154
GlyphClass: 2
Flags: W
LayerCount: 2
Fore
SplineSet
760.799804688 858 m 0,0,1
 762.799804688 857 762.799804688 857 765.299804688 857 c 128,-1,2
 767.799804688 857 767.799804688 857 768.799804688 857 c 0,3,4
 792.799804688 852 792.799804688 852 858.799804688 812 c 0,5,6
 862.799804688 808 862.799804688 808 875.799804688 799.5 c 128,-1,7
 888.799804688 791 888.799804688 791 896.799804688 783 c 128,-1,8
 904.799804688 775 904.799804688 775 908.799804688 765 c 0,9,10
 916.799804688 749 916.799804688 749 904.299804688 734 c 128,-1,11
 891.799804688 719 891.799804688 719 873.799804688 721 c 1,12,13
 858.799804688 727 858.799804688 727 835.799804688 745.5 c 128,-1,14
 812.799804688 764 812.799804688 764 800.799804688 769 c 0,15,16
 793.799804688 775 793.799804688 775 771.799804688 785 c 128,-1,17
 749.799804688 795 749.799804688 795 740.799804688 805 c 0,18,19
 728.799804688 819 728.799804688 819 736.299804688 836.5 c 128,-1,20
 743.799804688 854 743.799804688 854 760.799804688 858 c 0,0,1
642.799804688 894 m 0,21,22
 652.799804688 892 652.799804688 892 657.799804688 886 c 0,23,24
 672.799804688 876 672.799804688 876 670.799804688 857.5 c 128,-1,25
 668.799804688 839 668.799804688 839 652.799804688 831 c 0,26,27
 639.799804688 827 639.799804688 827 608.299804688 830 c 128,-1,28
 576.799804688 833 576.799804688 833 563.799804688 831 c 0,29,30
 555.799804688 832 555.799804688 832 527.799804688 828 c 128,-1,31
 499.799804688 824 499.799804688 824 492.799804688 830 c 0,32,33
 472.799804688 837 472.799804688 837 473.799804688 860.5 c 128,-1,34
 474.799804688 884 474.799804688 884 495.799804688 889 c 0,35,36
 553.799804688 904 553.799804688 904 642.799804688 894 c 0,21,22
960.799804688 687 m 1,37,38
 983.799804688 684 983.799804688 684 987.799804688 679 c 0,39,40
 1003.79980469 662 1003.79980469 662 1035.79980469 596 c 1,41,42
 1054.79980469 533 1054.79980469 533 1052.79980469 525 c 0,43,44
 1049.79980469 505 1049.79980469 505 1025.79980469 502.5 c 128,-1,45
 1001.79980469 500 1001.79980469 500 993.799804688 520 c 0,46,47
 961.799804688 603 961.799804688 603 940.799804688 633 c 0,48,49
 929.799804688 648 929.799804688 648 936.299804688 666 c 128,-1,50
 942.799804688 684 942.799804688 684 960.799804688 687 c 1,37,38
373.799804688 852 m 0,51,52
 376.799804688 852 376.799804688 852 380.799804688 852 c 0,53,54
 398.799804688 852 398.799804688 852 407.799804688 835 c 128,-1,55
 416.799804688 818 416.799804688 818 407.799804688 802 c 1,56,57
 395.799804688 791 395.799804688 791 368.299804688 776.5 c 128,-1,58
 340.799804688 762 340.799804688 762 330.799804688 753 c 0,59,60
 327.799804688 751 327.799804688 751 303.799804688 731.5 c 128,-1,61
 279.799804688 712 279.799804688 712 262.799804688 714 c 0,62,63
 244.799804688 717 244.799804688 717 238.299804688 736 c 128,-1,64
 231.799804688 755 231.799804688 755 244.799804688 769 c 0,65,66
 303.799804688 824 303.799804688 824 373.799804688 852 c 0,51,52
1036.79980469 436 m 1,67,68
 1068.79980469 437 1068.79980469 437 1072.79980469 412 c 0,69,70
 1077.79980469 389 1077.79980469 389 1068.79980469 317 c 1,71,72
 1051.79980469 254 1051.79980469 254 1046.79980469 249 c 0,73,74
 1032.79980469 233 1032.79980469 233 1010.79980469 242.5 c 128,-1,75
 988.799804688 252 988.799804688 252 991.799804688 273 c 0,76,77
 1008.79980469 379 1008.79980469 379 1008.79980469 387 c 0,78,79
 1003.79980469 428 1003.79980469 428 1036.79980469 436 c 1,67,68
176.799804688 677 m 0,80,81
 211.799804688 680 211.799804688 680 216.799804688 646 c 1,82,83
 213.799804688 630 213.799804688 630 198.799804688 603.5 c 128,-1,84
 183.799804688 577 183.799804688 577 179.799804688 565 c 0,85,86
 175.799804688 557 175.799804688 557 169.299804688 533.5 c 128,-1,87
 162.799804688 510 162.799804688 510 153.799804688 501 c 0,88,89
 141.799804688 485 141.799804688 485 119.799804688 492.5 c 128,-1,90
 97.7998046875 500 97.7998046875 500 98.7998046875 520 c 0,91,92
 99.7998046875 541 99.7998046875 541 127.799804688 611 c 0,93,94
 129.799804688 615 129.799804688 615 138.799804688 634.5 c 128,-1,95
 147.799804688 654 147.799804688 654 156.299804688 663.5 c 128,-1,96
 164.799804688 673 164.799804688 673 176.799804688 677 c 0,80,81
970.799804688 195 m 0,97,98
 986.799804688 197 986.799804688 197 999.799804688 184.5 c 128,-1,99
 1012.79980469 172 1012.79980469 172 1007.79980469 156 c 0,100,101
 999.799804688 132 999.799804688 132 951.799804688 72 c 0,102,103
 946.799804688 68 946.799804688 68 937.299804688 56.5 c 128,-1,104
 927.799804688 45 927.799804688 45 919.299804688 38 c 128,-1,105
 910.799804688 31 910.799804688 31 900.799804688 28 c 0,106,107
 882.799804688 23 882.799804688 23 869.799804688 37 c 128,-1,108
 856.799804688 51 856.799804688 51 860.799804688 68 c 0,109,110
 867.799804688 82 867.799804688 82 888.799804688 102.5 c 128,-1,111
 909.799804688 123 909.799804688 123 916.799804688 134 c 0,112,113
 920.799804688 139 920.799804688 139 937.299804688 164.5 c 128,-1,114
 953.799804688 190 953.799804688 190 970.799804688 195 c 0,97,98
108.799804688 424 m 1,115,116
 128.799804688 424 128.799804688 424 141.799804688 410 c 1,117,118
 147.799804688 394 147.799804688 394 149.799804688 364 c 128,-1,119
 151.799804688 334 151.799804688 334 154.799804688 321 c 0,120,121
 155.799804688 313 155.799804688 313 162.799804688 289 c 128,-1,122
 169.799804688 265 169.799804688 265 166.799804688 251 c 0,123,124
 162.799804688 231 162.799804688 231 138.799804688 228.5 c 128,-1,125
 114.799804688 226 114.799804688 226 106.799804688 246 c 0,126,127
 87.7998046875 292 87.7998046875 292 81.7998046875 374 c 1,128,129
 72.7998046875 416 72.7998046875 416 108.799804688 424 c 1,115,116
776.799804688 17 m 1,130,-1
 786.799804688 16 l 2,131,132
 808.799804688 16 808.799804688 16 814.799804688 -7 c 128,-1,133
 820.799804688 -30 820.799804688 -30 802.799804688 -41 c 0,134,135
 774.799804688 -60 774.799804688 -60 705.799804688 -80 c 1,136,137
 643.799804688 -92 643.799804688 -92 632.799804688 -77 c 0,138,139
 619.799804688 -63 619.799804688 -63 626.799804688 -45.5 c 128,-1,140
 633.799804688 -28 633.799804688 -28 650.799804688 -24 c 0,141,142
 699.799804688 -17 699.799804688 -17 776.799804688 17 c 1,130,-1
187.799804688 174 m 1,143,-1
 206.799804688 171 l 1,144,145
 219.799804688 161 219.799804688 161 238.299804688 136.5 c 128,-1,146
 256.799804688 112 256.799804688 112 266.799804688 103 c 0,147,148
 268.799804688 100 268.799804688 100 291.799804688 79.5 c 128,-1,149
 314.799804688 59 314.799804688 59 315.799804688 42 c 0,150,151
 315.799804688 23 315.799804688 23 297.799804688 14 c 128,-1,152
 279.799804688 5 279.799804688 5 264.799804688 16 c 0,153,154
 214.799804688 53 214.799804688 53 168.799804688 119 c 0,155,156
 156.799804688 133 156.799804688 133 163.299804688 151.5 c 128,-1,157
 169.799804688 170 169.799804688 170 187.799804688 174 c 1,143,-1
528.799804688 -27 m 0,158,159
 537.799804688 -29 537.799804688 -29 542.799804688 -34 c 0,160,161
 561.799804688 -45 561.799804688 -45 555.799804688 -68 c 128,-1,162
 549.799804688 -91 549.799804688 -91 528.799804688 -92 c 0,163,164
 504.799804688 -94 504.799804688 -94 433.799804688 -75 c 1,165,166
 374.799804688 -50 374.799804688 -50 369.799804688 -44 c 0,167,168
 356.799804688 -28 356.799804688 -28 369.799804688 -8.5 c 128,-1,169
 382.799804688 11 382.799804688 11 403.799804688 5 c 0,170,171
 489.799804688 -24 489.799804688 -24 528.799804688 -27 c 0,158,159
EndSplineSet
Validated: 33
EndChar

StartChar: uni018C
Encoding: 396 396 117
Width: 1155
GlyphClass: 2
Flags: W
LayerCount: 2
Fore
SplineSet
752.166992188 798 m 1,0,-1
 779.166992188 859 l 1,1,2
 812.166992188 845 812.166992188 845 842.166992188 826 c 1,3,4
 836.166992188 816 836.166992188 816 824.166992188 797.5 c 128,-1,5
 812.166992188 779 812.166992188 779 806.166992188 770 c 1,6,7
 780.166992188 786 780.166992188 786 752.166992188 798 c 1,0,-1
701.166992188 886 m 2,8,-1
 712.166992188 884 l 1,9,-1
 694.166992188 819 l 1,10,11
 663.166992188 828 663.166992188 828 633.166992188 832 c 1,12,13
 635.166992188 843 635.166992188 843 638.166992188 865 c 128,-1,14
 641.166992188 887 641.166992188 887 642.166992188 898 c 1,15,16
 671.166992188 894 671.166992188 894 701.166992188 886 c 2,8,-1
856.166992188 733 m 1,17,-1
 900.166992188 783 l 1,18,19
 927.166992188 761 927.166992188 761 950.166992188 734 c 1,20,21
 942.166992188 727 942.166992188 727 925.666992188 712 c 128,-1,22
 909.166992188 697 909.166992188 697 901.166992188 689 c 1,23,24
 880.166992188 713 880.166992188 713 856.166992188 733 c 1,17,-1
566.166992188 902 m 2,25,-1
 568.166992188 902 l 1,26,-1
 571.166992188 902 l 1,27,28
 571.166992188 869 571.166992188 869 572.166992188 835 c 1,29,30
 541.166992188 835 541.166992188 835 510.166992188 830 c 1,31,32
 509.166992188 841 509.166992188 841 505.666992188 863 c 128,-1,33
 502.166992188 885 502.166992188 885 500.166992188 896 c 1,34,35
 532.166992188 901 532.166992188 901 566.166992188 902 c 2,25,-1
938.166992188 640 m 1,36,-1
 993.166992188 677 l 1,37,38
 1013.16699219 647 1013.16699219 647 1028.16699219 615 c 1,39,-1
 968.166992188 586 l 1,40,41
 955.166992188 614 955.166992188 614 938.166992188 640 c 1,36,-1
425.166992188 878 m 0,42,43
 427.166992188 879 427.166992188 879 430.166992188 880 c 1,44,45
 434.166992188 868 434.166992188 868 440.666992188 846.5 c 128,-1,46
 447.166992188 825 447.166992188 825 450.166992188 816 c 1,47,48
 421.166992188 807 421.166992188 807 393.166992188 794 c 1,49,50
 378.166992188 824 378.166992188 824 364.166992188 854 c 1,51,52
 393.166992188 868 393.166992188 868 425.166992188 878 c 0,42,43
990.166992188 529 m 1,53,54
 1022.16699219 538 1022.16699219 538 1053.16699219 548 c 1,55,56
 1064.16699219 514 1064.16699219 514 1069.16699219 479 c 1,57,58
 1022.16699219 471 1022.16699219 471 1003.16699219 468 c 1,59,60
 999.166992188 499 999.166992188 499 990.166992188 529 c 1,53,54
296.166992188 815 m 0,61,62
 297.166992188 816 297.166992188 816 299.166992188 817 c 128,-1,63
 301.166992188 818 301.166992188 818 302.166992188 819 c 1,64,65
 320.166992188 791 320.166992188 791 339.166992188 763 c 1,66,67
 313.166992188 746 313.166992188 746 290.166992188 726 c 1,68,-1
 245.166992188 775 l 1,69,70
 269.166992188 796 269.166992188 796 296.166992188 815 c 0,61,62
1008.16699219 407 m 1,71,72
 1019.16699219 407 1019.16699219 407 1041.66699219 407.5 c 128,-1,73
 1064.16699219 408 1064.16699219 408 1075.16699219 408 c 1,74,75
 1075.16699219 372 1075.16699219 372 1070.16699219 336 c 1,76,77
 1059.16699219 338 1059.16699219 338 1037.16699219 341 c 128,-1,78
 1015.16699219 344 1015.16699219 344 1004.16699219 345 c 1,79,80
 1008.16699219 376 1008.16699219 376 1008.16699219 407 c 1,71,72
190.166992188 717 m 0,81,82
 191.166992188 718 191.166992188 718 193.166992188 720.5 c 128,-1,83
 195.166992188 723 195.166992188 723 196.166992188 724 c 2,84,-1
 247.166992188 681 l 1,85,86
 228.166992188 658 228.166992188 658 211.166992188 632 c 1,87,88
 200.166992188 638 200.166992188 638 180.166992188 650 c 128,-1,89
 160.166992188 662 160.166992188 662 154.166992188 666 c 1,90,91
 170.166992188 692 170.166992188 692 190.166992188 717 c 0,81,82
991.166992188 285 m 1,92,-1
 1033.16699219 273 l 1,93,94
 1064.16699219 271 1064.16699219 271 1048.16699219 245 c 1,95,96
 1051.16699219 231 1051.16699219 231 1018.16699219 243 c 1,97,98
 1053.16699219 234 1053.16699219 234 1036.16699219 213 c 1,99,-1
 975.166992188 239 l 1,100,101
 984.166992188 261 984.166992188 261 991.166992188 285 c 1,92,-1
120.166992188 600 m 1,102,-1
 120.166992188 601 l 1,103,-1
 182.166992188 576 l 1,104,105
 170.166992188 548 170.166992188 548 162.166992188 518 c 1,106,107
 151.166992188 521 151.166992188 521 129.666992188 527 c 128,-1,108
 108.166992188 533 108.166992188 533 98.1669921875 536 c 1,109,110
 106.166992188 568 106.166992188 568 120.166992188 600 c 1,102,-1
943.166992188 177 m 0,111,112
 947.166992188 183 947.166992188 183 947.166992188 184 c 1,113,114
 953.166992188 180 953.166992188 180 973.166992188 168 c 128,-1,115
 993.166992188 156 993.166992188 156 1004.16699219 149 c 1,116,117
 987.166992188 120 987.166992188 120 964.166992188 92 c 1,118,119
 954.166992188 97 954.166992188 97 935.666992188 113.5 c 128,-1,120
 917.166992188 130 917.166992188 130 912.166992188 133 c 1,121,122
 929.166992188 154 929.166992188 154 943.166992188 177 c 0,111,112
84.1669921875 465 m 1,123,124
 95.1669921875 464 95.1669921875 464 117.166992188 461.5 c 128,-1,125
 139.166992188 459 139.166992188 459 150.166992188 458 c 1,126,127
 146.166992188 427 146.166992188 427 147.166992188 396 c 1,128,129
 135.166992188 395 135.166992188 395 113.166992188 395 c 128,-1,130
 91.1669921875 395 91.1669921875 395 80.1669921875 395 c 1,131,132
 79.1669921875 430 79.1669921875 430 84.1669921875 465 c 1,123,124
862.166992188 82 m 0,133,134
 864.166992188 83 864.166992188 83 866.166992188 85 c 2,135,-1
 914.166992188 39 l 1,136,137
 888.166992188 15 888.166992188 15 859.166992188 -5 c 1,138,139
 853.166992188 4 853.166992188 4 840.166992188 22 c 128,-1,140
 827.166992188 40 827.166992188 40 821.166992188 49 c 1,141,142
 843.166992188 64 843.166992188 64 862.166992188 82 c 0,133,134
87.1669921875 324 m 1,143,144
 98.1669921875 326 98.1669921875 326 120.166992188 329.5 c 128,-1,145
 142.166992188 333 142.166992188 333 152.166992188 334 c 1,146,147
 157.166992188 303 157.166992188 303 167.166992188 274 c 1,148,-1
 103.166992188 254 l 1,149,150
 92.1669921875 288 92.1669921875 288 87.1669921875 324 c 1,143,144
768.166992188 18 m 1,151,152
 773.166992188 8 773.166992188 8 783.166992188 -12 c 128,-1,153
 793.166992188 -32 793.166992188 -32 798.166992188 -41 c 1,154,155
 766.166992188 -57 766.166992188 -57 732.166992188 -68 c 1,156,-1
 710.166992188 -5 l 1,157,158
 740.166992188 5 740.166992188 5 768.166992188 18 c 1,151,152
130.166992188 188 m 1,159,160
 160.166992188 203 160.166992188 203 190.166992188 217 c 1,161,162
 203.166992188 189 203.166992188 189 221.166992188 163 c 1,163,164
 211.166992188 157 211.166992188 157 192.166992188 144.5 c 128,-1,165
 173.166992188 132 173.166992188 132 165.166992188 126 c 1,166,167
 145.166992188 156 145.166992188 156 130.166992188 188 c 1,159,160
650.166992188 -20 m 1,168,169
 653.166992188 -32 653.166992188 -32 657.166992188 -56 c 128,-1,170
 661.166992188 -80 661.166992188 -80 662.166992188 -85 c 1,171,172
 627.166992188 -92 627.166992188 -92 591.166992188 -93 c 1,173,174
 591.166992188 -81 591.166992188 -81 590.166992188 -59 c 128,-1,175
 589.166992188 -37 589.166992188 -37 589.166992188 -26 c 1,176,177
 619.166992188 -25 619.166992188 -25 650.166992188 -20 c 1,168,169
209.166992188 70 m 1,178,-1
 259.166992188 115 l 1,179,180
 280.166992188 92 280.166992188 92 303.166992188 72 c 1,181,182
 296.166992188 64 296.166992188 64 282.166992188 47 c 128,-1,183
 268.166992188 30 268.166992188 30 261.166992188 21 c 1,184,185
 234.166992188 43 234.166992188 43 209.166992188 70 c 1,178,-1
524.166992188 -23 m 1,186,-1
 527.166992188 -23 l 1,187,188
 522.166992188 -70 522.166992188 -70 520.166992188 -89 c 1,189,190
 484.166992188 -85 484.166992188 -85 450.166992188 -76 c 1,191,-1
 467.166992188 -12 l 1,192,193
 494.166992188 -19 494.166992188 -19 524.166992188 -23 c 1,186,-1
319.166992188 -20 m 1,194,195
 336.166992188 8 336.166992188 8 353.166992188 37 c 1,196,197
 379.166992188 21 379.166992188 21 408.166992188 9 c 1,198,199
 404.166992188 -2 404.166992188 -2 395.166992188 -23.5 c 128,-1,200
 386.166992188 -45 386.166992188 -45 383.166992188 -53 c 1,201,202
 349.166992188 -39 349.166992188 -39 319.166992188 -20 c 1,194,195
EndSplineSet
Validated: 37
EndChar

StartChar: uni018D
Encoding: 397 397 118
Width: 1148
GlyphClass: 2
Flags: W
LayerCount: 2
Fore
SplineSet
574 896 m 128,-1,1
 779 896 779 896 923.5 751.5 c 128,-1,2
 1068 607 1068 607 1068 402.5 c 128,-1,3
 1068 198 1068 198 923.5 53 c 128,-1,4
 779 -92 779 -92 574 -92 c 128,-1,5
 369 -92 369 -92 224.5 53 c 128,-1,6
 80 198 80 198 80 402.5 c 128,-1,7
 80 607 80 607 224.5 751.5 c 128,-1,0
 369 896 369 896 574 896 c 128,-1,1
639 853 m 1,8,-1
 123 337 l 1,9,10
 131 280 131 280 153 227 c 1,11,-1
 750 823 l 1,12,13
 696 845 696 845 639 853 c 1,8,-1
456 843 m 1,14,15
 351 814 351 814 256.5 720 c 128,-1,16
 162 626 162 626 134 521 c 1,17,-1
 456 843 l 1,14,15
858 759 m 1,18,-1
 217 118 l 1,19,20
 248 79 248 79 287 47 c 1,21,-1
 929 689 l 1,22,23
 897 728 897 728 858 759 c 1,18,-1
994 581 m 1,24,-1
 394 -18 l 1,25,26
 447 -40 447 -40 504 -49 c 1,27,-1
 1025 472 l 1,28,29
 1016 529 1016 529 994 581 c 1,24,-1
1017 291 m 1,30,-1
 685 -41 l 1,31,32
 795 -14 795 -14 892 83.5 c 128,-1,33
 989 181 989 181 1017 291 c 1,30,-1
EndSplineSet
Validated: 1
EndChar

StartChar: uni018E
Encoding: 398 398 119
Width: 1156
GlyphClass: 2
Flags: W
LayerCount: 2
Fore
SplineSet
650 902 m 1,0,1
 713 893 713 893 772 869 c 1,2,-1
 114 210 l 1,3,4
 89 269 89 269 80 332 c 1,5,-1
 650 902 l 1,0,1
448 890 m 1,6,-1
 93 535 l 1,7,8
 124 651 124 651 228 755 c 128,-1,9
 332 859 332 859 448 890 c 1,6,-1
892 798 m 1,10,11
 935 764 935 764 970 721 c 1,12,-1
 262 12 l 1,13,14
 219 47 219 47 184 90 c 1,15,-1
 892 798 l 1,10,11
1042 602 m 1,16,17
 1067 544 1067 544 1076 481 c 1,18,-1
 501 -94 l 1,19,20
 439 -84 439 -84 380 -59 c 1,21,-1
 1042 602 l 1,16,17
1067 282 m 1,22,23
 1037 160 1037 160 929.5 52.5 c 128,-1,24
 822 -55 822 -55 701 -85 c 1,25,-1
 1067 282 l 1,22,23
EndSplineSet
Validated: 1
EndChar

StartChar: uni018F
Encoding: 399 399 120
Width: 1153
GlyphClass: 2
Flags: W
LayerCount: 2
Fore
SplineSet
253.692382812 898 m 0,0,1
 254.692382812 898 254.692382812 898 257.692382812 898.5 c 128,-1,2
 260.692382812 899 260.692382812 899 261.692382812 900 c 0,3,4
 267.692382812 899 267.692382812 899 285.692382812 900 c 128,-1,5
 303.692382812 901 303.692382812 901 316.192382812 900 c 128,-1,6
 328.692382812 899 328.692382812 899 338.692382812 893 c 0,7,8
 358.692382812 884 358.692382812 884 364.192382812 861.5 c 128,-1,9
 369.692382812 839 369.692382812 839 357.692382812 821 c 0,10,11
 353.692382812 816 353.692382812 816 349.192382812 811.5 c 128,-1,12
 344.692382812 807 344.692382812 807 337.692382812 804.5 c 128,-1,13
 330.692382812 802 330.692382812 802 327.192382812 800.5 c 128,-1,14
 323.692382812 799 323.692382812 799 314.192382812 798.5 c 128,-1,15
 304.692382812 798 304.692382812 798 301.692382812 798 c 128,-1,16
 298.692382812 798 298.692382812 798 287.692382812 798 c 128,-1,17
 276.692382812 798 276.692382812 798 275.692382812 798 c 0,18,19
 242.692382812 803 242.692382812 803 214.192382812 781 c 128,-1,20
 185.692382812 759 185.692382812 759 182.692382812 726 c 0,21,22
 182.692382812 674 182.692382812 674 160.692382812 660 c 0,23,24
 143.692382812 647 143.692382812 647 121.192382812 652 c 128,-1,25
 98.6923828125 657 98.6923828125 657 87.6923828125 676 c 0,26,27
 71.6923828125 714 71.6923828125 714 90.6923828125 776 c 0,28,29
 107.692382812 828 107.692382812 828 153.692382812 863.5 c 128,-1,30
 199.692382812 899 199.692382812 899 253.692382812 898 c 0,0,1
496.692382812 895 m 0,31,32
 499.692382812 896 499.692382812 896 505.192382812 897 c 128,-1,33
 510.692382812 898 510.692382812 898 513.692382812 899 c 0,34,35
 531.692382812 901 531.692382812 901 611.692382812 900.5 c 128,-1,36
 691.692382812 900 691.692382812 900 708.692382812 900 c 0,37,38
 730.692382812 903 730.692382812 903 749.192382812 891.5 c 128,-1,39
 767.692382812 880 767.692382812 880 772.692382812 860 c 0,40,41
 776.692382812 839 776.692382812 839 763.192382812 820 c 128,-1,42
 749.692382812 801 749.692382812 801 728.692382812 800 c 0,43,44
 710.692382812 798 710.692382812 798 630.692382812 798.5 c 128,-1,45
 550.692382812 799 550.692382812 799 533.692382812 798 c 0,46,47
 511.692382812 795 511.692382812 795 493.192382812 806.5 c 128,-1,48
 474.692382812 818 474.692382812 818 470.692382812 839 c 0,49,50
 462.692382812 874 462.692382812 874 496.692382812 895 c 0,31,32
895.692382812 884 m 0,51,52
 906.692382812 889 906.692382812 889 916.692382812 894 c 1,53,54
 969.692382812 896 969.692382812 896 1022.69238281 843 c 0,55,56
 1082.69238281 782 1082.69238281 782 1071.69238281 679 c 0,57,58
 1070.69238281 657 1070.69238281 657 1050.69238281 643 c 128,-1,59
 1030.69238281 629 1030.69238281 629 1008.69238281 635 c 0,60,61
 989.692382812 639 989.692382812 639 979.192382812 657 c 128,-1,62
 968.692382812 675 968.692382812 675 970.692382812 695 c 0,63,64
 978.692382812 759 978.692382812 759 932.692382812 786 c 0,65,66
 927.692382812 788 927.692382812 788 917.692382812 792.5 c 128,-1,67
 907.692382812 797 907.692382812 797 901.692382812 800.5 c 128,-1,68
 895.692382812 804 895.692382812 804 889.192382812 810 c 128,-1,69
 882.692382812 816 882.692382812 816 880.692382812 824 c 0,70,71
 865.692382812 858 865.692382812 858 895.692382812 884 c 0,51,52
116.692382812 546 m 1,72,-1
 117.692382812 546 l 1,73,-1
 120.692382812 546 l 1,74,75
 141.692382812 551 141.692382812 551 160.692382812 537.5 c 128,-1,76
 179.692382812 524 179.692382812 524 181.692382812 502 c 0,77,78
 182.692382812 485 182.692382812 485 182.692382812 405 c 128,-1,79
 182.692382812 325 182.692382812 325 182.692382812 307 c 0,80,81
 185.692382812 286 185.692382812 286 174.192382812 267 c 128,-1,82
 162.692382812 248 162.692382812 248 142.692382812 244 c 0,83,84
 120.692382812 239 120.692382812 239 102.192382812 252.5 c 128,-1,85
 83.6923828125 266 83.6923828125 266 81.6923828125 288 c 0,86,87
 79.6923828125 305 79.6923828125 305 80.1923828125 385 c 128,-1,88
 80.6923828125 465 80.6923828125 465 80.6923828125 483 c 0,89,90
 77.6923828125 503 77.6923828125 503 87.6923828125 521 c 128,-1,91
 97.6923828125 539 97.6923828125 539 116.692382812 546 c 1,72,-1
1007.69238281 528 m 1,92,-1
 1008.69238281 528 l 1,93,-1
 1010.69238281 529 l 1,94,95
 1032.69238281 533 1032.69238281 533 1051.19238281 519.5 c 128,-1,96
 1069.69238281 506 1069.69238281 506 1071.69238281 485 c 0,97,98
 1073.69238281 467 1073.69238281 467 1073.19238281 387 c 128,-1,99
 1072.69238281 307 1072.69238281 307 1072.69238281 290 c 0,100,101
 1075.69238281 268 1075.69238281 268 1064.19238281 249.5 c 128,-1,102
 1052.69238281 231 1052.69238281 231 1032.69238281 227 c 0,103,104
 1011.69238281 222 1011.69238281 222 992.692382812 235.5 c 128,-1,105
 973.692382812 249 973.692382812 249 971.692382812 270 c 0,106,107
 970.692382812 288 970.692382812 288 970.692382812 368 c 128,-1,108
 970.692382812 448 970.692382812 448 970.692382812 465 c 0,109,110
 967.692382812 486 967.692382812 486 978.192382812 504 c 128,-1,111
 988.692382812 522 988.692382812 522 1007.69238281 528 c 1,92,-1
115.692382812 138 m 0,112,113
 116.692382812 138 116.692382812 138 119.192382812 138 c 128,-1,114
 121.692382812 138 121.692382812 138 122.692382812 138 c 0,115,116
 143.692382812 143 143.692382812 143 162.192382812 129 c 128,-1,117
 180.692382812 115 180.692382812 115 181.692382812 93 c 0,118,119
 181.692382812 61 181.692382812 61 204.192382812 36.5 c 128,-1,120
 226.692382812 12 226.692382812 12 258.692382812 10 c 0,121,122
 281.692382812 11 281.692382812 11 298.692382812 -7 c 128,-1,123
 315.692382812 -25 315.692382812 -25 311.692382812 -48 c 0,124,125
 308.692382812 -67 308.692382812 -67 293.692382812 -79.5 c 128,-1,126
 278.692382812 -92 278.692382812 -92 258.692382812 -92 c 0,127,128
 191.692382812 -91 191.692382812 -91 139.192382812 -42 c 128,-1,129
 86.6923828125 7 86.6923828125 7 81.6923828125 75 c 0,130,131
 77.6923828125 94 77.6923828125 94 87.1923828125 112.5 c 128,-1,132
 96.6923828125 131 96.6923828125 131 115.692382812 138 c 0,112,113
990.692382812 113 m 0,133,134
 1019.69238281 129 1019.69238281 129 1040.69238281 117 c 0,135,136
 1061.69238281 109 1061.69238281 109 1068.19238281 85 c 128,-1,137
 1074.69238281 61 1074.69238281 61 1065.69238281 41 c 0,138,139
 1048.69238281 -22 1048.69238281 -22 991.692382812 -60.5 c 128,-1,140
 934.692382812 -99 934.692382812 -99 869.692382812 -91 c 0,141,142
 847.692382812 -90 847.692382812 -90 833.692382812 -71.5 c 128,-1,143
 819.692382812 -53 819.692382812 -53 823.692382812 -31 c 0,144,145
 833.692382812 7 833.692382812 7 873.692382812 10 c 1,146,147
 901.692382812 7 901.692382812 7 927.192382812 20 c 128,-1,148
 952.692382812 33 952.692382812 33 963.692382812 58 c 0,149,150
 965.692382812 63 965.692382812 63 968.192382812 72.5 c 128,-1,151
 970.692382812 82 970.692382812 82 972.692382812 88 c 128,-1,152
 974.692382812 94 974.692382812 94 979.192382812 101 c 128,-1,153
 983.692382812 108 983.692382812 108 990.692382812 113 c 0,133,134
442.692382812 5 m 0,154,155
 445.692382812 5 445.692382812 5 451.692382812 6.5 c 128,-1,156
 457.692382812 8 457.692382812 8 460.692382812 9 c 0,157,158
 477.692382812 11 477.692382812 11 557.692382812 10.5 c 128,-1,159
 637.692382812 10 637.692382812 10 655.692382812 10 c 0,160,161
 676.692382812 13 676.692382812 13 695.692382812 1.5 c 128,-1,162
 714.692382812 -10 714.692382812 -10 718.692382812 -30 c 0,163,164
 723.692382812 -51 723.692382812 -51 710.192382812 -70 c 128,-1,165
 696.692382812 -89 696.692382812 -89 675.692382812 -91 c 0,166,167
 657.692382812 -92 657.692382812 -92 577.692382812 -92 c 128,-1,168
 497.692382812 -92 497.692382812 -92 479.692382812 -92 c 0,169,170
 458.692382812 -95 458.692382812 -95 439.692382812 -83.5 c 128,-1,171
 420.692382812 -72 420.692382812 -72 416.692382812 -52 c 0,172,173
 408.692382812 -16 408.692382812 -16 442.692382812 5 c 0,154,155
EndSplineSet
Validated: 33
EndChar

StartChar: uni0190
Encoding: 400 400 121
Width: 1152
GlyphClass: 2
Flags: W
LayerCount: 2
Fore
SplineSet
107 -88 m 0,0,1
 87 -78 87 -78 83.5 -55 c 128,-1,2
 80 -32 80 -32 80 86 c 2,3,-1
 80 225 l 1,4,-1
 226 225 l 1,5,-1
 226 51 l 1,6,-1
 400 51 l 1,7,-1
 400 -95 l 1,8,-1
 261 -95 l 2,9,10
 121 -95 121 -95 107 -88 c 0,0,1
752 51 m 1,11,-1
 926 51 l 1,12,-1
 926 225 l 1,13,-1
 1072 225 l 1,14,-1
 1072 86 l 2,15,16
 1072 -54 1072 -54 1065 -68 c 0,17,18
 1055 -88 1055 -88 1031.5 -91.5 c 128,-1,19
 1008 -95 1008 -95 891 -95 c 2,20,-1
 752 -95 l 1,21,-1
 752 51 l 1,11,-1
80 720 m 2,22,23
 80 860 80 860 87 873 c 0,24,25
 97 894 97 894 120 897.5 c 128,-1,26
 143 901 143 901 261 901 c 2,27,-1
 400 901 l 1,28,-1
 400 755 l 1,29,-1
 226 755 l 1,30,-1
 226 581 l 1,31,-1
 80 581 l 1,32,-1
 80 720 l 2,22,23
926 755 m 1,33,-1
 752 755 l 1,34,-1
 752 901 l 1,35,-1
 891 901 l 2,36,37
 1031 901 1031 901 1044 894 c 0,38,39
 1065 884 1065 884 1068.5 860.5 c 128,-1,40
 1072 837 1072 837 1072 720 c 2,41,-1
 1072 581 l 1,42,-1
 926 581 l 1,43,-1
 926 755 l 1,33,-1
EndSplineSet
Validated: 1
EndChar

StartChar: uni0191
Encoding: 401 401 122
Width: 1151
GlyphClass: 2
Flags: W
LayerCount: 2
Fore
SplineSet
118 -90 m 0,0,1
 91 -82 91 -82 84 -55 c 0,2,3
 80 -41 80 -41 80 28 c 2,4,-1
 80 97 l 1,5,-1
 170 97 l 1,6,-1
 170 -4 l 1,7,-1
 271 -4 l 1,8,-1
 271 -94 l 1,9,-1
 200 -93 l 2,10,11
 129 -93 129 -93 118 -90 c 0,0,1
474 -4 m 1,12,-1
 677 -4 l 1,13,-1
 677 -94 l 1,14,-1
 474 -94 l 1,15,-1
 474 -4 l 1,12,-1
880 -4 m 1,16,-1
 981 -4 l 1,17,-1
 981 98 l 1,18,-1
 1071 98 l 1,19,-1
 1071 25 l 2,20,21
 1071 -65 1071 -65 1046 -83 c 0,22,23
 1034 -92 1034 -92 957 -93 c 2,24,-1
 880 -94 l 1,25,-1
 880 -4 l 1,16,-1
80 503 m 1,26,-1
 170 503 l 1,27,-1
 170 304 l 1,28,-1
 80 304 l 1,29,-1
 80 503 l 1,26,-1
981 503 m 1,30,-1
 1071 503 l 1,31,-1
 1071 304 l 1,32,-1
 981 304 l 1,33,-1
 981 503 l 1,30,-1
80 780 m 2,34,35
 80 873 80 873 105 890 c 0,36,37
 117 899 117 899 194 900 c 2,38,-1
 271 902 l 1,39,-1
 271 811 l 1,40,-1
 170 811 l 1,41,-1
 170 761 l 1,42,-1
 170 710 l 1,43,-1
 80 710 l 1,44,-1
 80 780 l 2,34,35
981 761 m 1,45,-1
 981 811 l 1,46,-1
 880 811 l 1,47,-1
 880 902 l 1,48,-1
 957 900 l 2,49,50
 1041 899 1041 899 1055 885.5 c 128,-1,51
 1069 872 1069 872 1070 787 c 2,52,-1
 1071 710 l 1,53,-1
 981 710 l 1,54,-1
 981 761 l 1,45,-1
474 901 m 1,55,-1
 677 901 l 1,56,-1
 677 811 l 1,57,-1
 474 811 l 1,58,-1
 474 901 l 1,55,-1
EndSplineSet
Validated: 1
EndChar

StartChar: florin
Encoding: 402 402 123
Width: 1148
GlyphClass: 2
Flags: W
LayerCount: 2
Fore
SplineSet
120 -87 m 0,0,1
 80 -75 80 -75 80 3 c 2,2,-1
 80 42 l 1,3,-1
 111 42 l 1,4,-1
 142 42 l 1,5,-1
 142 6 l 1,6,-1
 142 -29 l 1,7,-1
 177 -29 l 1,8,-1
 212 -29 l 1,9,-1
 212 -60 l 1,10,-1
 212 -91 l 1,11,-1
 172 -91 l 2,12,13
 132 -90 132 -90 120 -87 c 0,0,1
358 -60 m 1,14,-1
 358 -29 l 1,15,-1
 428 -29 l 1,16,-1
 499 -29 l 1,17,-1
 499 -60 l 1,18,-1
 499 -91 l 1,19,-1
 428 -91 l 1,20,-1
 358 -91 l 1,21,-1
 358 -60 l 1,14,-1
648 -60 m 1,22,-1
 648 -29 l 1,23,-1
 718 -29 l 1,24,-1
 789 -29 l 1,25,-1
 789 -60 l 1,26,-1
 789 -91 l 1,27,-1
 718 -91 l 1,28,-1
 648 -91 l 1,29,-1
 648 -60 l 1,22,-1
934 -60 m 1,30,-1
 934 -29 l 1,31,-1
 969 -29 l 1,32,-1
 1004 -29 l 1,33,-1
 1004 6 l 1,34,-1
 1004 42 l 1,35,-1
 1036 42 l 1,36,-1
 1067 42 l 1,37,-1
 1067 0 l 2,38,39
 1067 -61 1067 -61 1040 -80 c 0,40,41
 1027 -89 1027 -89 981 -90 c 2,42,-1
 934 -92 l 1,43,-1
 934 -60 l 1,30,-1
80 261 m 1,44,-1
 80 332 l 1,45,-1
 111 332 l 1,46,-1
 142 332 l 1,47,-1
 142 261 l 1,48,-1
 142 191 l 1,49,-1
 111 191 l 1,50,-1
 80 191 l 1,51,-1
 80 261 l 1,44,-1
1004 261 m 1,52,-1
 1004 332 l 1,53,-1
 1036 332 l 1,54,-1
 1067 332 l 1,55,-1
 1067 261 l 1,56,-1
 1067 191 l 1,57,-1
 1036 191 l 1,58,-1
 1004 191 l 1,59,-1
 1004 261 l 1,52,-1
80 547 m 1,60,-1
 80 618 l 1,61,-1
 111 618 l 1,62,-1
 142 618 l 1,63,-1
 142 547 l 1,64,-1
 142 477 l 1,65,-1
 111 477 l 1,66,-1
 80 477 l 1,67,-1
 80 547 l 1,60,-1
1004 547 m 1,68,-1
 1004 618 l 1,69,-1
 1036 618 l 1,70,-1
 1067 618 l 1,71,-1
 1067 547 l 1,72,-1
 1067 477 l 1,73,-1
 1036 477 l 1,74,-1
 1004 477 l 1,75,-1
 1004 547 l 1,68,-1
80 807 m 2,76,77
 80 870 80 870 106 889 c 0,78,79
 119 898 119 898 166 899 c 2,80,-1
 212 901 l 1,81,-1
 212 869 l 1,82,-1
 212 838 l 1,83,-1
 177 838 l 1,84,-1
 142 838 l 1,85,-1
 142 803 l 1,86,-1
 142 767 l 1,87,-1
 111 767 l 1,88,-1
 80 767 l 1,89,-1
 80 807 l 2,76,77
1004 803 m 1,90,-1
 1004 838 l 1,91,-1
 969 838 l 1,92,-1
 934 838 l 1,93,-1
 934 869 l 1,94,-1
 934 901 l 1,95,-1
 981 899 l 2,96,97
 1035 898 1035 898 1049.5 883.5 c 128,-1,98
 1064 869 1064 869 1066 814 c 2,99,-1
 1068 767 l 1,100,-1
 1036 767 l 1,101,-1
 1004 767 l 1,102,-1
 1004 803 l 1,90,-1
358 869 m 1,103,-1
 358 900 l 1,104,-1
 428 900 l 1,105,-1
 498 900 l 1,106,-1
 498 869 l 1,107,-1
 498 838 l 1,108,-1
 428 838 l 1,109,-1
 358 838 l 1,110,-1
 358 869 l 1,103,-1
648 869 m 1,111,-1
 648 900 l 1,112,-1
 718 900 l 1,113,-1
 789 900 l 1,114,-1
 789 869 l 1,115,-1
 789 838 l 1,116,-1
 718 838 l 1,117,-1
 648 838 l 1,118,-1
 648 869 l 1,111,-1
EndSplineSet
Validated: 1
EndChar

StartChar: uni0193
Encoding: 403 403 124
Width: 1150
GlyphClass: 2
Flags: W
LayerCount: 2
Fore
SplineSet
123 -86 m 0,0,1
 80 -73 80 -73 80 -10 c 2,2,-1
 80 11 l 1,3,-1
 95 11 l 1,4,-1
 111 11 l 1,5,-1
 111 -15 l 2,6,7
 111 -60 111 -60 156 -60 c 2,8,-1
 182 -60 l 1,9,-1
 182 -75 l 1,10,-1
 182 -91 l 1,11,-1
 159 -90 l 2,12,13
 135 -90 135 -90 123 -86 c 0,0,1
275 -75 m 1,14,-1
 275 -60 l 1,15,-1
 315 -60 l 1,16,-1
 355 -60 l 1,17,-1
 355 -75 l 1,18,-1
 355 -91 l 1,19,-1
 315 -91 l 1,20,-1
 275 -91 l 1,21,-1
 275 -75 l 1,14,-1
448 -75 m 1,22,-1
 448 -60 l 1,23,-1
 488 -60 l 1,24,-1
 528 -60 l 1,25,-1
 528 -75 l 1,26,-1
 528 -91 l 1,27,-1
 488 -91 l 1,28,-1
 448 -91 l 1,29,-1
 448 -75 l 1,22,-1
621 -75 m 1,30,-1
 621 -60 l 1,31,-1
 661 -60 l 1,32,-1
 701 -60 l 1,33,-1
 701 -75 l 1,34,-1
 701 -91 l 1,35,-1
 661 -91 l 1,36,-1
 621 -91 l 1,37,-1
 621 -75 l 1,30,-1
794 -75 m 1,38,-1
 794 -60 l 1,39,-1
 834 -60 l 1,40,-1
 874 -60 l 1,41,-1
 874 -75 l 1,42,-1
 874 -91 l 1,43,-1
 834 -91 l 1,44,-1
 794 -91 l 1,45,-1
 794 -75 l 1,38,-1
967 -75 m 1,46,-1
 967 -60 l 1,47,-1
 993 -60 l 2,48,49
 1020 -60 1020 -60 1029 -51 c 128,-1,50
 1038 -42 1038 -42 1038 -15 c 2,51,-1
 1038 11 l 1,52,-1
 1054 11 l 1,53,-1
 1070 11 l 1,54,-1
 1068 -19 l 2,55,56
 1064 -91 1064 -91 992 -91 c 2,57,-1
 967 -91 l 1,58,-1
 967 -75 l 1,46,-1
80 144 m 1,59,-1
 80 184 l 1,60,-1
 95 184 l 1,61,-1
 111 184 l 1,62,-1
 111 144 l 1,63,-1
 111 104 l 1,64,-1
 95 104 l 1,65,-1
 80 104 l 1,66,-1
 80 144 l 1,59,-1
1038 144 m 1,67,-1
 1038 184 l 1,68,-1
 1053 184 l 1,69,-1
 1069 184 l 1,70,-1
 1069 144 l 1,71,-1
 1069 104 l 1,72,-1
 1053 104 l 1,73,-1
 1038 104 l 1,74,-1
 1038 144 l 1,67,-1
80 317 m 1,75,-1
 80 357 l 1,76,-1
 95 357 l 1,77,-1
 111 357 l 1,78,-1
 111 317 l 1,79,-1
 111 277 l 1,80,-1
 95 277 l 1,81,-1
 80 277 l 1,82,-1
 80 317 l 1,75,-1
1038 317 m 1,83,-1
 1038 357 l 1,84,-1
 1053 357 l 1,85,-1
 1069 357 l 1,86,-1
 1069 317 l 1,87,-1
 1069 277 l 1,88,-1
 1053 277 l 1,89,-1
 1038 277 l 1,90,-1
 1038 317 l 1,83,-1
80 490 m 1,91,-1
 80 530 l 1,92,-1
 95 530 l 1,93,-1
 111 530 l 1,94,-1
 111 490 l 1,95,-1
 111 450 l 1,96,-1
 95 450 l 1,97,-1
 80 450 l 1,98,-1
 80 490 l 1,91,-1
1038 490 m 1,99,-1
 1038 530 l 1,100,-1
 1053 530 l 1,101,-1
 1069 530 l 1,102,-1
 1069 490 l 1,103,-1
 1069 450 l 1,104,-1
 1053 450 l 1,105,-1
 1038 450 l 1,106,-1
 1038 490 l 1,99,-1
80 663 m 1,107,-1
 80 703 l 1,108,-1
 95 703 l 1,109,-1
 111 703 l 1,110,-1
 111 663 l 1,111,-1
 111 623 l 1,112,-1
 95 623 l 1,113,-1
 80 623 l 1,114,-1
 80 663 l 1,107,-1
1038 663 m 1,115,-1
 1038 703 l 1,116,-1
 1053 703 l 1,117,-1
 1069 703 l 1,118,-1
 1069 663 l 1,119,-1
 1069 623 l 1,120,-1
 1053 623 l 1,121,-1
 1038 623 l 1,122,-1
 1038 663 l 1,115,-1
80 818 m 2,123,124
 80 840 80 840 87 858 c 0,125,126
 101 893 101 893 151 897 c 2,127,-1
 182 899 l 1,128,-1
 182 883 l 1,129,-1
 182 867 l 1,130,-1
 155 867 l 2,131,132
 129 867 129 867 120 858 c 128,-1,133
 111 849 111 849 111 823 c 2,134,-1
 111 796 l 1,135,-1
 95 796 l 1,136,-1
 80 796 l 1,137,-1
 80 818 l 2,123,124
1038 823 m 2,138,139
 1038 867 1038 867 993 867 c 2,140,-1
 967 867 l 1,141,-1
 967 883 l 1,142,-1
 967 899 l 1,143,-1
 998 897 l 2,144,145
 1063 892 1063 892 1068 827 c 2,146,-1
 1070 796 l 1,147,-1
 1054 796 l 1,148,-1
 1038 796 l 1,149,-1
 1038 823 l 2,138,139
275 882 m 1,150,-1
 275 898 l 1,151,-1
 315 898 l 1,152,-1
 355 898 l 1,153,-1
 355 882 l 1,154,-1
 355 867 l 1,155,-1
 315 867 l 1,156,-1
 275 867 l 1,157,-1
 275 882 l 1,150,-1
448 882 m 1,158,-1
 448 898 l 1,159,-1
 488 898 l 1,160,-1
 528 898 l 1,161,-1
 528 882 l 1,162,-1
 528 867 l 1,163,-1
 488 867 l 1,164,-1
 448 867 l 1,165,-1
 448 882 l 1,158,-1
621 882 m 1,166,-1
 621 898 l 1,167,-1
 661 898 l 1,168,-1
 701 898 l 1,169,-1
 701 882 l 1,170,-1
 701 867 l 1,171,-1
 661 867 l 1,172,-1
 621 867 l 1,173,-1
 621 882 l 1,166,-1
794 882 m 1,174,-1
 794 898 l 1,175,-1
 834 898 l 1,176,-1
 874 898 l 1,177,-1
 874 882 l 1,178,-1
 874 867 l 1,179,-1
 834 867 l 1,180,-1
 794 867 l 1,181,-1
 794 882 l 1,174,-1
EndSplineSet
Validated: 1
EndChar

StartChar: uni0194
Encoding: 404 404 125
Width: 1150
GlyphClass: 2
Flags: W
LayerCount: 2
Fore
SplineSet
97 900 m 2,0,-1
 1053 900 l 2,1,2
 1070 900 1070 900 1070 883 c 2,3,-1
 1070 -73 l 2,4,5
 1070 -90 1070 -90 1053 -90 c 2,6,-1
 97 -90 l 2,7,8
 80 -90 80 -90 80 -73 c 2,9,-1
 80 883 l 2,10,11
 80 900 80 900 97 900 c 2,0,-1
138 851 m 2,12,13
 129 851 129 851 129 842 c 2,14,-1
 129 684 l 1,15,-1
 296 851 l 1,16,-1
 138 851 l 2,12,13
521 851 m 1,17,-1
 129 459 l 1,18,-1
 129 275 l 1,19,-1
 705 851 l 1,20,-1
 521 851 l 1,17,-1
930 851 m 1,21,-1
 129 50 l 1,22,-1
 129 -32 l 2,23,24
 129 -41 129 -41 138 -41 c 2,25,-1
 222 -41 l 1,26,-1
 1021 758 l 1,27,-1
 1021 842 l 2,28,29
 1021 851 1021 851 1012 851 c 2,30,-1
 930 851 l 1,21,-1
1021 533 m 1,31,-1
 447 -41 l 1,32,-1
 631 -41 l 1,33,-1
 1021 349 l 1,34,-1
 1021 533 l 1,31,-1
1021 124 m 1,35,-1
 856 -41 l 1,36,-1
 1012 -41 l 2,37,38
 1021 -41 1021 -41 1021 -32 c 2,39,-1
 1021 124 l 1,35,-1
EndSplineSet
Validated: 1
EndChar

StartChar: uni0195
Encoding: 405 405 126
Width: 1147
GlyphClass: 2
Flags: W
LayerCount: 2
Fore
SplineSet
90 897 m 2,0,-1
 265 897 l 1,1,-1
 80 712 l 1,2,-1
 80 887 l 2,3,4
 80 897 80 897 90 897 c 2,0,-1
514 897 m 1,5,-1
 718 897 l 1,6,-1
 80 259 l 1,7,-1
 80 462 l 1,8,-1
 514 897 l 1,5,-1
967 897 m 1,9,-1
 1057 897 l 2,10,11
 1067 897 1067 897 1067 887 c 2,12,-1
 1067 794 l 1,13,-1
 182 -91 l 1,14,-1
 90 -91 l 2,15,16
 80 -91 80 -91 80 -81 c 2,17,-1
 80 10 l 1,18,-1
 967 897 l 1,9,-1
1067 545 m 1,19,-1
 1067 341 l 1,20,-1
 635 -91 l 1,21,-1
 432 -91 l 1,22,-1
 1067 545 l 1,19,-1
1067 92 m 1,23,-1
 1067 -81 l 2,24,25
 1067 -91 1067 -91 1057 -91 c 2,26,-1
 884 -91 l 1,27,-1
 1067 92 l 1,23,-1
EndSplineSet
Validated: 1
EndChar

StartChar: uni0196
Encoding: 406 406 127
Width: 1294
GlyphClass: 2
Flags: W
LayerCount: 2
Fore
SplineSet
645.5 896 m 0,0,1
 664.5 897 664.5 897 673.5 881 c 2,2,-1
 1209.5 -48 l 2,3,4
 1218.5 -63 1218.5 -63 1209.5 -78.5 c 128,-1,5
 1200.5 -94 1200.5 -94 1183.5 -94 c 2,6,-1
 110.5 -94 l 2,7,8
 93.5 -94 93.5 -94 84.5 -78.5 c 128,-1,9
 75.5 -63 75.5 -63 84.5 -48 c 2,10,-1
 620.5 881 l 2,11,12
 628.5 895 628.5 895 645.5 896 c 0,0,1
EndSplineSet
EndChar

StartChar: uni0197
Encoding: 407 407 128
Width: 1294
GlyphClass: 2
Flags: W
LayerCount: 2
Fore
SplineSet
645.5 -93.94140625 m 4,0,1
 664.5 -94.94140625 664.5 -94.94140625 673.5 -78.94140625 c 6,2,-1
 1209.5 850.05859375 l 6,3,4
 1218.5 865.05859375 1218.5 865.05859375 1209.5 880.55859375 c 132,-1,5
 1200.5 896.05859375 1200.5 896.05859375 1183.5 896.05859375 c 6,6,-1
 110.5 896.05859375 l 6,7,8
 93.5 896.05859375 93.5 896.05859375 84.5 880.55859375 c 132,-1,9
 75.5 865.05859375 75.5 865.05859375 84.5 850.05859375 c 6,10,-1
 620.5 -78.94140625 l 6,11,12
 628.5 -92.94140625 628.5 -92.94140625 645.5 -93.94140625 c 4,0,1
EndSplineSet
EndChar

StartChar: uni0198
Encoding: 408 408 129
Width: 1160
GlyphClass: 2
Flags: W
LayerCount: 2
Fore
SplineSet
80 400.114257812 m 1,0,-1
 580.002929688 900.1171875 l 1,1,-1
 1080.00585938 400.114257812 l 1,2,-1
 580.002929688 -99.888671875 l 1,3,-1
 80 400.114257812 l 1,0,-1
EndSplineSet
EndChar

StartChar: uni019B
Encoding: 411 411 130
Width: 1203
GlyphClass: 2
Flags: W
LayerCount: 2
Fore
SplineSet
924 -92 m 5,0,-1
 279 -92 l 5,1,-1
 80 521 l 5,2,-1
 602 900 l 5,3,-1
 1123 521 l 5,4,-1
 924 -92 l 5,0,-1
EndSplineSet
EndChar

StartChar: uni019D
Encoding: 413 413 131
Width: 1197
GlyphClass: 2
Flags: W
LayerCount: 2
Fore
SplineSet
895 -89 m 1,0,-1
 919 -89 l 1,1,-1
 926 -66 l 1,2,-1
 1110 498 l 1,3,-1
 1117 521 l 1,4,-1
 1098 535 l 1,5,-1
 618 884 l 1,6,-1
 599 898 l 1,7,-1
 579 884 l 1,8,-1
 99 536 l 1,9,-1
 80 521 l 1,10,-1
 87 499 l 1,11,-1
 270 -66 l 1,12,-1
 277 -89 l 1,13,-1
 301 -89 l 1,14,-1
 895 -89 l 1,0,-1
871 -23 m 1,15,-1
 326 -22 l 1,16,-1
 158 496 l 1,17,-1
 599 816 l 1,18,-1
 1039 495 l 1,19,-1
 871 -23 l 1,15,-1
EndSplineSet
EndChar

StartChar: uni019E
Encoding: 414 414 132
Width: 1293
GlyphClass: 2
Flags: W
LayerCount: 2
Fore
SplineSet
930 -88 m 1,0,-1
 363 -88 l 1,1,-1
 80 403 l 1,2,-1
 363 893 l 1,3,-1
 930 893 l 1,4,-1
 1213 403 l 1,5,-1
 930 -88 l 1,0,-1
EndSplineSet
EndChar

StartChar: uni01D4
Encoding: 468 468 133
Width: 1294
Flags: W
LayerCount: 2
Fore
SplineSet
645.5 896 m 0,0,1
 664.5 897 664.5 897 673.5 881 c 2,2,-1
 1209.5 -48 l 2,3,4
 1218.5 -63 1218.5 -63 1209.5 -78.5 c 128,-1,5
 1200.5 -94 1200.5 -94 1183.5 -94 c 2,6,-1
 110.5 -94 l 2,7,8
 93.5 -94 93.5 -94 84.5 -78.5 c 128,-1,9
 75.5 -63 75.5 -63 84.5 -48 c 2,10,-1
 620.5 881 l 2,11,12
 628.5 895 628.5 895 645.5 896 c 0,0,1
623.5 589 m 2,13,14
 608.5 589 608.5 589 598.5 579 c 0,15,16
 588.5 568 588.5 568 588.5 554 c 2,17,-1
 588.5 254 l 2,18,19
 588.5 239 588.5 239 598.5 229 c 256,20,21
 608.5 219 608.5 219 623.5 219 c 2,22,-1
 670.5 219 l 2,23,24
 685.5 219 685.5 219 695.5 229 c 256,25,26
 705.5 239 705.5 239 705.5 254 c 2,27,-1
 705.5 554 l 2,28,29
 705.5 568 705.5 568 695.5 579 c 0,30,31
 685.5 589 685.5 589 670.5 589 c 2,32,-1
 623.5 589 l 2,13,14
623.5 130 m 2,33,34
 608.5 130 608.5 130 598.5 120 c 256,35,36
 588.5 110 588.5 110 588.5 96 c 2,37,-1
 588.5 48 l 2,38,39
 588.5 33 588.5 33 598.5 23 c 256,40,41
 608.5 13 608.5 13 623.5 13 c 2,42,-1
 670.5 13 l 2,43,44
 685.5 13 685.5 13 695.5 23 c 256,45,46
 705.5 33 705.5 33 705.5 48 c 2,47,-1
 705.5 96 l 2,48,49
 705.5 109 705.5 109 695.5 120 c 0,50,51
 686.5 130 686.5 130 670.5 130 c 2,52,-1
 623.5 130 l 2,33,34
EndSplineSet
Validated: 33
EndChar

StartChar: uni01D5
Encoding: 469 469 134
Width: 363
Flags: W
LayerCount: 2
Fore
SplineSet
140 905 m 2,0,1
 114 905 114 905 97 888 c 0,2,3
 80 870 80 870 80 845 c 2,4,-1
 80 326 l 2,5,6
 80 302 80 302 97 284 c 0,7,8
 115 266 115 266 140 266 c 2,9,-1
 222 266 l 2,10,11
 247 266 247 266 265 284 c 256,12,13
 283 302 283 302 283 326 c 2,14,-1
 283 845 l 2,15,16
 283 868 283 868 265 888 c 0,17,18
 248 905 248 905 222 905 c 2,19,-1
 140 905 l 2,0,1
140 114 m 2,20,21
 115 114 115 114 97 96 c 0,22,23
 80 79 80 79 80 53 c 2,24,-1
 80 -29 l 2,25,26
 80 -55 80 -55 97 -72 c 0,27,28
 115 -90 115 -90 140 -90 c 2,29,-1
 222 -90 l 2,30,31
 248 -90 248 -90 265 -72 c 0,32,33
 283 -53 283 -53 283 -29 c 2,34,-1
 283 53 l 2,35,36
 283 80 283 80 265 96 c 0,37,38
 246 114 246 114 222 114 c 2,39,-1
 140 114 l 2,20,21
EndSplineSet
Validated: 9
EndChar

StartChar: uni0222
Encoding: 546 546 135
Width: 1157
Flags: W
LayerCount: 2
Fore
SplineSet
507.379882812 898.560546875 m 5,0,-1
 507.379882812 898.560546875 l 5,1,-1
 650.180664062 898.560546875 l 6,2,3
 658.33984375 898.560546875 658.33984375 898.560546875 664.970703125 892.440429688 c 132,-1,4
 671.600585938 886.3203125 671.600585938 886.3203125 671.600585938 877.140625 c 6,5,-1
 671.600585938 787.379882812 l 5,6,7
 733.8203125 772.080078125 733.8203125 772.080078125 786.860351562 739.440429688 c 5,8,-1
 850.100585938 802.680664062 l 6,9,10
 866.419921875 817.98046875 866.419921875 817.98046875 881.720703125 802.680664062 c 6,11,-1
 981.680664062 701.700195312 l 6,12,13
 996.98046875 686.400390625 996.98046875 686.400390625 981.680664062 671.100585938 c 6,14,-1
 918.440429688 607.860351562 l 5,15,16
 952.100585938 553.799804688 952.100585938 553.799804688 966.379882812 492.600585938 c 5,17,-1
 1056.140625 492.600585938 l 6,18,19
 1065.3203125 492.600585938 1065.3203125 492.600585938 1071.44042969 485.970703125 c 132,-1,20
 1077.56054688 479.33984375 1077.56054688 479.33984375 1077.56054688 470.16015625 c 6,21,-1
 1077.56054688 328.379882812 l 6,22,23
 1077.56054688 319.200195312 1077.56054688 319.200195312 1071.44042969 313.080078125 c 132,-1,24
 1065.3203125 306.959960938 1065.3203125 306.959960938 1056.140625 306.959960938 c 6,25,-1
 966.379882812 306.959960938 l 5,26,27
 952.100585938 244.740234375 952.100585938 244.740234375 918.440429688 190.680664062 c 5,28,-1
 981.680664062 127.440429688 l 6,29,30
 996.98046875 112.140625 996.98046875 112.140625 981.680664062 96.83984375 c 6,31,-1
 880.700195312 -3.1201171875 l 6,32,33
 865.400390625 -19.439453125 865.400390625 -19.439453125 850.100585938 -3.1201171875 c 6,34,-1
 787.879882812 59.1005859375 l 5,35,36
 733.8203125 26.4599609375 733.8203125 26.4599609375 671.600585938 11.16015625 c 5,37,-1
 671.600585938 -77.580078125 l 6,38,39
 671.600585938 -86.759765625 671.600585938 -86.759765625 664.970703125 -92.8798828125 c 132,-1,40
 658.33984375 -99 658.33984375 -99 650.180664062 -99 c 6,41,-1
 507.379882812 -99 l 6,42,43
 498.200195312 -99 498.200195312 -99 492.080078125 -92.8798828125 c 132,-1,44
 485.959960938 -86.759765625 485.959960938 -86.759765625 485.959960938 -77.580078125 c 6,45,-1
 485.959960938 11.16015625 l 5,46,47
 423.740234375 26.4599609375 423.740234375 26.4599609375 369.680664062 59.1005859375 c 5,48,-1
 307.459960938 -3.1201171875 l 6,49,50
 292.16015625 -19.439453125 292.16015625 -19.439453125 275.83984375 -3.1201171875 c 6,51,-1
 175.879882812 96.83984375 l 6,52,53
 160.580078125 112.140625 160.580078125 112.140625 175.879882812 127.440429688 c 6,54,-1
 239.120117188 190.680664062 l 5,55,56
 205.459960938 244.740234375 205.459960938 244.740234375 191.180664062 306.959960938 c 5,57,-1
 101.419921875 306.959960938 l 6,58,59
 92.240234375 306.959960938 92.240234375 306.959960938 86.1201171875 313.080078125 c 132,-1,60
 80 319.200195312 80 319.200195312 80 328.379882812 c 6,61,-1
 80 470.16015625 l 6,62,63
 80 479.33984375 80 479.33984375 86.1201171875 485.970703125 c 132,-1,64
 92.240234375 492.600585938 92.240234375 492.600585938 101.419921875 492.600585938 c 6,65,-1
 191.180664062 492.600585938 l 5,66,67
 205.459960938 553.799804688 205.459960938 553.799804688 239.120117188 607.860351562 c 5,68,-1
 175.879882812 671.100585938 l 6,69,70
 159.560546875 686.400390625 159.560546875 686.400390625 175.879882812 701.700195312 c 6,71,-1
 275.83984375 802.680664062 l 6,72,73
 291.140625 817.98046875 291.140625 817.98046875 306.440429688 802.680664062 c 6,74,-1
 369.680664062 739.440429688 l 5,75,76
 423.740234375 772.080078125 423.740234375 772.080078125 485.959960938 787.379882812 c 5,77,-1
 485.959960938 877.140625 l 6,78,79
 485.959960938 886.3203125 485.959960938 886.3203125 492.080078125 892.440429688 c 132,-1,80
 498.200195312 898.560546875 498.200195312 898.560546875 507.379882812 898.560546875 c 5,0,-1
578.780273438 632.33984375 m 132,-1,82
 481.879882812 632.33984375 481.879882812 632.33984375 414.049804688 564.510742188 c 132,-1,83
 346.220703125 496.680664062 346.220703125 496.680664062 346.220703125 399.780273438 c 132,-1,84
 346.220703125 302.879882812 346.220703125 302.879882812 414.049804688 235.049804688 c 132,-1,85
 481.879882812 167.220703125 481.879882812 167.220703125 578.780273438 167.220703125 c 132,-1,86
 675.680664062 167.220703125 675.680664062 167.220703125 743.510742188 235.049804688 c 132,-1,87
 811.33984375 302.879882812 811.33984375 302.879882812 811.33984375 399.780273438 c 132,-1,88
 811.33984375 496.680664062 811.33984375 496.680664062 743.510742188 564.510742188 c 132,-1,81
 675.680664062 632.33984375 675.680664062 632.33984375 578.780273438 632.33984375 c 132,-1,82
EndSplineSet
Validated: 37
EndChar

StartChar: uni0223
Encoding: 547 547 136
Width: 1358
Flags: W
LayerCount: 2
Fore
SplineSet
835 899 m 2,0,-1
 945 899 l 2,1,2
 962 899 962 899 962 882 c 2,3,-1
 962 812 l 1,4,5
 1010 801 1010 801 1052 775 c 1,6,-1
 1101 824 l 2,7,8
 1113 836 1113 836 1125 824 c 2,9,-1
 1204 746 l 2,10,11
 1216 734 1216 734 1204 722 c 2,12,-1
 1154 673 l 1,13,14
 1180 631 1180 631 1192 583 c 1,15,-1
 1261 583 l 2,16,17
 1278 583 1278 583 1278 566 c 2,18,-1
 1278 455 l 2,19,20
 1278 438 1278 438 1261 438 c 2,21,-1
 1192 438 l 1,22,23
 1180 390 1180 390 1154 348 c 1,24,-1
 1203 299 l 2,25,26
 1215 287 1215 287 1203 275 c 2,27,-1
 1125 197 l 2,28,29
 1113 185 1113 185 1101 197 c 2,30,-1
 1052 246 l 1,31,32
 1010 220 1010 220 962 209 c 1,33,-1
 962 140 l 2,34,35
 962 123 962 123 945 123 c 2,36,-1
 835 123 l 2,37,38
 818 123 818 123 818 140 c 2,39,-1
 818 209 l 1,40,41
 769 220 769 220 728 246 c 1,42,-1
 679 197 l 2,43,44
 667 185 667 185 655 197 c 2,45,-1
 577 275 l 2,46,47
 564 287 564 287 577 299 c 2,48,-1
 625 348 l 1,49,50
 600 390 600 390 588 438 c 1,51,-1
 519 438 l 2,52,53
 502 438 502 438 502 455 c 2,54,-1
 502 566 l 2,55,56
 502 583 502 583 519 583 c 2,57,-1
 588 583 l 1,58,59
 600 631 600 631 625 673 c 1,60,-1
 576 722 l 2,61,62
 564 734 564 734 576 746 c 2,63,-1
 654 824 l 2,64,65
 666 836 666 836 678 824 c 2,66,-1
 728 775 l 1,67,68
 769 801 769 801 818 812 c 1,69,-1
 818 882 l 2,70,71
 818 899 818 899 835 899 c 2,0,-1
890 692 m 128,-1,73
 815 692 815 692 762 639 c 128,-1,74
 709 586 709 586 709 511 c 128,-1,75
 709 436 709 436 762 383 c 128,-1,76
 815 330 815 330 890 330 c 128,-1,77
 965 330 965 330 1018 383 c 128,-1,78
 1071 436 1071 436 1071 511 c 128,-1,79
 1071 586 1071 586 1018 639 c 128,-1,72
 965 692 965 692 890 692 c 128,-1,73
314 445 m 2,80,-1
 391 443 l 2,81,82
 403 443 403 443 402 432 c 2,83,-1
 402 383 l 1,84,85
 435 375 435 375 464 357 c 1,86,-1
 498 390 l 2,87,88
 506 398 506 398 515 390 c 2,89,-1
 568 335 l 2,90,91
 576 327 576 327 568 319 c 2,92,-1
 533 285 l 1,93,94
 551 256 551 256 558 223 c 1,95,-1
 606 222 l 2,96,97
 618 222 618 222 617 210 c 2,98,-1
 616 134 l 2,99,100
 616 122 616 122 604 122 c 2,101,-1
 556 123 l 1,102,103
 548 90 548 90 530 61 c 1,104,-1
 563 27 l 2,105,106
 571 18 571 18 563 10 c 2,107,-1
 508 -43 l 2,108,109
 500 -51 500 -51 491 -43 c 2,110,-1
 458 -9 l 1,111,112
 429 -26 429 -26 396 -34 c 1,113,-1
 395 -81 l 2,114,115
 395 -93 395 -93 383 -93 c 2,116,-1
 307 -92 l 2,117,118
 295 -92 295 -92 295 -80 c 2,119,-1
 296 -32 l 1,120,121
 263 -24 263 -24 234 -5 c 1,122,-1
 199 -39 l 2,123,124
 191 -47 191 -47 183 -39 c 2,125,-1
 130 16 l 2,126,127
 121 25 121 25 130 33 c 2,128,-1
 164 66 l 1,129,130
 147 96 147 96 139 129 c 1,131,-1
 91 129 l 2,132,133
 80 130 80 130 80 141 c 2,134,-1
 81 218 l 2,135,136
 81 230 81 230 93 229 c 2,137,-1
 141 229 l 1,138,139
 149 262 149 262 168 291 c 1,140,-1
 134 325 l 2,141,142
 126 333 126 333 134 342 c 2,143,-1
 189 395 l 2,144,145
 197 403 197 403 206 395 c 2,146,-1
 239 360 l 1,147,148
 269 378 269 378 302 385 c 1,149,-1
 303 433 l 2,150,151
 303 445 303 445 314 445 c 2,80,-1
350.5 301 m 128,-1,153
 299 302 299 302 261.5 265.5 c 128,-1,154
 224 229 224 229 223.5 177.5 c 128,-1,155
 223 126 223 126 259 88.5 c 128,-1,156
 295 51 295 51 346.5 50.5 c 128,-1,157
 398 50 398 50 435.5 86 c 128,-1,158
 473 122 473 122 473.5 174 c 128,-1,159
 474 226 474 226 438 263 c 128,-1,152
 402 300 402 300 350.5 301 c 128,-1,153
EndSplineSet
Validated: 33
EndChar

StartChar: uni0249
Encoding: 585 585 137
Width: 842
Flags: W
LayerCount: 2
Fore
SplineSet
80 902 m 1,0,-1
 527 902 l 1,1,-1
 526 628 l 1,2,-1
 762 627 l 1,3,-1
 762 -94 l 1,4,-1
 80 -94 l 1,5,-1
 80 902 l 1,0,-1
596 895 m 1,6,-1
 757 696 l 1,7,-1
 595 697 l 1,8,-1
 596 895 l 1,6,-1
EndSplineSet
Validated: 1
EndChar

StartChar: uni024B
Encoding: 587 587 138
Width: 1096
Flags: W
LayerCount: 2
Fore
SplineSet
80 902 m 1,0,-1
 1016 902 l 1,1,-1
 1016 -62 l 1,2,-1
 1016 -92 l 1,3,-1
 825 -92 l 1,4,-1
 825 148 l 1,5,-1
 268 148 l 1,6,-1
 268 -92 l 1,7,-1
 188 -92 l 1,8,-1
 80 14 l 1,9,-1
 80 902 l 1,0,-1
257 783 m 1,10,-1
 257 270 l 1,11,-1
 839 270 l 1,12,-1
 839 783 l 1,13,-1
 257 783 l 1,10,-1
318 723 m 1,14,-1
 779 723 l 1,15,-1
 779 330 l 1,16,-1
 318 330 l 1,17,-1
 318 723 l 1,14,-1
328 87 m 1,18,-1
 765 87 l 1,19,-1
 765 -92 l 1,20,-1
 328 -92 l 1,21,-1
 328 87 l 1,18,-1
385 56 m 1,22,-1
 385 -70 l 1,23,-1
 448 -70 l 1,24,-1
 448 56 l 1,25,-1
 385 56 l 1,22,-1
EndSplineSet
Validated: 1
EndChar

StartChar: uni024A
Encoding: 586 586 139
Width: 1605
Flags: W
LayerCount: 2
Fore
SplineSet
80 897 m 1,0,-1
 445 897 l 1,1,-1
 518 803 l 1,2,-1
 1271 803 l 1,3,-1
 1271 671 l 1,4,-1
 444 672 l 1,5,-1
 138 18 l 1,6,-1
 124 -13 l 1,7,-1
 185 -42 l 1,8,-1
 200 -11 l 1,9,-1
 487 604 l 1,10,-1
 1525 603 l 1,11,-1
 1220 -74 l 1,12,-1
 1213 -89 l 1,13,-1
 80 -89 l 1,14,-1
 80 897 l 1,0,-1
EndSplineSet
Validated: 1
EndChar

StartChar: uni01AD
Encoding: 429 429 140
Width: 1161
Flags: W
LayerCount: 2
Fore
SplineSet
811.25 629.25 m 4,0,1
 816.75 629.75 816.75 629.75 820.75 625.75 c 6,2,-1
 906.25 540.25 l 6,3,4
 915.75 530.75 915.75 530.75 906.25 521.25 c 6,5,-1
 524.75 139.75 l 6,6,7
 515.25 130.25 515.25 130.25 505.75 139.75 c 6,8,-1
 261.75 383.75 l 6,9,10
 252.25 393.25 252.25 393.25 261.75 402.75 c 6,11,-1
 346.75 488.25 l 6,12,13
 356.25 497.75 356.25 497.75 365.75 488.25 c 6,14,-1
 515.25 338.75 l 5,15,-1
 801.75 625.75 l 6,16,17
 805.75 629.25 805.75 629.25 811.25 629.25 c 4,0,1
580.8203125 -99.8095703125 m 128,-1,19
 787.879882812 -99.8095703125 787.879882812 -99.8095703125 934.760742188 46.5595703125 c 128,-1,20
 1081.640625 192.9296875 1081.640625 192.9296875 1081.640625 399.990234375 c 128,-1,21
 1081.640625 607.049804688 1081.640625 607.049804688 934.760742188 753.9296875 c 128,-1,22
 787.879882812 900.809570312 787.879882812 900.809570312 580.8203125 900.809570312 c 128,-1,23
 373.760742188 900.809570312 373.760742188 900.809570312 226.879882812 753.9296875 c 128,-1,24
 80 607.049804688 80 607.049804688 80 399.990234375 c 128,-1,25
 80 192.9296875 80 192.9296875 226.879882812 46.5595703125 c 128,-1,18
 373.760742188 -99.8095703125 373.760742188 -99.8095703125 580.8203125 -99.8095703125 c 128,-1,19
EndSplineSet
EndChar

StartChar: uni01AE
Encoding: 430 430 141
Width: 1161
VWidth: 1006
Flags: W
LayerCount: 2
Fore
SplineSet
738.030273438 666.0703125 m 260,0,1
 743.969726562 666.0703125 743.969726562 666.0703125 748.290039062 661.75 c 6,2,-1
 841.169921875 568.870117188 l 6,3,4
 851.430664062 558.610351562 851.430664062 558.610351562 841.169921875 548.349609375 c 6,5,-1
 690.509765625 397.689453125 l 5,6,-1
 843.870117188 244.330078125 l 6,7,8
 854.669921875 234.069335938 854.669921875 234.069335938 843.870117188 223.26953125 c 6,9,-1
 751.530273438 130.9296875 l 6,10,11
 741.26953125 120.669921875 741.26953125 120.669921875 731.009765625 130.9296875 c 6,12,-1
 577.109375 284.830078125 l 5,13,-1
 424.830078125 132.549804688 l 6,14,15
 414.5703125 122.290039062 414.5703125 122.290039062 404.309570312 132.549804688 c 6,16,-1
 311.969726562 224.889648438 l 6,17,18
 301.709960938 235.150390625 301.709960938 235.150390625 311.969726562 245.41015625 c 6,19,-1
 464.25 397.689453125 l 5,20,-1
 315.209960938 546.73046875 l 6,21,22
 304.950195312 556.989257812 304.950195312 556.989257812 315.209960938 567.25 c 6,23,-1
 407.549804688 659.58984375 l 6,24,25
 418.349609375 670.389648438 418.349609375 670.389648438 428.609375 659.58984375 c 6,26,-1
 577.109375 511.08984375 l 5,27,-1
 727.76953125 661.75 l 6,28,29
 732.08984375 666.0703125 732.08984375 666.0703125 738.030273438 666.0703125 c 260,0,1
580.8203125 -99.91015625 m 128,-1,31
 787.879882812 -99.91015625 787.879882812 -99.91015625 934.760742188 46.4599609375 c 128,-1,32
 1081.640625 192.830078125 1081.640625 192.830078125 1081.640625 399.889648438 c 128,-1,33
 1081.640625 606.950195312 1081.640625 606.950195312 934.760742188 753.830078125 c 128,-1,34
 787.879882812 900.709960938 787.879882812 900.709960938 580.8203125 900.709960938 c 128,-1,35
 373.760742188 900.709960938 373.760742188 900.709960938 226.879882812 753.830078125 c 128,-1,36
 80 606.950195312 80 606.950195312 80 399.889648438 c 128,-1,37
 80 192.830078125 80 192.830078125 226.879882812 46.4599609375 c 128,-1,30
 373.760742188 -99.91015625 373.760742188 -99.91015625 580.8203125 -99.91015625 c 128,-1,31
EndSplineSet
EndChar

StartChar: Uhorn
Encoding: 431 431 142
Width: 1161
VWidth: 1006
Flags: W
LayerCount: 2
Fore
SplineSet
834.037109375 590.583984375 m 0,0,1
 833.780273438 585.530273438 833.780273438 585.530273438 828.62109375 577.311523438 c 0,2,3
 804.200195312 536.5703125 804.200195312 536.5703125 688.057617188 362.827148438 c 0,4,5
 583.879882812 208.129882812 583.879882812 208.129882812 559.807617188 177.286132812 c 0,6,7
 535.940429688 146.9296875 535.940429688 146.9296875 517.26171875 146.5078125 c 0,8,9
 495.140625 146.9296875 495.140625 146.9296875 479.888671875 163.669921875 c 128,-1,10
 464.540039062 180.58984375 464.540039062 180.58984375 405.501953125 268.793945312 c 0,11,12
 356.419921875 342.76953125 356.419921875 342.76953125 328.592773438 392.51953125 c 0,13,14
 320.720703125 406.009765625 320.720703125 406.009765625 329.321289062 422.250976562 c 0,15,16
 338.060546875 437.629882812 338.060546875 437.629882812 351.591796875 446.248046875 c 0,17,18
 364.580078125 453.950195312 364.580078125 453.950195312 378.655273438 454.358398438 c 0,19,20
 395.428710938 455.06640625 395.428710938 455.06640625 406.765625 444.76953125 c 0,21,22
 424.760742188 428.450195312 424.760742188 428.450195312 465.51171875 366.551757812 c 0,23,24
 512.48046875 295.849609375 512.48046875 295.849609375 515.2578125 296.395507812 c 0,25,26
 517.580078125 296.870117188 517.580078125 296.870117188 624.381835938 455.895507812 c 0,27,28
 729.740234375 613.0703125 729.740234375 613.0703125 739.130859375 623.80859375 c 0,29,30
 752.180664062 638.5703125 752.180664062 638.5703125 758.965820312 642.509765625 c 0,31,32
 765.440429688 645.709960938 765.440429688 645.709960938 778.362304688 646.399414062 c 0,33,34
 805.220703125 646.73046875 805.220703125 646.73046875 818.594726562 633.762695312 c 0,35,36
 825.620117188 627.349609375 825.620117188 627.349609375 828.172851562 623.640625 c 0,37,38
 830.720703125 620.209960938 830.720703125 620.209960938 833.151367188 611.495117188 c 0,39,40
 835.8203125 602.870117188 835.8203125 602.870117188 834.037109375 590.583984375 c 0,0,1
580.8203125 -99.91015625 m 128,-1,42
 787.879882812 -99.91015625 787.879882812 -99.91015625 934.760742188 46.4599609375 c 128,-1,43
 1081.640625 192.830078125 1081.640625 192.830078125 1081.640625 399.889648438 c 128,-1,44
 1081.640625 606.950195312 1081.640625 606.950195312 934.760742188 753.830078125 c 128,-1,45
 787.879882812 900.709960938 787.879882812 900.709960938 580.8203125 900.709960938 c 128,-1,46
 373.760742188 900.709960938 373.760742188 900.709960938 226.879882812 753.830078125 c 128,-1,47
 80 606.950195312 80 606.950195312 80 399.889648438 c 128,-1,48
 80 192.830078125 80 192.830078125 226.879882812 46.4599609375 c 128,-1,41
 373.760742188 -99.91015625 373.760742188 -99.91015625 580.8203125 -99.91015625 c 128,-1,42
EndSplineSet
EndChar

StartChar: uhorn
Encoding: 432 432 143
Width: 1161
VWidth: 1006
Flags: W
LayerCount: 2
Fore
SplineSet
703.145507812 634.217773438 m 5,0,1
 726.522460938 648.315429688 726.522460938 648.315429688 760.083984375 635.46875 c 4,2,3
 779.125976562 628.180664062 779.125976562 628.180664062 786.192382812 608.196289062 c 132,-1,4
 793.258789062 588.212890625 793.258789062 588.212890625 783.326171875 573.66796875 c 4,5,6
 771.963867188 552.23046875 771.963867188 552.23046875 718.671875 494.48046875 c 4,7,8
 681.2109375 453.395507812 681.2109375 453.395507812 633.892578125 398.439453125 c 5,9,10
 650.674804688 377.563476562 650.674804688 377.563476562 703.080078125 317.069335938 c 132,-1,11
 755.487304688 256.576171875 755.487304688 256.576171875 781.640625 221.111328125 c 4,12,13
 785.868164062 215.377929688 785.868164062 215.377929688 786.7734375 204.143554688 c 132,-1,14
 787.6796875 192.911132812 787.6796875 192.911132812 784.932617188 184.521484375 c 4,15,16
 777.993164062 162.208007812 777.993164062 162.208007812 748.415039062 155.1796875 c 4,17,18
 728.725585938 149.0390625 728.725585938 149.0390625 709.458984375 153.640625 c 132,-1,19
 690.190429688 158.243164062 690.190429688 158.243164062 674.674804688 176.693359375 c 4,20,21
 647.794921875 210.112304688 647.794921875 210.112304688 562.217773438 313.35546875 c 5,22,23
 503.0390625 241.65234375 503.0390625 241.65234375 445.749023438 168.477539062 c 4,24,25
 437.520507812 157.96484375 437.520507812 157.96484375 421.391601562 155.87890625 c 132,-1,26
 405.262695312 153.79296875 405.262695312 153.79296875 397.565429688 158.557617188 c 4,27,28
 386.951171875 163.223632812 386.951171875 163.223632812 381.419921875 167.474609375 c 132,-1,29
 375.890625 171.723632812 375.890625 171.723632812 367.057617188 182.643554688 c 4,30,31
 358.0234375 193.8125 358.0234375 193.8125 357.19140625 212.91796875 c 132,-1,32
 356.359375 232.024414062 356.359375 232.024414062 368.469726562 249.052734375 c 4,33,34
 391.78125 276.859375 391.78125 276.859375 491.705078125 399.497070312 c 5,35,36
 463.481445312 434.438476562 463.481445312 434.438476562 448.971679688 453.181640625 c 4,37,38
 426.837890625 481.799804688 426.837890625 481.799804688 410.419921875 505.266601562 c 132,-1,39
 394 528.733398438 394 528.733398438 387.420898438 539.223632812 c 132,-1,40
 380.840820312 549.713867188 380.840820312 549.713867188 363.6640625 577.887695312 c 4,41,42
 355.510742188 593.849609375 355.510742188 593.849609375 362.473632812 610.638671875 c 132,-1,43
 369.438476562 627.427734375 369.438476562 627.427734375 383.68359375 635.078125 c 4,44,45
 395.286132812 642.374023438 395.286132812 642.374023438 416.43359375 641.716796875 c 132,-1,46
 437.58203125 641.05859375 437.58203125 641.05859375 450.345703125 630.517578125 c 4,47,48
 469.858398438 614.40234375 469.858398438 614.40234375 515.473632812 551.716796875 c 4,49,50
 533.291015625 527.548828125 533.291015625 527.548828125 564.279296875 487.1328125 c 5,51,52
 591.62109375 519.5625 591.62109375 519.5625 595.870117188 524.4453125 c 4,53,54
 619.737304688 551.84765625 619.737304688 551.84765625 639.90625 572.903320312 c 132,-1,55
 660.075195312 593.958984375 660.075195312 593.958984375 669.0546875 602.465820312 c 132,-1,56
 678.034179688 610.97265625 678.034179688 610.97265625 703.145507812 634.217773438 c 5,0,1
580.8203125 -99.91015625 m 128,-1,58
 787.879882812 -99.91015625 787.879882812 -99.91015625 934.760742188 46.4599609375 c 128,-1,59
 1081.640625 192.830078125 1081.640625 192.830078125 1081.640625 399.889648438 c 128,-1,60
 1081.640625 606.950195312 1081.640625 606.950195312 934.760742188 753.830078125 c 128,-1,61
 787.879882812 900.709960938 787.879882812 900.709960938 580.8203125 900.709960938 c 128,-1,62
 373.760742188 900.709960938 373.760742188 900.709960938 226.879882812 753.830078125 c 128,-1,63
 80 606.950195312 80 606.950195312 80 399.889648438 c 128,-1,64
 80 192.830078125 80 192.830078125 226.879882812 46.4599609375 c 128,-1,57
 373.760742188 -99.91015625 373.760742188 -99.91015625 580.8203125 -99.91015625 c 128,-1,58
EndSplineSet
EndChar

StartChar: aringacute
Encoding: 507 507 144
Width: 1150
Flags: W
LayerCount: 2
Fore
SplineSet
567.287109375 896 m 0,0,1
 780.287109375 897 780.287109375 897 926.287109375 742 c 1,2,-1
 1034.28710938 810 l 2,3,4
 1039.28710938 813 1039.28710938 813 1045.28710938 812 c 0,5,6
 1055.28710938 810 1055.28710938 810 1056.28710938 799 c 2,7,-1
 1070.28710938 411 l 2,8,9
 1071.28710938 403 1071.28710938 403 1064.28710938 398.5 c 128,-1,10
 1057.28710938 394 1057.28710938 394 1050.28710938 398 c 2,11,-1
 706.287109375 580 l 2,12,13
 699.287109375 583 699.287109375 583 699.287109375 591 c 128,-1,14
 699.287109375 599 699.287109375 599 706.287109375 604 c 2,15,-1
 817.287109375 674 l 1,16,17
 750.287109375 736 750.287109375 736 660.287109375 759.5 c 128,-1,18
 570.287109375 783 570.287109375 783 480.287109375 760 c 0,19,20
 333.287109375 722 333.287109375 722 256.287109375 593 c 128,-1,21
 179.287109375 464 179.287109375 464 216.787109375 317 c 128,-1,22
 254.287109375 170 254.287109375 170 383.787109375 93.5 c 128,-1,23
 513.287109375 17 513.287109375 17 659.287109375 54 c 0,24,25
 668.287109375 57 668.287109375 57 676.287109375 57 c 0,26,27
 702.287109375 57 702.287109375 57 720.287109375 38.5 c 128,-1,28
 738.287109375 20 738.287109375 20 738.287109375 -6 c 0,29,30
 738.287109375 -26 738.287109375 -26 724.287109375 -44 c 128,-1,31
 710.287109375 -62 710.287109375 -62 690.287109375 -67 c 0,32,33
 495.287109375 -116 495.287109375 -116 320.787109375 -12.5 c 128,-1,34
 146.287109375 91 146.287109375 91 96.287109375 286.5 c 128,-1,35
 46.287109375 482 46.287109375 482 149.787109375 656.5 c 128,-1,36
 253.287109375 831 253.287109375 831 449.287109375 881 c 0,37,38
 507.287109375 896 507.287109375 896 567.287109375 896 c 0,0,1
EndSplineSet
Validated: 33
EndChar

StartChar: AEacute
Encoding: 508 508 145
Width: 1427
Flags: W
LayerCount: 2
Fore
SplineSet
713.446289062 893 m 0,0,1
 908.446289062 893 908.446289062 893 1050.94628906 758.5 c 128,-1,2
 1193.44628906 624 1193.44628906 624 1204.44628906 430 c 1,3,-1
 1314.44628906 430 l 2,4,5
 1363.44628906 430 1363.44628906 430 1339.44628906 388 c 2,6,-1
 1251.44628906 236 l 1,7,-1
 1162.44628906 83 l 2,8,9
 1154.44628906 69 1154.44628906 69 1138.44628906 69 c 128,-1,10
 1122.44628906 69 1122.44628906 69 1114.44628906 83 c 2,11,-1
 1026.44628906 236 l 1,12,-1
 938.446289062 388 l 2,13,14
 913.446289062 430 913.446289062 430 962.446289062 430 c 2,15,-1
 1075.44628906 430 l 1,16,17
 1049.44628906 765 1049.44628906 765 713.446289062 765 c 0,18,19
 648.446289062 765 648.446289062 765 648.446289062 829 c 128,-1,20
 648.446289062 893 648.446289062 893 713.446289062 893 c 0,0,1
290.446289062 743 m 0,21,22
 305.446289062 742 305.446289062 742 313.446289062 729 c 2,23,-1
 401.446289062 576 l 1,24,-1
 489.446289062 423 l 2,25,26
 513.446289062 381 513.446289062 381 465.446289062 381 c 2,27,-1
 351.446289062 381 l 1,28,29
 369.446289062 38 369.446289062 38 713.446289062 38 c 0,30,31
 778.446289062 38 778.446289062 38 778.446289062 -26 c 128,-1,32
 778.446289062 -90 778.446289062 -90 714.446289062 -90 c 0,33,34
 516.446289062 -90 516.446289062 -90 373.446289062 47.5 c 128,-1,35
 230.446289062 185 230.446289062 185 222.446289062 381 c 1,36,-1
 112.446289062 381 l 2,37,38
 63.4462890625 381 63.4462890625 381 88.4462890625 423 c 2,39,-1
 176.446289062 576 l 1,40,-1
 264.446289062 729 l 2,41,42
 272.446289062 743 272.446289062 743 290.446289062 743 c 0,21,22
EndSplineSet
Validated: 33
EndChar

StartChar: uni01B5
Encoding: 437 437 146
Width: 1161
VWidth: 1006
Flags: W
LayerCount: 2
Fore
SplineSet
580.8203125 -99.91015625 m 128,-1,1
 787.879882812 -99.91015625 787.879882812 -99.91015625 934.760742188 46.4599609375 c 128,-1,2
 1081.640625 192.830078125 1081.640625 192.830078125 1081.640625 399.889648438 c 128,-1,3
 1081.640625 606.950195312 1081.640625 606.950195312 934.760742188 753.830078125 c 128,-1,4
 787.879882812 900.709960938 787.879882812 900.709960938 580.8203125 900.709960938 c 128,-1,5
 373.760742188 900.709960938 373.760742188 900.709960938 226.879882812 753.830078125 c 128,-1,6
 80 606.950195312 80 606.950195312 80 399.889648438 c 128,-1,7
 80 192.830078125 80 192.830078125 226.879882812 46.4599609375 c 128,-1,0
 373.760742188 -99.91015625 373.760742188 -99.91015625 580.8203125 -99.91015625 c 128,-1,1
552.260742188 96.9501953125 m 2,8,9
 511.459960938 96.9501953125 511.459960938 96.9501953125 511.459960938 137.75 c 2,10,-1
 511.459960938 193.849609375 l 2,11,12
 511.459960938 235.669921875 511.459960938 235.669921875 552.260742188 235.669921875 c 2,13,-1
 609.379882812 235.669921875 l 2,14,15
 650.180664062 235.669921875 650.180664062 235.669921875 650.180664062 193.849609375 c 2,16,-1
 650.180664062 137.75 l 2,17,18
 650.180664062 96.9501953125 650.180664062 96.9501953125 609.379882812 96.9501953125 c 2,19,-1
 552.260742188 96.9501953125 l 2,8,9
552.260742188 338.690429688 m 2,20,21
 511.459960938 338.690429688 511.459960938 338.690429688 511.459960938 379.490234375 c 2,22,-1
 511.459960938 663.049804688 l 2,23,24
 511.459960938 703.849609375 511.459960938 703.849609375 552.260742188 703.849609375 c 2,25,-1
 609.379882812 703.849609375 l 2,26,27
 650.180664062 703.849609375 650.180664062 703.849609375 650.180664062 663.049804688 c 2,28,-1
 650.180664062 379.490234375 l 2,29,30
 650.180664062 338.690429688 650.180664062 338.690429688 609.379882812 338.690429688 c 2,31,-1
 552.260742188 338.690429688 l 2,20,21
EndSplineSet
EndChar

StartChar: uni01B6
Encoding: 438 438 147
Width: 1161
VWidth: 1006
Flags: W
LayerCount: 2
Fore
SplineSet
580.8203125 900.709960938 m 128,-1,1
 787.879882812 900.709960938 787.879882812 900.709960938 934.760742188 753.830078125 c 128,-1,2
 1081.640625 606.950195312 1081.640625 606.950195312 1081.640625 399.889648438 c 128,-1,3
 1081.640625 192.830078125 1081.640625 192.830078125 934.760742188 46.4599609375 c 128,-1,4
 787.879882812 -99.91015625 787.879882812 -99.91015625 580.8203125 -99.91015625 c 128,-1,5
 373.760742188 -99.91015625 373.760742188 -99.91015625 226.879882812 46.4599609375 c 128,-1,6
 80 192.830078125 80 192.830078125 80 399.889648438 c 128,-1,7
 80 606.950195312 80 606.950195312 226.879882812 753.830078125 c 128,-1,0
 373.760742188 900.709960938 373.760742188 900.709960938 580.8203125 900.709960938 c 128,-1,1
552.260742188 703.849609375 m 2,8,9
 511.459960938 703.849609375 511.459960938 703.849609375 511.459960938 663.049804688 c 2,10,-1
 511.459960938 605.9296875 l 2,11,12
 511.459960938 565.129882812 511.459960938 565.129882812 552.260742188 565.129882812 c 2,13,-1
 609.379882812 565.129882812 l 2,14,15
 650.180664062 565.129882812 650.180664062 565.129882812 650.180664062 605.9296875 c 2,16,-1
 650.180664062 663.049804688 l 2,17,18
 650.180664062 703.849609375 650.180664062 703.849609375 609.379882812 703.849609375 c 2,19,-1
 552.260742188 703.849609375 l 2,8,9
552.260742188 461.08984375 m 2,20,21
 511.459960938 461.08984375 511.459960938 461.08984375 511.459960938 420.290039062 c 2,22,-1
 511.459960938 137.75 l 2,23,24
 511.459960938 96.9501953125 511.459960938 96.9501953125 552.260742188 96.9501953125 c 2,25,-1
 609.379882812 96.9501953125 l 2,26,27
 650.180664062 96.9501953125 650.180664062 96.9501953125 650.180664062 137.75 c 2,28,-1
 650.180664062 420.290039062 l 2,29,30
 650.180664062 461.08984375 650.180664062 461.08984375 609.379882812 461.08984375 c 2,31,-1
 552.260742188 461.08984375 l 2,20,21
EndSplineSet
EndChar

StartChar: Aogonek
Encoding: 260 260 148
Width: 1436
Flags: W
LayerCount: 2
Fore
SplineSet
1130 898 m 0,0,1
 1142 898 1142 898 1150 889 c 2,2,-1
 1347 692 l 2,3,4
 1366 673 1366 673 1347 653 c 2,5,-1
 612 -82 l 2,6,7
 592 -102 592 -102 573 -82 c 2,8,-1
 90 401 l 2,9,10
 70 421 70 421 90 440 c 2,11,-1
 287 637 l 2,12,13
 306 657 306 657 326 637 c 2,14,-1
 592 371 l 1,15,-1
 1110 889 l 2,16,17
 1119 897 1119 897 1130 898 c 0,0,1
EndSplineSet
Validated: 33
EndChar

StartChar: two
Encoding: 50 50 149
Width: 616
VWidth: 0
Flags: W
LayerCount: 2
Fore
SplineSet
362.571289062 699.728515625 m 2,0,1
 453.053710938 699.91796875 453.053710938 699.91796875 491.373046875 644.204101562 c 0,2,3
 520.765625 601.471679688 520.765625 601.471679688 515.526367188 523.905273438 c 2,4,-1
 515.291015625 521.7265625 l 2,5,6
 506.276367188 450.115234375 506.276367188 450.115234375 445.702148438 390.970703125 c 0,7,8
 414.498046875 360.504882812 414.498046875 360.504882812 331.423828125 305.059570312 c 0,9,10
 189.77734375 210.5 189.77734375 210.5 177.431640625 126.454101562 c 2,11,-1
 177.353515625 77.0302734375 l 1,12,-1
 477.306640625 77.0302734375 l 2,13,14
 516.36328125 77.041015625 516.36328125 77.041015625 516.36328125 38.509765625 c 128,-1,15
 516.36328125 -0.0107421875 516.36328125 -0.0107421875 477.842773438 -0.0107421875 c 0,16,-1
 138.766601562 0 l 2,17,18
 100.245117188 0 100.245117188 0 100.245117188 38.509765625 c 2,19,-1
 100.389648438 130.744140625 l 1,20,-1
 100.76953125 136.017578125 l 2,21,22
 117.303710938 254.696289062 117.303710938 254.696289062 288.703125 369.084960938 c 0,23,24
 365.778320312 420.520507812 365.778320312 420.520507812 391.920898438 446.047851562 c 0,25,26
 432.551757812 485.73046875 432.551757812 485.73046875 438.485351562 530.674804688 c 0,27,28
 441.45703125 580.736328125 441.45703125 580.736328125 427.872070312 600.48828125 c 0,29,30
 412.5546875 622.798828125 412.5546875 622.798828125 362.727539062 622.686523438 c 0,31,-1
 362.650390625 622.686523438 l 1,32,-1
 139.133789062 622.384765625 l 2,33,34
 100 622.384765625 100 622.384765625 100 660.90625 c 128,-1,35
 100 699.426757812 100 699.426757812 138.520507812 699.426757812 c 0,36,-1
 362.571289062 699.728515625 l 2,0,1
EndSplineSet
EndChar

StartChar: uni02BE
Encoding: 702 702 150
Width: 1209
Flags: W
LayerCount: 2
Fore
SplineSet
604 899 m 1,0,-1
 734 526 l 1,1,-1
 1129 518 l 1,2,-1
 814 279 l 1,3,-1
 928 -98 l 1,4,-1
 604 127 l 1,5,-1
 280 -98 l 1,6,-1
 395 279 l 1,7,-1
 80 518 l 1,8,-1
 475 526 l 1,9,-1
 604 899 l 1,0,-1
EndSplineSet
Validated: 1
EndChar

StartChar: uni0297
Encoding: 663 663 151
Width: 952
Flags: W
LayerCount: 2
Fore
SplineSet
390 796 m 6,0,-1
 562 796 l 6,1,2
 570 796 570 796 576 790.5 c 132,-1,3
 582 785 582 785 582 776 c 6,4,-1
 582 507 l 5,5,-1
 851 507 l 6,6,7
 860 507 860 507 866 501 c 132,-1,8
 872 495 872 495 872 487 c 6,9,-1
 872 315 l 6,10,11
 872 306 872 306 866 300 c 132,-1,12
 860 294 860 294 851 294 c 6,13,-1
 582 294 l 5,14,-1
 582 25 l 6,15,16
 582 17 582 17 576 11 c 132,-1,17
 570 5 570 5 562 5 c 6,18,-1
 390 5 l 6,19,20
 381 5 381 5 376 11 c 4,21,22
 369 16 369 16 370 25 c 6,23,-1
 370 294 l 5,24,-1
 100 294 l 6,25,26
 92 294 92 294 86 300 c 260,27,28
 80 306 80 306 80 315 c 6,29,-1
 80 487 l 6,30,31
 80 495 80 495 86 501 c 132,-1,32
 92 507 92 507 100 507 c 6,33,-1
 370 507 l 5,34,-1
 370 776 l 6,35,36
 370 785 370 785 375.5 790.5 c 132,-1,37
 381 796 381 796 390 796 c 6,0,-1
EndSplineSet
Validated: 1
EndChar

StartChar: uni0298
Encoding: 664 664 152
Width: 947
Flags: W
LayerCount: 2
Fore
SplineSet
867 486 m 2,0,-1
 867 315 l 2,1,2
 867 307 867 307 861 301 c 128,-1,3
 855 295 855 295 847 295 c 2,4,-1
 100 295 l 2,5,6
 92 295 92 295 86 301 c 128,-1,7
 80 307 80 307 80 315 c 2,8,-1
 80 486 l 2,9,10
 80 495 80 495 86 500.5 c 128,-1,11
 92 506 92 506 100 506 c 2,12,-1
 847 506 l 2,13,14
 855 506 855 506 861 500.5 c 128,-1,15
 867 495 867 495 867 486 c 2,0,-1
EndSplineSet
Validated: 1
EndChar

StartChar: semicolon
Encoding: 59 59 153
Width: 300
VWidth: 26
Flags: W
LayerCount: 2
Fore
SplineSet
181.15625 471.400390625 m 128,-1,1
 239.46875 471.400390625 239.46875 471.400390625 239.46875 413.112304688 c 128,-1,2
 239.444335938 354.799804688 239.444335938 354.799804688 181.181640625 354.799804688 c 128,-1,3
 122.869140625 354.825195312 122.869140625 354.825195312 122.869140625 413.087890625 c 128,-1,0
 122.869140625 471.400390625 122.869140625 471.400390625 181.15625 471.400390625 c 128,-1,1
174.962890625 98.787109375 m 128,-1,5
 198.512695312 98.849609375 198.512695312 98.849609375 217.55078125 82.7998046875 c 0,6,7
 258.788085938 41.587890625 258.788085938 41.587890625 217.55078125 0.349609375 c 2,8,-1
 102.42578125 -111.450195312 l 2,9,10
 61.2255859375 -152.674804688 61.2255859375 -152.674804688 20 -111.424804688 c 128,-1,11
 -21.2119140625 -70.212890625 -21.2119140625 -70.212890625 20 -29 c 2,12,-1
 135.125 82.7998046875 l 2,13,4
 151.5625 98.724609375 151.5625 98.724609375 174.962890625 98.787109375 c 128,-1,5
EndSplineSet
EndChar

StartChar: comma
Encoding: 44 44 154
Width: 300
VWidth: -20
Flags: W
LayerCount: 2
Fore
SplineSet
174.837890625 98.4375 m 132,-1,1
 198.387695312 98.5 198.387695312 98.5 217.424804688 82.4501953125 c 4,2,3
 258.662109375 41.2373046875 258.662109375 41.2373046875 217.424804688 0 c 6,4,-1
 102.299804688 -111.799804688 l 6,5,6
 61.099609375 -153.025390625 61.099609375 -153.025390625 19.875 -111.775390625 c 132,-1,7
 -21.337890625 -70.5625 -21.337890625 -70.5625 19.875 -29.349609375 c 6,8,-1
 135 82.4501953125 l 6,9,0
 151.4375 98.375 151.4375 98.375 174.837890625 98.4375 c 132,-1,1
EndSplineSet
EndChar

StartChar: period
Encoding: 46 46 155
Width: 300
VWidth: -4
Flags: W
LayerCount: 2
Fore
SplineSet
149.987304688 116.5625 m 128,-1,1
 208.275390625 116.587890625 208.275390625 116.587890625 208.299804688 58.287109375 c 128,-1,2
 208.275390625 -0.025390625 208.275390625 -0.025390625 149.987304688 0 c 128,-1,3
 91.7001953125 0 91.7001953125 0 91.7001953125 58.287109375 c 128,-1,0
 91.7001953125 116.5625 91.7001953125 116.5625 149.987304688 116.5625 c 128,-1,1
EndSplineSet
EndChar

StartChar: slash
Encoding: 47 47 156
Width: 700
VWidth: 79
Flags: W
LayerCount: 2
Fore
SplineSet
530.768554688 799.982421875 m 2,0,-1
 532.318359375 800.006835938 l 2,1,2
 588.700195312 800.006835938 588.700195312 800.006835938 588.700195312 743.637695312 c 0,3,4
 588.700195312 729.166992188 588.700195312 729.166992188 581.724609375 716.48828125 c 2,5,-1
 217.958984375 30.6982421875 l 2,6,7
 202.290039062 -0.1806640625 202.290039062 -0.1806640625 167.681640625 -0.1806640625 c 0,8,9
 111.299804688 -0.1806640625 111.299804688 -0.1806640625 111.299804688 56.1884765625 c 0,10,11
 111.299804688 70.79296875 111.299804688 70.79296875 118.396484375 83.5322265625 c 2,12,-1
 482.162109375 769.321289062 l 2,13,14
 497.395507812 799.0625 497.395507812 799.0625 530.768554688 799.982421875 c 2,0,-1
EndSplineSet
Validated: 1
EndChar

